SplineFontDB: 3.0
FontName: Xolonium-Bold
FullName: Xolonium Bold
FamilyName: Xolonium
Weight: Bold
Copyright: Copyright (C) 2011-2014 Severin Meyer
Version: 2.4
ItalicAngle: 0
UnderlinePosition: -75
UnderlineWidth: 70
Ascent: 800
Descent: 200
LayerCount: 2
Layer: 0 0 "Back"  1
Layer: 1 0 "Fore"  0
XUID: [1021 881 1079499186 2968987]
FSType: 0
OS2Version: 3
OS2_WeightWidthSlopeOnly: 0
OS2_UseTypoMetrics: 1
CreationTime: 1293620299
ModificationTime: 1418946620
PfmFamily: 33
TTFWeight: 700
TTFWidth: 5
LineGap: 90
VLineGap: 0
OS2TypoAscent: 0
OS2TypoAOffset: 1
OS2TypoDescent: 0
OS2TypoDOffset: 1
OS2TypoLinegap: 90
OS2WinAscent: 0
OS2WinAOffset: 1
OS2WinDescent: 0
OS2WinDOffset: 1
HheadAscent: 0
HheadAOffset: 1
HheadDescent: 0
HheadDOffset: 1
OS2Vendor: 'PfEd'
MarkAttachClasses: 1
DEI: 91125
LangName: 1033 "" "" "" "" "" "" "" "" "" "" "" "" "" "GNU General Public License, version 2 or later, with GPL Font Exception" "http://www.gnu.org/licenses/gpl-2.0" 
Encoding: UnicodeFull
UnicodeInterp: none
NameList: Adobe Glyph List
DisplaySize: -36
AntiAlias: 1
FitToEm: 1
WinInfo: 0 50 17
BeginPrivate: 10
BlueValues 21 [0 0 480 480 660 660]
OtherBlues 11 [-225 -225]
StdHW 5 [110]
StdVW 5 [170]
StemSnapH 8 [95 110]
StemSnapV 9 [160 170]
BlueScale 8 0.039625
BlueShift 1 7
BlueFuzz 1 1
ForceBold 4 true
EndPrivate
Grid
-1000 146.667 m 0
 2000 146.667 l 0
EndSplineSet
TeXData: 1 0 0 524288 262144 174762 503316 1048576 174762 783286 444596 497025 792723 393216 433062 380633 303038 157286 324010 404750 52429 2506097 1059062 262144
BeginChars: 1114113 738

StartChar: Y
Encoding: 89 89 0
Width: 910
VWidth: 0
Flags: W
HStem: 0 21G<370 540> 640 20G<20 250 660 890>
VStem: 370 170<0 310>
LayerCount: 2
Fore
SplineSet
20 660 m 1
 230 660 l 1
 455 435 l 1
 680 660 l 1
 890 660 l 1
 540 310 l 1
 540 0 l 1
 370 0 l 1
 370 310 l 1
 20 660 l 1
EndSplineSet
Validated: 1
EndChar

StartChar: E
Encoding: 69 69 1
Width: 880
VWidth: 0
Flags: W
HStem: 0 110<240 810> 305 110<240 760> 550 110<240 810>
VStem: 70 170<110 305 415 550>
LayerCount: 2
Fore
SplineSet
70 0 m 1
 70 660 l 1
 810 660 l 1
 810 550 l 1
 240 550 l 1
 240 415 l 1
 760 415 l 1
 760 305 l 1
 240 305 l 1
 240 110 l 1
 810 110 l 1
 810 0 l 1
 70 0 l 1
EndSplineSet
Validated: 1
EndChar

StartChar: N
Encoding: 78 78 2
Width: 930
VWidth: 0
Flags: W
HStem: 0 21G<70 240 651.702 860> 640 20G<70 278.298 690 860>
VStem: 70 170<0 470> 690 170<190 660>
LayerCount: 2
Fore
SplineSet
70 0 m 1
 70 660 l 1
 260 660 l 1
 690 190 l 1
 690 660 l 1
 860 660 l 1
 860 0 l 1
 670 0 l 1
 240 470 l 1
 240 0 l 1
 70 0 l 1
EndSplineSet
Validated: 1
EndChar

StartChar: W
Encoding: 87 87 3
Width: 1260
VWidth: 0
Flags: W
HStem: 0 21G<233.333 466.667 793.333 1026.67> 640 20G<20 201.667 1058.33 1240>
LayerCount: 2
Fore
SplineSet
20 660 m 1
 195 660 l 1
 360 165 l 1
 515 630 l 1
 745 630 l 1
 900 165 l 1
 1065 660 l 1
 1240 660 l 1
 1020 0 l 1
 800 0 l 1
 630 510 l 1
 460 0 l 1
 240 0 l 1
 20 660 l 1
EndSplineSet
Validated: 1
EndChar

StartChar: D
Encoding: 68 68 4
Width: 930
VWidth: 0
Flags: W
HStem: 0 110<240 575.437> 555 105<240 575.437>
VStem: 70 170<110 555> 690 170<214.575 450.097>
LayerCount: 2
Fore
SplineSet
70 0 m 1
 70 660 l 1
 500 660 l 2
 680 660 860 580 860 355 c 2
 860 310 l 2
 860 85 680 0 500 0 c 2
 70 0 l 1
240 110 m 1
 450 110 l 2
 570 110 690 150 690 310 c 2
 690 355 l 2
 690 515 570 555 450 555 c 2
 240 555 l 1
 240 110 l 1
EndSplineSet
Validated: 1
EndChar

StartChar: O
Encoding: 79 79 5
Width: 930
VWidth: 0
Flags: W
HStem: 0 110<243.291 686.709> 550 110<243.291 686.709>
VStem: 70 170<116.892 543.108> 690 170<116.892 543.108>
LayerCount: 2
Fore
SplineSet
70 135 m 2
 70 525 l 2
 70 660 190 660 310 660 c 2
 620 660 l 2
 740 660 860 660 860 525 c 2
 860 135 l 2
 860 0 740 0 620 0 c 2
 310 0 l 2
 190 0 70 0 70 135 c 2
240 145 m 2
 240 110 270 110 300 110 c 2
 630 110 l 2
 660 110 690 110 690 145 c 2
 690 515 l 2
 690 550 660 550 630 550 c 2
 300 550 l 2
 270 550 240 550 240 515 c 2
 240 145 l 2
EndSplineSet
Validated: 1
EndChar

StartChar: B
Encoding: 66 66 6
Width: 930
VWidth: 0
Flags: W
HStem: 0 110<240 686.709> 305 110<240 677.917> 550 110<240 676.709>
VStem: 70 170<110 305 415 550> 680 170<419.233 543.108> 690 170<116.892 299.365>
LayerCount: 2
Fore
SplineSet
70 0 m 1xf4
 70 660 l 1
 610 660 l 2
 730 660 850 660 850 525 c 2
 850 465 l 2xf8
 850 405 810 375 770 365 c 1
 810 355 860 335 860 265 c 2
 860 135 l 2
 860 0 740 0 620 0 c 2
 70 0 l 1xf4
240 110 m 1
 630 110 l 2
 660 110 690 110 690 145 c 2
 690 270 l 2xf4
 690 305 660 305 630 305 c 2
 240 305 l 1
 240 110 l 1
240 415 m 1
 620 415 l 2
 650 415 680 415 680 450 c 2
 680 515 l 2xf8
 680 550 650 550 620 550 c 2
 240 550 l 1
 240 415 l 1
EndSplineSet
Validated: 1
EndChar

StartChar: S
Encoding: 83 83 7
Width: 930
VWidth: 0
Flags: W
HStem: 0 110<70 686.709> 305 110<243.291 686.709> 550 110<243.291 810>
VStem: 70 170<421.892 543.108> 690 170<116.892 298.108>
LayerCount: 2
Fore
SplineSet
70 0 m 1
 70 110 l 1
 630 110 l 2
 660 110 690 110 690 145 c 2
 690 270 l 2
 690 305 660 305 630 305 c 2
 310 305 l 2
 190 305 70 305 70 440 c 2
 70 525 l 2
 70 660 190 660 310 660 c 2
 810 660 l 1
 810 550 l 1
 300 550 l 2
 270 550 240 550 240 515 c 2
 240 450 l 2
 240 415 270 415 300 415 c 2
 620 415 l 2
 740 415 860 415 860 280 c 2
 860 135 l 2
 860 0 740 0 620 0 c 2
 70 0 l 1
EndSplineSet
Validated: 1
EndChar

StartChar: V
Encoding: 86 86 8
Width: 930
VWidth: 0
Flags: W
HStem: 0 21G<340 590> 640 20G<20 210 720 910>
LayerCount: 2
Fore
SplineSet
20 660 m 1
 200 660 l 1
 465 130 l 1
 730 660 l 1
 910 660 l 1
 580 0 l 1
 350 0 l 1
 20 660 l 1
EndSplineSet
Validated: 1
EndChar

StartChar: F
Encoding: 70 70 9
Width: 860
VWidth: 0
Flags: W
HStem: 0 21G<70 240> 305 110<240 750> 550 110<240 810>
VStem: 70 170<0 305 415 550>
LayerCount: 2
Fore
SplineSet
70 0 m 1
 70 660 l 1
 810 660 l 1
 810 550 l 1
 240 550 l 1
 240 415 l 1
 750 415 l 1
 750 305 l 1
 240 305 l 1
 240 0 l 1
 70 0 l 1
EndSplineSet
Validated: 1
EndChar

StartChar: G
Encoding: 71 71 10
Width: 930
VWidth: 0
Flags: W
HStem: 0 110<243.291 686.709> 305 110<540 690> 550 110<243.291 810>
VStem: 70 170<116.892 543.108> 690 170<116.892 305>
LayerCount: 2
Fore
SplineSet
70 135 m 2
 70 525 l 2
 70 660 190 660 310 660 c 2
 810 660 l 1
 810 550 l 1
 300 550 l 2
 270 550 240 550 240 515 c 2
 240 145 l 2
 240 110 270 110 300 110 c 2
 630 110 l 2
 660 110 690 110 690 145 c 2
 690 305 l 1
 540 305 l 1
 540 415 l 1
 860 415 l 1
 860 135 l 2
 860 0 740 0 620 0 c 2
 310 0 l 2
 190 0 70 0 70 135 c 2
EndSplineSet
Validated: 1
EndChar

StartChar: U
Encoding: 85 85 11
Width: 930
VWidth: 0
Flags: W
HStem: 0 110<243.291 686.709> 640 20G<70 240 690 860>
VStem: 70 170<116.892 660> 690 170<116.892 660>
LayerCount: 2
Fore
SplineSet
70 135 m 2
 70 660 l 1
 240 660 l 1
 240 145 l 2
 240 110 270 110 300 110 c 2
 630 110 l 2
 660 110 690 110 690 145 c 2
 690 660 l 1
 860 660 l 1
 860 135 l 2
 860 0 740 0 620 0 c 2
 310 0 l 2
 190 0 70 0 70 135 c 2
EndSplineSet
Validated: 1
EndChar

StartChar: X
Encoding: 88 88 12
Width: 910
VWidth: 0
Flags: W
HStem: 0 21G<20 250 660 890> 640 20G<20 250 660 890>
LayerCount: 2
Fore
SplineSet
20 0 m 1
 350 330 l 1
 20 660 l 1
 230 660 l 1
 455 435 l 1
 680 660 l 1
 890 660 l 1
 560 330 l 1
 890 0 l 1
 680 0 l 1
 455 225 l 1
 230 0 l 1
 20 0 l 1
EndSplineSet
Validated: 1
EndChar

StartChar: T
Encoding: 84 84 13
Width: 910
VWidth: 0
Flags: W
HStem: 0 21G<370 540> 550 110<30 370 540 880>
VStem: 370 170<0 550>
LayerCount: 2
Fore
SplineSet
30 550 m 1
 30 660 l 1
 880 660 l 1
 880 550 l 1
 540 550 l 1
 540 0 l 1
 370 0 l 1
 370 550 l 1
 30 550 l 1
EndSplineSet
Validated: 1
EndChar

StartChar: J
Encoding: 74 74 14
Width: 930
VWidth: 0
Flags: MW
HStem: 0 110<243.291 686.709> 235 20G<70 240> 640 20G<690 860>
VStem: 70 170<116.892 255> 690 170<116.892 660>
LayerCount: 2
Fore
SplineSet
70 135 m 2
 70 255 l 1
 240 255 l 1
 240 145 l 2
 240 110 270 110 300 110 c 2
 630 110 l 2
 660 110 690 110 690 145 c 2
 690 660 l 1
 860 660 l 1
 860 135 l 2
 860 0 740 0 620 0 c 2
 310 0 l 2
 190 0 70 0 70 135 c 2
EndSplineSet
Validated: 1
EndChar

StartChar: R
Encoding: 82 82 15
Width: 930
VWidth: 0
Flags: W
HStem: 0 21G<70 240 670 900> 270 110<240 420 630 686.945> 550 110<240 686.709>
VStem: 70 170<0 270 380 550> 690 170<386.892 543.108>
LayerCount: 2
Fore
SplineSet
900 0 m 1
 690 0 l 1
 420 270 l 1
 240 270 l 1
 240 0 l 1
 70 0 l 1
 70 660 l 1
 620 660 l 2
 740 660 860 660 860 525 c 2
 860 405 l 2
 860 270 740 270 630 270 c 9
 900 0 l 1
240 380 m 1
 630 380 l 2
 660 380 690 380 690 415 c 2
 690 515 l 2
 690 550 660 550 630 550 c 2
 240 550 l 1
 240 380 l 1
EndSplineSet
Validated: 1
EndChar

StartChar: K
Encoding: 75 75 16
Width: 860
VWidth: 0
Flags: W
HStem: 0 21G<70 240 610 840> 640 20G<70 240 570 800>
VStem: 70 170<0 100 310 660>
LayerCount: 2
Fore
SplineSet
70 0 m 1
 70 660 l 1
 240 660 l 1
 240 310 l 1
 590 660 l 1
 800 660 l 1
 490 350 l 1
 840 0 l 1
 630 0 l 1
 385 245 l 1
 240 100 l 1
 240 0 l 1
 70 0 l 1
EndSplineSet
Validated: 1
EndChar

StartChar: H
Encoding: 72 72 17
Width: 930
VWidth: 0
Flags: W
HStem: 0 21G<70 240 690 860> 305 110<240 690> 640 20G<70 240 690 860>
VStem: 70 170<0 305 415 660> 690 170<0 305 415 660>
LayerCount: 2
Fore
SplineSet
70 0 m 1
 70 660 l 1
 240 660 l 1
 240 415 l 1
 690 415 l 1
 690 660 l 1
 860 660 l 1
 860 0 l 1
 690 0 l 1
 690 305 l 1
 240 305 l 1
 240 0 l 1
 70 0 l 1
EndSplineSet
Validated: 1
EndChar

StartChar: I
Encoding: 73 73 18
Width: 310
VWidth: 0
Flags: W
HStem: 0 21G<70 240> 640 20G<70 240>
VStem: 70 170<0 660>
LayerCount: 2
Fore
SplineSet
70 0 m 1
 70 660 l 1
 240 660 l 1
 240 0 l 1
 70 0 l 1
EndSplineSet
Validated: 1
EndChar

StartChar: C
Encoding: 67 67 19
Width: 880
VWidth: 0
Flags: W
HStem: 0 110<243.291 810> 550 110<243.291 810>
VStem: 70 170<116.892 543.108>
LayerCount: 2
Fore
SplineSet
70 135 m 2
 70 525 l 2
 70 660 190 660 310 660 c 2
 810 660 l 1
 810 550 l 1
 300 550 l 2
 270 550 240 550 240 515 c 2
 240 145 l 2
 240 110 270 110 300 110 c 2
 810 110 l 1
 810 0 l 1
 310 0 l 2
 190 0 70 0 70 135 c 2
EndSplineSet
Validated: 1
EndChar

StartChar: P
Encoding: 80 80 20
Width: 930
VWidth: 0
Flags: W
HStem: 0 21G<70 240> 250 110<240 686.709> 550 110<240 686.709>
VStem: 70 170<0 250 360 550> 690 170<366.892 543.108>
LayerCount: 2
Fore
SplineSet
70 0 m 1
 70 660 l 1
 620 660 l 2
 740 660 860 660 860 525 c 2
 860 385 l 2
 860 250 740 250 620 250 c 2
 240 250 l 1
 240 0 l 1
 70 0 l 1
240 360 m 1
 630 360 l 2
 660 360 690 360 690 395 c 2
 690 515 l 2
 690 550 660 550 630 550 c 2
 240 550 l 1
 240 360 l 1
EndSplineSet
Validated: 1
EndChar

StartChar: Q
Encoding: 81 81 21
Width: 930
VWidth: 0
Flags: MW
HStem: -150 21G<550 770> 0 110<243.291 420 620 686.709> 550 110<243.291 686.709>
VStem: 70 170<116.892 543.108> 690 170<116.892 543.108>
LayerCount: 2
Fore
SplineSet
70 135 m 2
 70 525 l 2
 70 660 190 660 310 660 c 2
 620 660 l 2
 740 660 860 660 860 525 c 2
 860 135 l 2
 860 0 740 0 620 0 c 1
 770 -150 l 1
 570 -150 l 1
 420 0 l 1
 310 0 l 2
 190 0 70 0 70 135 c 2
240 145 m 2
 240 110 270 110 300 110 c 2
 630 110 l 2
 660 110 690 110 690 145 c 2
 690 515 l 2
 690 550 660 550 630 550 c 2
 300 550 l 2
 270 550 240 550 240 515 c 2
 240 145 l 2
EndSplineSet
Validated: 1
EndChar

StartChar: Z
Encoding: 90 90 22
Width: 880
VWidth: 0
Flags: MW
HStem: 0 110<285 830> 550 110<70 575>
VStem: 50 760
LayerCount: 2
Fore
SplineSet
50 0 m 1
 50 110 l 1
 575 550 l 1
 70 550 l 1
 70 660 l 1
 810 660 l 1
 810 550 l 1
 285 110 l 1
 830 110 l 1
 830 0 l 1
 50 0 l 1
EndSplineSet
Validated: 1
EndChar

StartChar: M
Encoding: 77 77 23
Width: 1090
VWidth: 0
Flags: W
HStem: 0 21G<70 240 455 635 850 1020> 640 20G<70 305 785 1020>
VStem: 70 170<0 450> 850 170<0 450>
LayerCount: 2
Fore
SplineSet
70 0 m 1
 70 660 l 1
 295 660 l 1
 545 160 l 1
 795 660 l 1
 1020 660 l 1
 1020 0 l 1
 850 0 l 1
 850 450 l 1
 625 0 l 1
 465 0 l 1
 240 450 l 1
 240 0 l 1
 70 0 l 1
EndSplineSet
Validated: 1
EndChar

StartChar: L
Encoding: 76 76 24
Width: 840
VWidth: 0
Flags: MW
HStem: 0 110<240 810> 640 20G<70 240>
VStem: 70 170<110 660> 790 20G
LayerCount: 2
Fore
SplineSet
70 0 m 1
 70 660 l 1
 240 660 l 1
 240 110 l 1
 810 110 l 1
 810 0 l 1
 70 0 l 1
EndSplineSet
Validated: 1
EndChar

StartChar: A
Encoding: 65 65 25
Width: 930
VWidth: 0
Flags: W
HStem: 0 21G<20 210 720 910> 190 110<350 580> 640 20G<340 590>
LayerCount: 2
Fore
SplineSet
20 0 m 1
 350 660 l 1
 580 660 l 1
 910 0 l 1
 730 0 l 1
 635 190 l 1
 295 190 l 1
 200 0 l 1
 20 0 l 1
350 300 m 1
 580 300 l 1
 465 530 l 1
 350 300 l 1
EndSplineSet
Validated: 1
EndChar

StartChar: three
Encoding: 51 51 26
Width: 910
VWidth: 0
Flags: W
HStem: 0 110<90 676.709> 305 110<180 677.917> 550 110<90 676.709>
VStem: 680 170<116.892 300.173 419.233 543.108>
LayerCount: 2
Fore
SplineSet
90 0 m 1
 90 110 l 1
 620 110 l 2
 650 110 680 110 680 145 c 2
 680 270 l 2
 680 305 650 305 620 305 c 2
 180 305 l 1
 180 415 l 1
 620 415 l 2
 650 415 680 415 680 450 c 2
 680 515 l 2
 680 550 650 550 620 550 c 2
 90 550 l 1
 90 660 l 1
 610 660 l 2
 730 660 850 660 850 525 c 2
 850 465 l 2
 850 405 810 375 770 365 c 1
 810 355 850 325 850 265 c 2
 850 135 l 2
 850 0 730 0 610 0 c 2
 90 0 l 1
EndSplineSet
Validated: 1
EndChar

StartChar: one
Encoding: 49 49 27
Width: 910
VWidth: 0
Flags: MW
HStem: 0 21G<500 670> 550 110<280 500>
VStem: 280 21G 500 170<0 550>
LayerCount: 2
Fore
SplineSet
670 660 m 1
 670 0 l 1
 500 0 l 1
 500 550 l 1
 280 550 l 1
 280 660 l 1
 670 660 l 1
EndSplineSet
Validated: 1
EndChar

StartChar: six
Encoding: 54 54 28
Width: 910
VWidth: 0
Flags: W
HStem: 0 110<233.291 676.709> 305 110<232.083 676.709> 550 110<253.873 800>
VStem: 60 170<116.892 301.395 415 526.027> 680 170<116.892 298.108>
LayerCount: 2
Fore
SplineSet
60 135 m 2
 60 480 l 2
 60 660 215 660 380 660 c 2
 800 660 l 1
 800 550 l 1
 370 550 l 2
 300 550 230 550 230 470 c 2
 230 415 l 1
 610 415 l 2
 730 415 850 415 850 280 c 2
 850 135 l 2
 850 0 730 0 610 0 c 2
 300 0 l 2
 180 0 60 0 60 135 c 2
230 145 m 2
 230 110 260 110 290 110 c 2
 620 110 l 2
 650 110 680 110 680 145 c 2
 680 270 l 2
 680 305 650 305 620 305 c 2
 290 305 l 2
 260 305 230 305 230 270 c 2
 230 145 l 2
EndSplineSet
Validated: 1
EndChar

StartChar: nine
Encoding: 57 57 29
Width: 910
VWidth: 0
Flags: W
HStem: 0 110<100 654.501> 305 110<233.291 677.917> 550 110<233.291 676.709>
VStem: 60 170<421.892 543.108> 680 170<133.973 305 418.605 543.108>
LayerCount: 2
Fore
SplineSet
60 440 m 2
 60 525 l 2
 60 660 180 660 300 660 c 2
 610 660 l 2
 730 660 850 660 850 525 c 2
 850 180 l 2
 850 0 690 0 530 0 c 2
 100 0 l 1
 100 110 l 1
 540 110 l 2
 610 110 680 110 680 190 c 2
 680 305 l 1
 300 305 l 2
 180 305 60 305 60 440 c 2
230 450 m 2
 230 415 260 415 290 415 c 2
 620 415 l 2
 650 415 680 415 680 450 c 2
 680 515 l 2
 680 550 650 550 620 550 c 2
 290 550 l 2
 260 550 230 550 230 515 c 2
 230 450 l 2
EndSplineSet
Validated: 1
EndChar

StartChar: eight
Encoding: 56 56 30
Width: 910
VWidth: 0
Flags: W
HStem: 0 110<233.291 676.709> 305 110<232.083 677.917> 550 110<233.291 676.709>
VStem: 60 170<116.892 300.173 419.233 543.108> 680 170<116.892 300.173 419.233 543.108>
LayerCount: 2
Fore
SplineSet
60 135 m 2
 60 265 l 2
 60 325 100 355 140 365 c 1
 100 375 60 405 60 465 c 2
 60 525 l 2
 60 660 180 660 300 660 c 2
 610 660 l 2
 730 660 850 660 850 525 c 2
 850 465 l 2
 850 405 810 375 770 365 c 1
 810 355 850 325 850 265 c 2
 850 135 l 2
 850 0 730 0 610 0 c 2
 300 0 l 2
 180 0 60 0 60 135 c 2
230 145 m 2
 230 110 260 110 290 110 c 2
 620 110 l 2
 650 110 680 110 680 145 c 2
 680 270 l 2
 680 305 650 305 620 305 c 2
 290 305 l 2
 260 305 230 305 230 270 c 2
 230 145 l 2
230 450 m 2
 230 415 260 415 290 415 c 2
 620 415 l 2
 650 415 680 415 680 450 c 2
 680 515 l 2
 680 550 650 550 620 550 c 2
 290 550 l 2
 260 550 230 550 230 515 c 2
 230 450 l 2
EndSplineSet
Validated: 1
EndChar

StartChar: zero
Encoding: 48 48 31
Width: 910
VWidth: 0
Flags: W
HStem: 0 110<233.291 676.709> 550 110<233.291 676.709>
VStem: 60 170<116.892 543.108> 680 170<116.892 543.108>
LayerCount: 2
Fore
SplineSet
60 135 m 2
 60 525 l 2
 60 660 180 660 300 660 c 2
 610 660 l 2
 730 660 850 660 850 525 c 2
 850 135 l 2
 850 0 730 0 610 0 c 2
 300 0 l 2
 180 0 60 0 60 135 c 2
230 145 m 2
 230 110 260 110 290 110 c 2
 620 110 l 2
 650 110 680 110 680 145 c 2
 680 515 l 2
 680 550 650 550 620 550 c 2
 290 550 l 2
 260 550 230 550 230 515 c 2
 230 145 l 2
EndSplineSet
Validated: 1
EndChar

StartChar: five
Encoding: 53 53 32
Width: 910
VWidth: 0
Flags: W
HStem: 0 110<60 676.709> 305 110<230 676.709> 550 110<230 800>
VStem: 60 170<415 550> 680 170<116.892 298.108>
LayerCount: 2
Fore
SplineSet
60 0 m 1
 60 110 l 1
 620 110 l 2
 650 110 680 110 680 145 c 2
 680 270 l 2
 680 305 650 305 620 305 c 2
 60 305 l 1
 60 660 l 1
 800 660 l 1
 800 550 l 1
 230 550 l 1
 230 415 l 1
 610 415 l 2
 730 415 850 415 850 280 c 2
 850 135 l 2
 850 0 730 0 610 0 c 2
 60 0 l 1
EndSplineSet
Validated: 1
EndChar

StartChar: two
Encoding: 50 50 33
Width: 910
VWidth: 0
Flags: W
HStem: 0 110<230 850> 305 110<233.291 676.709> 550 110<110 676.709>
VStem: 60 170<110 298.108> 680 170<421.892 543.108>
LayerCount: 2
Fore
SplineSet
60 0 m 1
 60 280 l 2
 60 415 180 415 300 415 c 2
 620 415 l 2
 650 415 680 415 680 450 c 2
 680 515 l 2
 680 550 650 550 620 550 c 2
 110 550 l 1
 110 660 l 1
 610 660 l 2
 730 660 850 660 850 525 c 2
 850 440 l 2
 850 305 730 305 610 305 c 2
 290 305 l 2
 260 305 230 305 230 270 c 2
 230 110 l 1
 850 110 l 1
 850 0 l 1
 60 0 l 1
EndSplineSet
Validated: 1
EndChar

StartChar: four
Encoding: 52 52 34
Width: 910
VWidth: 0
Flags: MW
HStem: 0 21G<680 850> 130 110<284 680> 640 20G<574.286 850>
VStem: 60 21G 680 170<0 130 240 548>
LayerCount: 2
Fore
SplineSet
60 130 m 1
 60 240 l 1
 600 660 l 1
 850 660 l 1
 850 0 l 1
 680 0 l 1
 680 130 l 1
 60 130 l 1
284 240 m 1
 680 240 l 1
 680 548 l 1
 284 240 l 1
EndSplineSet
Validated: 1
EndChar

StartChar: seven
Encoding: 55 55 35
Width: 910
VWidth: 0
Flags: MW
HStem: 0 21G<230 445.273> 550 110<60 650>
VStem: 60 790
LayerCount: 2
Fore
SplineSet
60 550 m 1
 60 660 l 1
 850 660 l 1
 850 550 l 1
 430 0 l 1
 230 0 l 1
 650 550 l 1
 60 550 l 1
EndSplineSet
Validated: 1
EndChar

StartChar: r
Encoding: 114 114 36
Width: 480
VWidth: 0
Flags: W
HStem: 0 21G<60 220> 385 95<222.695 420>
VStem: 60 160<0 380.426>
LayerCount: 2
Fore
SplineSet
60 0 m 1
 60 365 l 2
 60 480 160 480 260 480 c 2
 420 480 l 1
 420 385 l 1
 270 385 l 2
 245 385 220 385 220 355 c 2
 220 0 l 1
 60 0 l 1
EndSplineSet
Validated: 1
EndChar

StartChar: c
Encoding: 99 99 37
Width: 700
VWidth: 0
Flags: W
HStem: 0 95<222.695 640> 385 95<222.695 640>
VStem: 60 160<99.5743 380.426>
LayerCount: 2
Fore
SplineSet
60 115 m 2
 60 365 l 2
 60 480 160 480 260 480 c 2
 640 480 l 1
 640 385 l 1
 270 385 l 2
 245 385 220 385 220 355 c 2
 220 125 l 2
 220 95 245 95 270 95 c 2
 640 95 l 1
 640 0 l 1
 260 0 l 2
 160 0 60 0 60 115 c 2
EndSplineSet
Validated: 1
EndChar

StartChar: i
Encoding: 105 105 38
Width: 280
VWidth: 0
Flags: W
HStem: 0 21G<60 220> 460 20G<60 220> 565 95<60 220>
VStem: 60 160<0 480 565 660>
LayerCount: 2
Fore
SplineSet
60 0 m 1
 60 480 l 1
 220 480 l 1
 220 0 l 1
 60 0 l 1
60 565 m 1
 60 660 l 1
 220 660 l 1
 220 565 l 1
 60 565 l 1
EndSplineSet
Validated: 1
EndChar

StartChar: x
Encoding: 120 120 39
Width: 710
VWidth: 0
Flags: W
HStem: 0 21G<20 230 480 690> 460 20G<20 230 480 690>
LayerCount: 2
Fore
SplineSet
690 0 m 1
 500 0 l 1
 355 145 l 1
 210 0 l 1
 20 0 l 1
 260 240 l 1
 20 480 l 1
 210 480 l 1
 355 335 l 1
 500 480 l 1
 690 480 l 1
 450 240 l 1
 690 0 l 1
EndSplineSet
Validated: 1
EndChar

StartChar: d
Encoding: 100 100 40
Width: 740
VWidth: 0
Flags: W
HStem: 0 95<222.695 520> 385 95<222.695 520> 640 20G<520 680>
VStem: 60 160<99.5743 380.426> 520 160<95 385 480 660>
LayerCount: 2
Fore
SplineSet
60 115 m 2
 60 365 l 2
 60 480 160 480 260 480 c 2
 520 480 l 1
 520 660 l 1
 680 660 l 1
 680 0 l 1
 260 0 l 2
 160 0 60 0 60 115 c 2
220 125 m 2
 220 95 245 95 270 95 c 2
 520 95 l 1
 520 385 l 1
 270 385 l 2
 245 385 220 385 220 355 c 2
 220 125 l 2
EndSplineSet
Validated: 1
EndChar

StartChar: l
Encoding: 108 108 41
Width: 280
VWidth: 0
Flags: W
HStem: 0 21G<60 220> 640 20G<60 220>
VStem: 60 160<0 660>
LayerCount: 2
Fore
SplineSet
60 0 m 1
 60 660 l 1
 220 660 l 1
 220 0 l 1
 60 0 l 1
EndSplineSet
Validated: 1
EndChar

StartChar: z
Encoding: 122 122 42
Width: 720
VWidth: 0
Flags: MW
HStem: 0 95<260 670> 385 95<70 440>
VStem: 50 600
LayerCount: 2
Fore
SplineSet
50 0 m 1
 50 105 l 1
 440 385 l 1
 70 385 l 1
 70 480 l 1
 650 480 l 1
 650 375 l 1
 260 95 l 1
 670 95 l 1
 670 0 l 1
 50 0 l 1
EndSplineSet
Validated: 1
EndChar

StartChar: k
Encoding: 107 107 43
Width: 670
VWidth: 0
Flags: W
HStem: 0 21G<60 220 440 650> 460 20G<420 630> 640 20G<60 220>
VStem: 60 160<0 70 260 660>
LayerCount: 2
Fore
SplineSet
60 0 m 1
 60 660 l 1
 220 660 l 1
 220 260 l 1
 440 480 l 1
 630 480 l 1
 400 250 l 1
 650 0 l 1
 460 0 l 1
 305 155 l 1
 220 70 l 1
 220 0 l 1
 60 0 l 1
EndSplineSet
Validated: 1
EndChar

StartChar: q
Encoding: 113 113 44
Width: 740
VWidth: 0
Flags: W
HStem: -225 21G<520 680> 0 95<222.695 520> 385 95<222.695 520>
VStem: 60 160<99.5743 380.426> 520 160<-225 0 95 385>
LayerCount: 2
Fore
SplineSet
60 115 m 2
 60 365 l 2
 60 480 160 480 260 480 c 2
 680 480 l 1
 680 -225 l 1
 520 -225 l 1
 520 0 l 1
 260 0 l 2
 160 0 60 0 60 115 c 2
220 125 m 2
 220 95 245 95 270 95 c 2
 520 95 l 1
 520 385 l 1
 270 385 l 2
 245 385 220 385 220 355 c 2
 220 125 l 2
EndSplineSet
Validated: 1
EndChar

StartChar: v
Encoding: 118 118 45
Width: 720
VWidth: 0
Flags: W
HStem: 0 21G<250 470> 460 20G<20 200 520 700>
LayerCount: 2
Fore
SplineSet
20 480 m 1
 190 480 l 1
 360 140 l 1
 530 480 l 1
 700 480 l 1
 460 0 l 1
 260 0 l 1
 20 480 l 1
EndSplineSet
Validated: 1
EndChar

StartChar: e
Encoding: 101 101 46
Width: 740
VWidth: 0
Flags: W
HStem: 0 95<222.695 660> 205 95<220 520> 385 95<222.695 517.305>
VStem: 60 160<99.5743 205 300 380.426> 520 160<300 380.426>
LayerCount: 2
Fore
SplineSet
60 115 m 2
 60 365 l 2
 60 480 160 480 260 480 c 2
 480 480 l 2
 580 480 680 480 680 365 c 2
 680 205 l 1
 220 205 l 1
 220 125 l 2
 220 95 245 95 270 95 c 2
 660 95 l 1
 660 0 l 1
 260 0 l 2
 160 0 60 0 60 115 c 2
220 300 m 1
 520 300 l 1
 520 355 l 2
 520 385 495 385 470 385 c 2
 270 385 l 2
 245 385 220 385 220 355 c 2
 220 300 l 1
EndSplineSet
Validated: 1
EndChar

StartChar: w
Encoding: 119 119 47
Width: 960
VWidth: 0
Flags: W
HStem: 0 21G<173.333 381.667 578.333 786.667> 460 20G<20 186.667 773.333 940>
LayerCount: 2
Fore
SplineSet
20 480 m 1
 180 480 l 1
 290 150 l 1
 390 450 l 1
 570 450 l 1
 670 150 l 1
 780 480 l 1
 940 480 l 1
 780 0 l 1
 585 0 l 1
 480 315 l 1
 375 0 l 1
 180 0 l 1
 20 480 l 1
EndSplineSet
Validated: 1
EndChar

StartChar: n
Encoding: 110 110 48
Width: 740
VWidth: 0
Flags: W
HStem: 0 21G<60 220 520 680> 385 95<220 517.305>
VStem: 60 160<0 385> 520 160<0 380.426>
LayerCount: 2
Fore
SplineSet
60 0 m 1
 60 480 l 1
 480 480 l 2
 580 480 680 480 680 365 c 2
 680 0 l 1
 520 0 l 1
 520 355 l 2
 520 385 495 385 470 385 c 2
 220 385 l 1
 220 0 l 1
 60 0 l 1
EndSplineSet
Validated: 1
EndChar

StartChar: s
Encoding: 115 115 49
Width: 740
VWidth: 0
Flags: MW
HStem: 0 95<60 517.305> 205 95<222.695 517.305> 385 95<222.695 640>
VStem: 60 160<304.574 380.426> 520 160<99.5743 200.426>
LayerCount: 2
Fore
SplineSet
60 0 m 1
 60 95 l 1
 470 95 l 2
 495 95 520 95 520 125 c 2
 520 175 l 2
 520 205 495 205 470 205 c 2
 260 205 l 2
 160 205 60 205 60 320 c 2
 60 365 l 2
 60 480 160 480 260 480 c 2
 640 480 l 1
 640 385 l 1
 270 385 l 2
 245 385 220 385 220 355 c 2
 220 330 l 2
 220 300 245 300 270 300 c 2
 480 300 l 2
 580 300 680 300 680 185 c 2
 680 115 l 2
 680 0 580 0 480 0 c 2
 60 0 l 1
EndSplineSet
Validated: 1
EndChar

StartChar: g
Encoding: 103 103 50
Width: 740
VWidth: 0
Flags: W
HStem: -225 95<80 517.305> 0 95<222.695 520> 385 95<222.695 520>
VStem: 60 160<99.5743 380.426> 520 160<-128.324 0 95 385>
LayerCount: 2
Fore
SplineSet
60 115 m 2
 60 365 l 2
 60 480 160 480 260 480 c 2
 680 480 l 1
 680 -125 l 2
 680 -225 580 -225 480 -225 c 2
 80 -225 l 1
 80 -130 l 1
 470 -130 l 2
 495 -130 520 -130 520 -105 c 2
 520 0 l 1
 260 0 l 2
 160 0 60 0 60 115 c 2
220 125 m 2
 220 95 245 95 270 95 c 2
 520 95 l 1
 520 385 l 1
 270 385 l 2
 245 385 220 385 220 355 c 2
 220 125 l 2
EndSplineSet
Validated: 1
EndChar

StartChar: m
Encoding: 109 109 51
Width: 960
VWidth: 0
Flags: MW
HStem: 0 21G<60 220 400 560 740 900> 385 95<220 399.135 560 737.305>
VStem: 60 340 60 160<0 385> 400 340 400 160<0 382.989> 740 160<0 380.426>
CounterMasks: 1 16
LayerCount: 2
Fore
SplineSet
60 0 m 1x20
 60 480 l 1
 700 480 l 2
 800 480 900 480 900 365 c 2
 900 0 l 1
 740 0 l 1
 740 355 l 2
 740 385 715 385 690 385 c 2
 560 385 l 1
 560 0 l 1
 400 0 l 1x08
 400 355 l 2
 400 385 375 385 350 385 c 2
 220 385 l 1
 220 0 l 1
 60 0 l 1x20
EndSplineSet
Validated: 1
EndChar

StartChar: p
Encoding: 112 112 52
Width: 740
VWidth: 0
Flags: W
HStem: -225 21G<60 220> 0 95<220 517.305> 385 95<220 517.305>
VStem: 60 160<-225 0 95 385> 520 160<99.5743 380.426>
LayerCount: 2
Fore
SplineSet
60 -225 m 1
 60 480 l 1
 480 480 l 2
 580 480 680 480 680 365 c 2
 680 115 l 2
 680 0 580 0 480 0 c 2
 220 0 l 1
 220 -225 l 1
 60 -225 l 1
220 95 m 1
 470 95 l 2
 495 95 520 95 520 125 c 2
 520 355 l 2
 520 385 495 385 470 385 c 2
 220 385 l 1
 220 95 l 1
EndSplineSet
Validated: 1
EndChar

StartChar: j
Encoding: 106 106 53
Width: 280
VWidth: 0
Flags: MW
HStem: -225 95<-50 8.3374> 460 20G<60 220> 565 95<60 220>
VStem: -50 21G 60 160<-81.875 480 565 660>
LayerCount: 2
Fore
SplineSet
-50 -130 m 1
 40 -115 60 -60 60 0 c 2
 60 480 l 1
 220 480 l 1
 220 0 l 2
 220 -205 40 -220 -50 -225 c 1
 -50 -130 l 1
60 565 m 1
 60 660 l 1
 220 660 l 1
 220 565 l 1
 60 565 l 1
EndSplineSet
Validated: 1
EndChar

StartChar: a
Encoding: 97 97 54
Width: 740
VWidth: 0
Flags: W
HStem: 0 95<222.695 520> 205 95<222.695 520> 385 95<100 517.305>
VStem: 60 160<99.5743 200.426> 520 160<95 205 300 380.426>
LayerCount: 2
Fore
SplineSet
60 115 m 2
 60 185 l 2
 60 300 160 300 260 300 c 2
 520 300 l 1
 520 355 l 2
 520 385 495 385 470 385 c 2
 100 385 l 1
 100 480 l 1
 480 480 l 2
 580 480 680 480 680 365 c 2
 680 0 l 1
 260 0 l 2
 160 0 60 0 60 115 c 2
220 125 m 2
 220 95 245 95 270 95 c 2
 520 95 l 1
 520 205 l 1
 270 205 l 2
 245 205 220 205 220 175 c 2
 220 125 l 2
EndSplineSet
Validated: 1
EndChar

StartChar: u
Encoding: 117 117 55
Width: 740
VWidth: 0
Flags: W
HStem: 0 95<222.695 517.305> 460 20G<60 220 520 680>
VStem: 60 160<99.5743 480> 520 160<99.5743 480>
LayerCount: 2
Fore
SplineSet
60 115 m 2
 60 480 l 1
 220 480 l 1
 220 125 l 2
 220 95 245 95 270 95 c 2
 470 95 l 2
 495 95 520 95 520 125 c 2
 520 480 l 1
 680 480 l 1
 680 115 l 2
 680 0 580 0 480 0 c 2
 260 0 l 2
 160 0 60 0 60 115 c 2
EndSplineSet
Validated: 1
EndChar

StartChar: t
Encoding: 116 116 56
Width: 480
VWidth: 0
Flags: W
HStem: 0 95<222.695 420> 385 95<220 420> 640 20G<60 220>
VStem: 60 160<99.5743 385 480 660>
LayerCount: 2
Fore
SplineSet
60 115 m 2
 60 660 l 1
 220 660 l 1
 220 480 l 1
 420 480 l 1
 420 385 l 1
 220 385 l 1
 220 125 l 2
 220 95 245 95 270 95 c 2
 420 95 l 1
 420 0 l 1
 260 0 l 2
 160 0 60 0 60 115 c 2
EndSplineSet
Validated: 1
EndChar

StartChar: b
Encoding: 98 98 57
Width: 740
VWidth: 0
Flags: W
HStem: 0 95<220 517.305> 385 95<220 517.305> 640 20G<60 220>
VStem: 60 160<95 385 480 660> 520 160<99.5743 380.426>
LayerCount: 2
Fore
SplineSet
60 0 m 1
 60 660 l 1
 220 660 l 1
 220 480 l 1
 480 480 l 2
 580 480 680 480 680 365 c 2
 680 115 l 2
 680 0 580 0 480 0 c 2
 60 0 l 1
220 95 m 1
 470 95 l 2
 495 95 520 95 520 125 c 2
 520 355 l 2
 520 385 495 385 470 385 c 2
 220 385 l 1
 220 95 l 1
EndSplineSet
Validated: 1
EndChar

StartChar: y
Encoding: 121 121 58
Width: 720
VWidth: 0
Flags: MW
HStem: -225 95<80 234.844> 460 20G<20 200 520 700>
VStem: 80 21G
LayerCount: 2
Fore
SplineSet
20 480 m 1
 190 480 l 1
 360 140 l 1
 530 480 l 1
 700 480 l 1
 400 -120 l 2
 370 -180 345 -225 250 -225 c 2
 80 -225 l 1
 80 -130 l 1
 180 -130 l 2
 225 -130 230 -120 245 -90 c 2
 275 -30 l 1
 20 480 l 1
EndSplineSet
Validated: 1
EndChar

StartChar: o
Encoding: 111 111 59
Width: 740
VWidth: 0
Flags: W
HStem: 0 95<222.695 517.305> 385 95<222.695 517.305>
VStem: 60 160<99.5743 380.426> 520 160<99.5743 380.426>
LayerCount: 2
Fore
SplineSet
60 115 m 2
 60 365 l 2
 60 480 160 480 260 480 c 2
 480 480 l 2
 580 480 680 480 680 365 c 2
 680 115 l 2
 680 0 580 0 480 0 c 2
 260 0 l 2
 160 0 60 0 60 115 c 2
220 125 m 2
 220 95 245 95 270 95 c 2
 470 95 l 2
 495 95 520 95 520 125 c 2
 520 355 l 2
 520 385 495 385 470 385 c 2
 270 385 l 2
 245 385 220 385 220 355 c 2
 220 125 l 2
EndSplineSet
Validated: 1
EndChar

StartChar: f
Encoding: 102 102 60
Width: 480
VWidth: 0
Flags: W
HStem: 0 21G<60 220> 385 95<220 420> 565 95<222.695 420>
VStem: 60 160<0 385 480 560.426>
LayerCount: 2
Fore
SplineSet
60 0 m 1
 60 545 l 2
 60 660 160 660 260 660 c 2
 420 660 l 1
 420 565 l 1
 270 565 l 2
 245 565 220 565 220 535 c 2
 220 480 l 1
 420 480 l 1
 420 385 l 1
 220 385 l 1
 220 0 l 1
 60 0 l 1
EndSplineSet
Validated: 1
EndChar

StartChar: h
Encoding: 104 104 61
Width: 740
VWidth: 0
Flags: W
HStem: 0 21G<60 220 520 680> 385 95<220 517.305> 640 20G<60 220>
VStem: 60 160<0 385 480 660> 520 160<0 380.426>
LayerCount: 2
Fore
SplineSet
60 0 m 1
 60 660 l 1
 220 660 l 1
 220 480 l 1
 480 480 l 2
 580 480 680 480 680 365 c 2
 680 0 l 1
 520 0 l 1
 520 355 l 2
 520 385 495 385 470 385 c 2
 220 385 l 1
 220 0 l 1
 60 0 l 1
EndSplineSet
Validated: 1
EndChar

StartChar: ampersand
Encoding: 38 38 62
Width: 930
VWidth: 0
Flags: MW
HStem: 0 110<243.291 520> 550 110<323.291 576.709>
VStem: 70 170<116.892 298.263> 150 170<479.406 544.752> 580 170<485 543.108> 690 170<130 300>
LayerCount: 2
Fore
SplineSet
320 515 m 1xd4
 320 500 330 490 340 480 c 2
 690 130 l 1
 690 300 l 1
 860 300 l 1
 860 135 l 2
 860 0 740 0 620 0 c 2
 310 0 l 2
 190 0 70 0 70 135 c 2
 70 290 l 2xe4
 70 380 155 410 220 410 c 1
 165 465 150 480 150 525 c 3
 150 660 270 660 390 660 c 2
 510 660 l 2
 630 660 750 660 750 525 c 2
 750 485 l 1
 580 485 l 1
 580 515 l 2
 580 550 550 550 520 550 c 2
 380 550 l 2
 350 550 320 550 320 515 c 1xd4
240 145 m 2
 240 110 270 110 300 110 c 2
 520 110 l 1
 325 305 l 1
 300 305 l 2
 270 305 240 305 240 270 c 2
 240 145 l 2
EndSplineSet
Validated: 1
EndChar

StartChar: underscore
Encoding: 95 95 63
Width: 680
VWidth: 0
Flags: W
HStem: -225 95<20 660>
LayerCount: 2
Fore
SplineSet
20 -130 m 1
 660 -130 l 1
 660 -225 l 1
 20 -225 l 1
 20 -130 l 1
EndSplineSet
Validated: 1
EndChar

StartChar: dollar
Encoding: 36 36 65
Width: 950
VWidth: 0
Flags: MW
HStem: 0 105<70 405 545 706.709> 305 110<243.291 405 545 706.709> 555 105<243.291 405 545 830>
VStem: 70 335 70 170<421.892 548.763> 405 140<-85 0 105 305 415 555 660 745> 545 335 710 170<111.237 298.108>
CounterMasks: 1 0d
LayerCount: 2
Fore
SplineSet
70 0 m 1
 70 105 l 1
 405 105 l 1
 405 305 l 1
 310 305 l 2
 190 305 70 305 70 440 c 2
 70 525 l 2
 70 660 190 660 310 660 c 2
 405 660 l 1
 405 745 l 1x10
 545 745 l 1x02
 545 660 l 1
 830 660 l 1
 830 555 l 1
 545 555 l 1
 545 415 l 1
 640 415 l 2
 760 415 880 415 880 280 c 2
 880 135 l 2
 880 0 760 0 640 0 c 2
 545 0 l 1
 545 -85 l 1
 405 -85 l 1
 405 0 l 1
 70 0 l 1
240 450 m 2
 240 415 270 415 300 415 c 2
 405 415 l 1
 405 555 l 1
 300 555 l 2
 270 555 240 555 240 520 c 2
 240 450 l 2
545 105 m 1
 650 105 l 2
 680 105 710 105 710 140 c 2
 710 270 l 2
 710 305 680 305 650 305 c 2
 545 305 l 1
 545 105 l 1
EndSplineSet
Validated: 1
EndChar

StartChar: slash
Encoding: 47 47 66
Width: 650
VWidth: 0
Flags: MW
HStem: -100 21G<60 220> 640 20G<430 590>
LayerCount: 2
Fore
SplineSet
60 -100 m 1
 440 660 l 1
 590 660 l 1
 210 -100 l 1
 60 -100 l 1
EndSplineSet
Validated: 1
EndChar

StartChar: period
Encoding: 46 46 67
Width: 320
VWidth: 0
Flags: W
HStem: 0 140<75 245>
VStem: 75 170<0 140>
LayerCount: 2
Fore
SplineSet
75 0 m 1
 75 140 l 1
 245 140 l 1
 245 0 l 1
 75 0 l 1
EndSplineSet
Validated: 1
EndChar

StartChar: exclam
Encoding: 33 33 68
Width: 320
VWidth: 0
Flags: MW
HStem: 0 140<75 245> 220 21G<75 245> 640 20G<75 245>
VStem: 75 170<0 140 220 660>
LayerCount: 2
Fore
SplineSet
75 0 m 1
 75 140 l 1
 245 140 l 1
 245 0 l 1
 75 0 l 1
75 220 m 1
 75 660 l 1
 245 660 l 1
 245 220 l 1
 75 220 l 1
EndSplineSet
Validated: 1
EndChar

StartChar: bracketleft
Encoding: 91 91 70
Width: 475
VWidth: 0
Flags: W
HStem: -225 95<215 415> 565 95<215 415>
VStem: 75 140<-130 565>
LayerCount: 2
Fore
SplineSet
75 -225 m 1
 75 660 l 1
 415 660 l 1
 415 565 l 1
 215 565 l 1
 215 -130 l 1
 415 -130 l 1
 415 -225 l 1
 75 -225 l 1
EndSplineSet
Validated: 1
EndChar

StartChar: greater
Encoding: 62 62 71
Width: 750
VWidth: 0
Flags: MW
HStem: -20 120<60 60> 380 120<60 60>
VStem: 60 630
LayerCount: 2
Fore
SplineSet
60 -20 m 1
 60 100 l 1
 480 240 l 1
 60 380 l 1
 60 500 l 1
 690 290 l 1
 690 190 l 1
 60 -20 l 1
EndSplineSet
Validated: 1
EndChar

StartChar: bar
Encoding: 124 124 72
Width: 340
VWidth: 0
Flags: W
HStem: -225 21G<100 240> 640 20G<100 240>
VStem: 100 140<-225 660>
LayerCount: 2
Fore
SplineSet
100 -225 m 1
 100 660 l 1
 240 660 l 1
 240 -225 l 1
 100 -225 l 1
EndSplineSet
Validated: 1
EndChar

StartChar: grave
Encoding: 96 96 73
Width: 500
VWidth: 0
Flags: MW
HStem: 550 160
VStem: 80 270
LayerCount: 2
Fore
SplineSet
80 710 m 1
 250 710 l 1
 350 550 l 1
 240 550 l 1
 80 710 l 1
EndSplineSet
Validated: 1
EndChar

StartChar: braceright
Encoding: 125 125 74
Width: 645
VWidth: 0
Flags: W
HStem: -225 95<60 255.591> 565 95<60 255.591>
VStem: 260 140<-125.426 80 370 560.426>
LayerCount: 2
Fore
SplineSet
60 -130 m 1
 210 -130 l 2
 235 -130 260 -130 260 -100 c 2
 260 135 l 1
 440 225 l 1
 260 315 l 1
 260 535 l 2
 260 565 235 565 210 565 c 2
 60 565 l 1
 60 660 l 1
 200 660 l 2
 300 660 400 660 400 545 c 2
 400 370 l 1
 570 285 l 1
 570 165 l 1
 400 80 l 1
 400 -110 l 2
 400 -225 300 -225 200 -225 c 2
 60 -225 l 1
 60 -130 l 1
EndSplineSet
Validated: 1
EndChar

StartChar: asterisk
Encoding: 42 42 75
Width: 654
VWidth: 0
Flags: MW
HStem: 188 21G<211.368 253.545 401.289 443.632> 640 20G<262 392>
VStem: 262 130<509 660>
LayerCount: 2
Fore
SplineSet
60 439 m 1
 100 562 l 1
 262 509 l 1
 262 660 l 1
 392 660 l 1
 392 509 l 1
 555 562 l 1
 594 439 l 1
 433 386 l 1
 521 264 l 1
 416 188 l 1
 327 309 l 1
 239 188 l 1
 134 264 l 1
 222 386 l 1
 60 439 l 1
EndSplineSet
Validated: 1
EndChar

StartChar: plus
Encoding: 43 43 76
Width: 720
VWidth: 0
Flags: W
HStem: 0 21G<275 445> 180 120<60 275 445 660> 460 20G<275 445>
VStem: 275 170<0 180 300 480>
LayerCount: 2
Fore
SplineSet
60 180 m 1
 60 300 l 1
 275 300 l 1
 275 480 l 1
 445 480 l 1
 445 300 l 1
 660 300 l 1
 660 180 l 1
 445 180 l 1
 445 0 l 1
 275 0 l 1
 275 180 l 1
 60 180 l 1
EndSplineSet
Validated: 1
EndChar

StartChar: equal
Encoding: 61 61 77
Width: 720
VWidth: 0
Flags: MW
HStem: 60 120<60 660> 300 120<60 660>
VStem: 60 600
LayerCount: 2
Fore
SplineSet
60 60 m 1
 60 180 l 1
 660 180 l 1
 660 60 l 1
 60 60 l 1
60 300 m 1
 60 420 l 1
 660 420 l 1
 660 300 l 1
 60 300 l 1
EndSplineSet
Validated: 1
EndChar

StartChar: at
Encoding: 64 64 78
Width: 1290
VWidth: 0
Flags: MW
HStem: -165 70<214.901 1175> -95 95 0 95<497.695 795 955 1085> 385 95<497.695 795> 480 95 575 70<214.901 1075.1>
VStem: 75 130<-83.4874 563.487> 335 160<99.5743 380.426> 795 160<95 385> 1085 130<95 563.487>
LayerCount: 2
Fore
SplineSet
75 -50 m 2
 75 530 l 2
 75 645 175 645 275 645 c 2
 1015 645 l 2
 1115 645 1215 645 1215 530 c 2
 1215 0 l 1
 535 0 l 2x40
 435 0 335 0 335 115 c 2
 335 365 l 2
 335 480 435 480 535 480 c 2x08
 955 480 l 1
 955 95 l 1
 1085 95 l 1
 1085 520 l 2
 1085 575 1035 575 985 575 c 2
 305 575 l 2x08
 255 575 205 575 205 520 c 2
 205 -40 l 2
 205 -95 255 -95 305 -95 c 2x40
 1175 -95 l 1
 1175 -165 l 1
 275 -165 l 2
 175 -165 75 -165 75 -50 c 2
495 125 m 2
 495 95 520 95 545 95 c 2
 795 95 l 1
 795 385 l 1
 545 385 l 2
 520 385 495 385 495 355 c 2
 495 125 l 2
EndSplineSet
Validated: 1
EndChar

StartChar: parenright
Encoding: 41 41 79
Width: 420
VWidth: 0
Flags: W
HStem: -225 21G<60 235> 640 20G<60 235>
VStem: 200 145<55.2585 383.375>
LayerCount: 2
Fore
SplineSet
60 -225 m 1
 150 -105 200 60 200 220 c 0
 200 380 150 540 60 660 c 1
 185 660 l 1
 285 540 345 380 345 220 c 0
 345 60 285 -105 185 -225 c 1
 60 -225 l 1
EndSplineSet
Validated: 1
EndChar

StartChar: comma
Encoding: 44 44 80
Width: 350
VWidth: 0
Flags: MW
HStem: -150 270
LayerCount: 2
Fore
SplineSet
45 -150 m 1
 105 120 l 1
 275 120 l 1
 155 -150 l 1
 45 -150 l 1
EndSplineSet
Validated: 1
EndChar

StartChar: quotesingle
Encoding: 39 39 81
Width: 290
VWidth: 0
Flags: MW
HStem: 410 250
VStem: 75 140<410 660>
LayerCount: 2
Fore
SplineSet
75 410 m 1
 75 660 l 1
 215 660 l 1
 215 410 l 1
 75 410 l 1
EndSplineSet
Validated: 1
EndChar

StartChar: bracketright
Encoding: 93 93 82
Width: 475
VWidth: 0
Flags: W
HStem: -225 95<60 260> 565 95<60 260>
VStem: 260 140<-130 565>
LayerCount: 2
Fore
SplineSet
60 -130 m 1
 260 -130 l 1
 260 565 l 1
 60 565 l 1
 60 660 l 1
 400 660 l 1
 400 -225 l 1
 60 -225 l 1
 60 -130 l 1
EndSplineSet
Validated: 1
EndChar

StartChar: less
Encoding: 60 60 83
Width: 750
VWidth: 0
Flags: MW
HStem: -20 120<690 690> 380 120<690 690>
VStem: 60 630
LayerCount: 2
Fore
SplineSet
60 190 m 1
 60 290 l 1
 690 500 l 1
 690 380 l 1
 270 240 l 1
 690 100 l 1
 690 -20 l 1
 60 190 l 1
EndSplineSet
Validated: 1
EndChar

StartChar: braceleft
Encoding: 123 123 84
Width: 645
VWidth: 0
Flags: W
HStem: -225 95<389.409 585> 565 95<389.409 585>
VStem: 245 140<-125.426 80 370 560.426>
LayerCount: 2
Fore
SplineSet
75 165 m 1
 75 285 l 1
 245 370 l 1
 245 545 l 2
 245 660 345 660 445 660 c 2
 585 660 l 1
 585 565 l 1
 435 565 l 2
 410 565 385 565 385 535 c 2
 385 315 l 1
 205 225 l 1
 385 135 l 1
 385 -100 l 2
 385 -130 410 -130 435 -130 c 2
 585 -130 l 1
 585 -225 l 1
 445 -225 l 2
 345 -225 245 -225 245 -110 c 2
 245 80 l 1
 75 165 l 1
EndSplineSet
Validated: 1
EndChar

StartChar: parenleft
Encoding: 40 40 85
Width: 420
VWidth: 0
Flags: W
HStem: -225 21G<185 360> 640 20G<185 360>
VStem: 75 145<55.2585 383.375>
LayerCount: 2
Fore
SplineSet
75 220 m 0
 75 380 135 540 235 660 c 1
 360 660 l 1
 270 540 220 380 220 220 c 0
 220 60 270 -105 360 -225 c 1
 235 -225 l 1
 135 -105 75 60 75 220 c 0
EndSplineSet
Validated: 1
EndChar

StartChar: backslash
Encoding: 92 92 87
Width: 650
VWidth: 0
Flags: MW
HStem: -100 21G<430 590> 640 20G<60 220>
LayerCount: 2
Fore
SplineSet
60 660 m 1
 210 660 l 1
 590 -100 l 1
 440 -100 l 1
 60 660 l 1
EndSplineSet
Validated: 1
EndChar

StartChar: asciicircum
Encoding: 94 94 88
Width: 620
VWidth: 0
Flags: MW
HStem: 300 21G<60 210 410 560> 640 20G<230 390>
LayerCount: 2
Fore
SplineSet
60 300 m 1
 240 660 l 1
 380 660 l 1
 560 300 l 1
 420 300 l 1
 310 520 l 1
 200 300 l 1
 60 300 l 1
EndSplineSet
Validated: 1
EndChar

StartChar: numbersign
Encoding: 35 35 89
Width: 930
VWidth: 0
Flags: W
HStem: 0 21G<80 236.667 480 636.667> 150 105<60 130 315 530 715 830> 405 105<100 215 400 615 800 870> 640 20G<293.333 450 693.333 850>
LayerCount: 2
Fore
SplineSet
300 660 m 1
 450 660 l 1
 400 510 l 1
 650 510 l 1
 700 660 l 1
 850 660 l 1
 800 510 l 1
 870 510 l 1
 870 405 l 1
 765 405 l 1
 715 255 l 1
 830 255 l 1
 830 150 l 1
 680 150 l 1
 630 0 l 1
 480 0 l 1
 530 150 l 1
 280 150 l 1
 230 0 l 1
 80 0 l 1
 130 150 l 1
 60 150 l 1
 60 255 l 1
 165 255 l 1
 215 405 l 1
 100 405 l 1
 100 510 l 1
 250 510 l 1
 300 660 l 1
365 405 m 1
 315 255 l 1
 565 255 l 1
 615 405 l 1
 365 405 l 1
EndSplineSet
Validated: 1
EndChar

StartChar: question
Encoding: 63 63 91
Width: 910
VWidth: 0
Flags: MW
HStem: 0 140<285 455> 220 21G<285 455> 305 110<458.291 661.709> 550 110<75 661.709>
VStem: 285 170<0 140 220 298.108> 665 170<421.892 543.108>
LayerCount: 2
Fore
SplineSet
75 550 m 1
 75 660 l 1
 595 660 l 2
 715 660 835 660 835 525 c 2
 835 440 l 2
 835 305 715 305 595 305 c 2
 515 305 l 2
 485 305 455 305 455 270 c 2
 455 220 l 1
 285 220 l 1
 285 280 l 2
 285 415 405 415 525 415 c 2
 605 415 l 2
 635 415 665 415 665 450 c 2
 665 515 l 2
 665 550 635 550 605 550 c 2
 75 550 l 1
285 0 m 1
 285 140 l 1
 455 140 l 1
 455 0 l 1
 285 0 l 1
EndSplineSet
Validated: 1
EndChar

StartChar: asciitilde
Encoding: 126 126 92
Width: 750
VWidth: 0
Flags: MW
HStem: 210 21G<60 222.5 492.5 542.5> 400 20G<207.5 257.5 527.5 690>
VStem: 60 150<210 210> 540 150<420 420>
LayerCount: 2
Fore
SplineSet
210 210 m 1
 60 210 l 1
 125 360 170 420 245 420 c 0
 270 420 281 415 310 400 c 2
 455 325 l 2
 461 322 465 322 470 322 c 0
 491 322 515 370 540 420 c 1
 690 420 l 1
 625 270 580 210 505 210 c 0
 480 210 469 215 440 230 c 2
 295 305 l 2
 289 308 285 308 280 308 c 0
 259 308 235 260 210 210 c 1
EndSplineSet
Validated: 1
EndChar

StartChar: hyphen
Encoding: 45 45 93
Width: 540
VWidth: 0
Flags: MW
HStem: 180 120<60 480>
VStem: 60 420
LayerCount: 2
Fore
SplineSet
60 180 m 1
 60 300 l 1
 480 300 l 1
 480 180 l 1
 60 180 l 1
EndSplineSet
Validated: 1
EndChar

StartChar: Thorn
Encoding: 222 222 94
Width: 930
VWidth: 0
Flags: W
HStem: 0 21G<70 240> 125 110<240 686.709> 425 110<240 686.709> 640 20G<70 240>
VStem: 70 170<0 125 235 425 535 660> 690 170<241.892 418.108>
LayerCount: 2
Fore
SplineSet
70 0 m 1
 70 660 l 1
 240 660 l 1
 240 535 l 1
 620 535 l 2
 740 535 860 535 860 400 c 2
 860 260 l 2
 860 125 740 125 620 125 c 2
 240 125 l 1
 240 0 l 1
 70 0 l 1
240 235 m 1
 630 235 l 2
 660 235 690 235 690 270 c 2
 690 390 l 2
 690 425 660 425 630 425 c 2
 240 425 l 1
 240 235 l 1
EndSplineSet
Validated: 1
EndChar

StartChar: dieresis
Encoding: 168 168 95
Width: 500
VWidth: 0
Flags: W
HStem: 575 110<60 195 305 440>
VStem: 60 135<575 685> 305 135<575 685>
LayerCount: 2
Fore
SplineSet
60 575 m 1
 60 685 l 1
 195 685 l 1
 195 575 l 1
 60 575 l 1
305 575 m 1
 305 685 l 1
 440 685 l 1
 440 575 l 1
 305 575 l 1
EndSplineSet
Validated: 1
EndChar

StartChar: sterling
Encoding: 163 163 96
Width: 930
VWidth: 0
Flags: MW
HStem: 0 110<70 170 340 860> 310 95<70 170 340 590> 550 110<343.291 686.709>
VStem: 170 170<110 310 405 543.108> 690 170<465 543.108>
LayerCount: 2
Fore
SplineSet
70 0 m 1
 70 110 l 1
 170 110 l 1
 170 310 l 1
 70 310 l 1
 70 405 l 1
 170 405 l 1
 170 525 l 2
 170 660 290 660 410 660 c 2
 620 660 l 2
 740 660 860 660 860 525 c 2
 860 465 l 1
 690 465 l 1
 690 515 l 2
 690 550 660 550 630 550 c 2
 400 550 l 2
 370 550 340 550 340 515 c 2
 340 405 l 1
 590 405 l 1
 590 310 l 1
 340 310 l 1
 340 110 l 1
 860 110 l 1
 860 0 l 1
 70 0 l 1
EndSplineSet
Validated: 1
EndChar

StartChar: cent
Encoding: 162 162 97
Width: 700
VWidth: 0
Flags: W
HStem: 0 95<222.695 340 460 640> 385 95<222.695 340 460 640>
VStem: 60 160<99.5743 380.426> 340 120<-75 0 95 385 480 555>
LayerCount: 2
Fore
SplineSet
60 115 m 2
 60 365 l 2
 60 480 160 480 260 480 c 2
 340 480 l 1
 340 555 l 1
 460 555 l 1
 460 480 l 1
 640 480 l 1
 640 385 l 1
 460 385 l 1
 460 95 l 1
 640 95 l 1
 640 0 l 1
 460 0 l 1
 460 -75 l 1
 340 -75 l 1
 340 0 l 1
 260 0 l 2
 160 0 60 0 60 115 c 2
220 125 m 2
 220 95 245 95 270 95 c 2
 340 95 l 1
 340 385 l 1
 270 385 l 2
 245 385 220 385 220 355 c 2
 220 125 l 2
EndSplineSet
Validated: 1
EndChar

StartChar: acute
Encoding: 180 180 98
Width: 500
VWidth: 0
Flags: MW
HStem: 550 160
VStem: 150 270
LayerCount: 2
Fore
SplineSet
150 550 m 1
 250 710 l 1
 420 710 l 1
 260 550 l 1
 150 550 l 1
EndSplineSet
Validated: 1
EndChar

StartChar: yen
Encoding: 165 165 100
Width: 910
VWidth: 0
Flags: MW
HStem: 0 21G<370 540> 75 95<170 370 540 740> 170 60 230 95<170 355 555 740> 640 20G<20 250 660 890>
VStem: 370 170<0 75 170 230>
LayerCount: 2
Fore
SplineSet
20 660 m 1
 230 660 l 1
 455 435 l 1
 680 660 l 1
 890 660 l 1
 555 325 l 1
 740 325 l 1
 740 230 l 1
 540 230 l 1x20
 540 170 l 1x20
 740 170 l 1
 740 75 l 1
 540 75 l 1
 540 0 l 1
 370 0 l 1
 370 75 l 1
 170 75 l 1
 170 170 l 1
 370 170 l 1x20
 370 230 l 1x20
 170 230 l 1
 170 325 l 1
 355 325 l 1
 20 660 l 1
EndSplineSet
Validated: 1
EndChar

StartChar: oe
Encoding: 339 339 101
Width: 1200
VWidth: 0
Flags: W
HStem: 0 95<222.695 519.135 680.865 1120> 205 95<680 980> 385 95<222.695 519.135 680.865 977.305>
VStem: 60 160<99.5743 380.426> 520 160<97.0114 205 300 382.989> 980 160<300 380.426>
CounterMasks: 1 1c
LayerCount: 2
Fore
SplineSet
60 115 m 2
 60 365 l 2
 60 480 160 480 260 480 c 2
 940 480 l 2
 1040 480 1140 480 1140 365 c 2
 1140 205 l 1
 680 205 l 1
 680 125 l 2
 680 95 705 95 730 95 c 2
 1120 95 l 1
 1120 0 l 1
 260 0 l 2
 160 0 60 0 60 115 c 2
220 125 m 2
 220 95 245 95 270 95 c 2
 470 95 l 2
 495 95 520 95 520 125 c 2
 520 355 l 2
 520 385 495 385 470 385 c 2
 270 385 l 2
 245 385 220 385 220 355 c 2
 220 125 l 2
680 300 m 1
 980 300 l 1
 980 355 l 2
 980 385 955 385 930 385 c 2
 730 385 l 2
 705 385 680 385 680 355 c 2
 680 300 l 1
EndSplineSet
Validated: 1
EndChar

StartChar: OE
Encoding: 338 338 102
Width: 1400
VWidth: 0
Flags: W
HStem: 0 110<243.291 637.917 810 1330> 305 110<810 1280> 550 110<243.291 637.917 810 1330>
VStem: 70 170<116.892 543.108> 640 170<113.605 305 415 546.395>
LayerCount: 2
Fore
SplineSet
70 135 m 2
 70 525 l 2
 70 660 190 660 310 660 c 2
 1330 660 l 1
 1330 550 l 1
 810 550 l 1
 810 415 l 1
 1280 415 l 1
 1280 305 l 1
 810 305 l 1
 810 110 l 1
 1330 110 l 1
 1330 0 l 1
 310 0 l 2
 190 0 70 0 70 135 c 2
240 145 m 2
 240 110 270 110 300 110 c 2
 580 110 l 2
 610 110 640 110 640 145 c 2
 640 515 l 2
 640 550 610 550 580 550 c 2
 300 550 l 2
 270 550 240 550 240 515 c 2
 240 145 l 2
EndSplineSet
Validated: 1
EndChar

StartChar: copyright
Encoding: 169 169 103
Width: 1030
VWidth: 0
Flags: W
HStem: 0 70<199.901 830.099> 160 70<440.156 720> 430 70<440.156 720> 590 70<199.901 830.099>
VStem: 60 130<81.5126 578.487> 310 130<234.158 425.842> 840 130<81.5126 578.487>
LayerCount: 2
Fore
SplineSet
60 115 m 2
 60 545 l 2
 60 660 160 660 260 660 c 2
 770 660 l 2
 870 660 970 660 970 545 c 2
 970 115 l 2
 970 0 870 0 770 0 c 2
 260 0 l 2
 160 0 60 0 60 115 c 2
190 125 m 2
 190 70 240 70 290 70 c 2
 740 70 l 2
 790 70 840 70 840 125 c 2
 840 535 l 2
 840 590 790 590 740 590 c 2
 290 590 l 2
 240 590 190 590 190 535 c 2
 190 125 l 2
310 250 m 2
 310 410 l 2
 310 500 390 500 470 500 c 2
 720 500 l 1
 720 430 l 1
 480 430 l 2
 460 430 440 430 440 405 c 2
 440 255 l 2
 440 230 460 230 480 230 c 2
 720 230 l 1
 720 160 l 1
 470 160 l 2
 390 160 310 160 310 250 c 2
EndSplineSet
Validated: 1
EndChar

StartChar: registered
Encoding: 174 174 104
Width: 1060
VWidth: 0
Flags: MW
HStem: 0 70<199.901 860.099> 160 21G<310 440 600 760> 295 70<440 485> 430 70<440 619.844> 590 70<199.901 860.099>
VStem: 60 130<81.5126 578.487> 310 130<160 295 365 430> 620 130<367.503 425.842> 870 130<81.5126 578.487>
LayerCount: 2
Fore
SplineSet
60 115 m 2
 60 545 l 2
 60 660 160 660 260 660 c 2
 800 660 l 2
 900 660 1000 660 1000 545 c 2
 1000 115 l 2
 1000 0 900 0 800 0 c 2
 260 0 l 2
 160 0 60 0 60 115 c 2
190 125 m 2
 190 70 240 70 290 70 c 2
 770 70 l 2
 820 70 870 70 870 125 c 2
 870 535 l 2
 870 590 820 590 770 590 c 2
 290 590 l 2
 240 590 190 590 190 535 c 2
 190 125 l 2
310 160 m 1
 310 500 l 1
 590 500 l 2
 670 500 750 500 750 410 c 2
 750 385 l 2
 750 305 685 295 625 295 c 1
 760 160 l 1
 620 160 l 1
 485 295 l 1
 440 295 l 1
 440 160 l 1
 310 160 l 1
440 365 m 1
 580 365 l 2
 600 365 620 365 620 390 c 2
 620 405 l 2
 620 430 600 430 580 430 c 2
 440 430 l 1
 440 365 l 1
EndSplineSet
Validated: 1
EndChar

StartChar: uni00B9
Encoding: 185 185 106
Width: 350
VWidth: 0
Flags: W
HStem: 580 80<60 160>
VStem: 160 130<320 580>
LayerCount: 2
Fore
SplineSet
60 580 m 1
 60 660 l 1
 290 660 l 1
 290 320 l 1
 160 320 l 1
 160 580 l 1
 60 580 l 1
EndSplineSet
Validated: 1
EndChar

StartChar: exclamdown
Encoding: 161 161 107
Width: 320
VWidth: 0
Flags: MW
HStem: -225 21G<75 245> 195 20G<75 245> 295 140<75 245>
VStem: 75 170<-225 215 295 435>
LayerCount: 2
Fore
SplineSet
75 215 m 1
 245 215 l 1
 245 -225 l 1
 75 -225 l 1
 75 215 l 1
75 295 m 1
 75 435 l 1
 245 435 l 1
 245 295 l 1
 75 295 l 1
EndSplineSet
Validated: 1
EndChar

StartChar: cedilla
Encoding: 184 184 108
Width: 500
VWidth: 0
Flags: MW
HStem: -225 70<150 243.528> -20 20G<165 315>
VStem: 150 21G 250 120<-146.31 -74.9165>
LayerCount: 2
Fore
SplineSet
150 -155 m 1
 180 -155 l 2
 220 -155 250 -145 250 -115 c 0
 250 -95 240 -75 165 0 c 1
 280 0 l 1
 350 -70 370 -95 370 -135 c 0
 370 -215 290 -225 210 -225 c 2
 150 -225 l 1
 150 -155 l 1
EndSplineSet
Validated: 1
EndChar

StartChar: multiply
Encoding: 215 215 109
Width: 600
VWidth: 0
Flags: W
HStem: 0 21G<140 180 420 460> 460 20G<140 180 420 460>
LayerCount: 2
Fore
SplineSet
60 100 m 1
 200 240 l 1
 60 380 l 1
 160 480 l 1
 300 340 l 1
 440 480 l 1
 540 380 l 1
 400 240 l 1
 540 100 l 1
 440 0 l 1
 300 140 l 1
 160 0 l 1
 60 100 l 1
EndSplineSet
Validated: 1
EndChar

StartChar: questiondown
Encoding: 191 191 110
Width: 910
VWidth: 0
Flags: MW
HStem: -225 110<248.291 835> 20 110<248.291 451.709> 195 20G<455 625> 295 140<455 625>
VStem: 75 170<-108.108 13.1084> 455 170<136.892 215 295 435>
LayerCount: 2
Fore
SplineSet
835 -115 m 1
 835 -225 l 1
 315 -225 l 2
 195 -225 75 -225 75 -90 c 2
 75 -5 l 2
 75 130 195 130 315 130 c 2
 395 130 l 2
 425 130 455 130 455 165 c 2
 455 215 l 1
 625 215 l 1
 625 155 l 2
 625 20 505 20 385 20 c 2
 305 20 l 2
 275 20 245 20 245 -15 c 2
 245 -80 l 2
 245 -115 275 -115 305 -115 c 2
 835 -115 l 1
625 435 m 1
 625 295 l 1
 455 295 l 1
 455 435 l 1
 625 435 l 1
EndSplineSet
Validated: 1
EndChar

StartChar: brokenbar
Encoding: 166 166 111
Width: 340
VWidth: 0
Flags: MW
HStem: -225 21G<100 240> 120 20G<100 240> 300 21G<100 240> 640 20G<100 240>
VStem: 100 140<-225 140 300 660>
LayerCount: 2
Fore
SplineSet
100 140 m 1
 240 140 l 1
 240 -225 l 1
 100 -225 l 1
 100 140 l 1
100 300 m 1
 100 660 l 1
 240 660 l 1
 240 300 l 1
 100 300 l 1
EndSplineSet
Validated: 1
EndChar

StartChar: ae
Encoding: 230 230 112
Width: 1200
VWidth: 0
Flags: W
HStem: 0 95<222.695 520 680.865 1120> 205 95<222.695 520 680 980> 385 95<100 519.135 680.865 977.305>
VStem: 60 160<99.5743 200.426> 520 160<97.0114 205 300 382.989> 980 160<300 380.426>
CounterMasks: 1 1c
LayerCount: 2
Fore
SplineSet
60 115 m 2
 60 185 l 2
 60 300 160 300 260 300 c 2
 520 300 l 1
 520 355 l 2
 520 385 495 385 470 385 c 2
 100 385 l 1
 100 480 l 1
 940 480 l 2
 1040 480 1140 480 1140 365 c 2
 1140 205 l 1
 680 205 l 1
 680 125 l 2
 680 95 705 95 730 95 c 2
 1120 95 l 1
 1120 0 l 1
 260 0 l 2
 160 0 60 0 60 115 c 2
220 125 m 2
 220 95 245 95 270 95 c 2
 520 95 l 1
 520 205 l 1
 270 205 l 2
 245 205 220 205 220 175 c 2
 220 125 l 2
680 300 m 1
 980 300 l 1
 980 355 l 2
 980 385 955 385 930 385 c 2
 730 385 l 2
 705 385 680 385 680 355 c 2
 680 300 l 1
EndSplineSet
Validated: 1
EndChar

StartChar: AE
Encoding: 198 198 113
Width: 1350
VWidth: 0
Flags: W
HStem: 0 110<760 1280> 190 110<340 590> 305 110<760 1230> 550 110<465 590 760 1280>
VStem: 590 170<110 190 300 305 415 550>
LayerCount: 2
Fore
SplineSet
20 0 m 1
 350 660 l 1
 1280 660 l 1
 1280 550 l 1
 760 550 l 1
 760 415 l 1
 1230 415 l 1
 1230 305 l 1
 760 305 l 1
 760 110 l 1
 1280 110 l 1
 1280 0 l 1
 590 0 l 1
 590 190 l 1
 285 190 l 1
 190 0 l 1
 20 0 l 1
340 300 m 1
 590 300 l 1
 590 550 l 1
 465 550 l 1
 340 300 l 1
EndSplineSet
Validated: 1
EndChar

StartChar: section
Encoding: 167 167 114
Width: 880
VWidth: 0
Flags: W
HStem: -175 110<243.291 636.709> 65 110<243.291 637.917> 310 110<242.083 636.709> 550 110<243.291 636.709>
VStem: 70 170<-58.1084 0 181.892 305.173 424.233 543.108> 640 170<-58.1084 61.3951 178.605 303.108 485 543.108>
LayerCount: 2
Fore
SplineSet
70 0 m 1
 240 0 l 1
 240 -30 l 2
 240 -65 270 -65 300 -65 c 2
 580 -65 l 2
 610 -65 640 -65 640 -30 c 2
 640 30 l 2
 640 65 610 65 580 65 c 2
 310 65 l 2
 190 65 70 65 70 200 c 2
 70 270 l 2
 70 330 110 360 150 370 c 1
 110 380 70 410 70 470 c 2
 70 525 l 2
 70 660 190 660 310 660 c 2
 570 660 l 2
 690 660 810 660 810 525 c 2
 810 485 l 1
 640 485 l 1
 640 515 l 2
 640 550 610 550 580 550 c 2
 300 550 l 2
 270 550 240 550 240 515 c 2
 240 455 l 2
 240 420 270 420 300 420 c 2
 570 420 l 2
 690 420 810 420 810 285 c 2
 810 220 l 2
 810 160 770 130 730 120 c 1
 770 110 810 80 810 20 c 2
 810 -40 l 2
 810 -175 690 -175 570 -175 c 2
 310 -175 l 2
 190 -175 70 -175 70 -40 c 2
 70 0 l 1
240 210 m 2
 240 175 270 175 300 175 c 2
 580 175 l 2
 610 175 640 175 640 210 c 2
 640 275 l 2
 640 310 610 310 580 310 c 2
 300 310 l 2
 270 310 240 310 240 275 c 2
 240 210 l 2
EndSplineSet
Validated: 1
EndChar

StartChar: thorn
Encoding: 254 254 115
Width: 740
VWidth: 0
Flags: W
HStem: -225 21G<60 220> 0 95<220 517.305> 385 95<220 517.305> 640 20G<60 220>
VStem: 60 160<-225 0 95 385 480 660> 520 160<99.5743 380.426>
LayerCount: 2
Fore
SplineSet
60 -225 m 1
 60 660 l 1
 220 660 l 1
 220 480 l 1
 480 480 l 2
 580 480 680 480 680 365 c 2
 680 115 l 2
 680 0 580 0 480 0 c 2
 220 0 l 1
 220 -225 l 1
 60 -225 l 1
220 95 m 1
 470 95 l 2
 495 95 520 95 520 125 c 2
 520 355 l 2
 520 385 495 385 470 385 c 2
 220 385 l 1
 220 95 l 1
EndSplineSet
Validated: 1
EndChar

StartChar: oslash
Encoding: 248 248 116
Width: 820
VWidth: 0
Flags: W
HStem: 0 95<262.695 557.305> 385 95<262.695 557.305>
VStem: 100 160<99.5743 115 243 380.426> 560 160<99.5743 237 365 380.426>
LayerCount: 2
Fore
SplineSet
20 94 m 1
 20 179 l 1
 100 200 l 1
 100 365 l 2
 100 480 200 480 300 480 c 2
 520 480 l 2
 620 480 720 480 720 365 c 1
 800 386 l 1
 800 301 l 1
 720 280 l 1
 720 115 l 2
 720 0 620 0 520 0 c 2
 300 0 l 2
 200 0 100 0 100 115 c 1
 20 94 l 1
260 125 m 2
 260 95 285 95 310 95 c 2
 510 95 l 2
 535 95 560 95 560 125 c 2
 560 237 l 1
 260 158 l 1
 260 125 l 2
260 243 m 1
 560 322 l 1
 560 355 l 2
 560 385 535 385 510 385 c 2
 310 385 l 2
 285 385 260 385 260 355 c 2
 260 243 l 1
EndSplineSet
Validated: 1
EndChar

StartChar: uni00B2
Encoding: 178 178 117
Width: 560
VWidth: 0
Flags: MW
HStem: 320 70<190 500> 465 70<192.149 369.844> 590 70<80 369.844>
VStem: 60 130<390 460.842> 370 130<539.158 585.842>
LayerCount: 2
Fore
SplineSet
60 320 m 1
 60 445 l 2
 60 535 150 535 230 535 c 2
 330 535 l 2
 350 535 370 535 370 560 c 2
 370 565 l 2
 370 590 350 590 330 590 c 2
 80 590 l 1
 80 660 l 1
 340 660 l 2
 420 660 500 660 500 570 c 2
 500 555 l 2
 500 465 420 465 340 465 c 2
 230 465 l 2
 210 465 190 465 190 440 c 2
 190 390 l 1
 500 390 l 1
 500 320 l 1
 60 320 l 1
EndSplineSet
Validated: 1
EndChar

StartChar: uni00B5
Encoding: 181 181 118
Width: 740
VWidth: 0
Flags: W
HStem: -225 21G<60 220> 0 95<220.162 517.305> 460 20G<60 220 520 680>
VStem: 60 160<-225 0 96.6762 480> 520 160<99.5743 480>
LayerCount: 2
Fore
SplineSet
60 -225 m 1
 60 480 l 1
 220 480 l 1
 220 120 l 2
 220 95 245 95 270 95 c 2
 470 95 l 2
 495 95 520 95 520 125 c 2
 520 480 l 1
 680 480 l 1
 680 115 l 2
 680 0 580 0 480 0 c 2
 220 0 l 1
 220 -225 l 1
 60 -225 l 1
EndSplineSet
Validated: 1
EndChar

StartChar: degree
Encoding: 176 176 119
Width: 560
VWidth: 0
Flags: W
HStem: 390 70<190.156 369.844> 590 70<190.156 369.844>
VStem: 60 130<464.158 585.842> 370 130<464.158 585.842>
LayerCount: 2
Fore
SplineSet
60 480 m 2
 60 570 l 2
 60 660 140 660 220 660 c 2
 340 660 l 2
 420 660 500 660 500 570 c 2
 500 480 l 2
 500 390 420 390 340 390 c 2
 220 390 l 2
 140 390 60 390 60 480 c 2
190 485 m 2
 190 460 210 460 230 460 c 2
 330 460 l 2
 350 460 370 460 370 485 c 2
 370 565 l 2
 370 590 350 590 330 590 c 2
 230 590 l 2
 210 590 190 590 190 565 c 2
 190 485 l 2
EndSplineSet
Validated: 1
EndChar

StartChar: currency
Encoding: 164 164 120
Width: 840
VWidth: 0
Flags: W
HStem: 160 95<310.13 529.87> 405 95<310.13 529.87>
VStem: 170 140<260 400> 530 140<260 400>
LayerCount: 2
Fore
SplineSet
60 150 m 1
 170 260 l 1
 170 400 l 1
 60 510 l 1
 160 610 l 1
 270 500 l 1
 570 500 l 1
 680 610 l 1
 780 510 l 1
 670 400 l 1
 670 260 l 1
 780 150 l 1
 680 50 l 1
 570 160 l 1
 270 160 l 1
 160 50 l 1
 60 150 l 1
310 280 m 2
 310 255 330 255 350 255 c 2
 490 255 l 2
 510 255 530 255 530 280 c 2
 530 380 l 2
 530 405 510 405 490 405 c 2
 350 405 l 2
 330 405 310 405 310 380 c 2
 310 280 l 2
EndSplineSet
Validated: 1
EndChar

StartChar: Oslash
Encoding: 216 216 121
Width: 1030
VWidth: 0
Flags: W
HStem: 0 110<293.291 736.709> 550 110<293.291 736.709>
VStem: 120 170<116.892 135 302 543.108> 740 170<116.892 357 525 543.108>
LayerCount: 2
Fore
SplineSet
20 100 m 1
 20 205 l 1
 120 240 l 1
 120 525 l 2
 120 660 240 660 360 660 c 2
 670 660 l 2
 790 660 910 660 910 525 c 1
 1010 560 l 1
 1010 455 l 1
 910 420 l 1
 910 135 l 2
 910 0 790 0 670 0 c 2
 360 0 l 2
 240 0 120 0 120 135 c 1
 20 100 l 1
290 145 m 2
 290 110 320 110 350 110 c 2
 680 110 l 2
 710 110 740 110 740 145 c 2
 740 357 l 1
 290 197 l 1
 290 145 l 2
290 302 m 1
 740 462 l 1
 740 515 l 2
 740 550 710 550 680 550 c 2
 350 550 l 2
 320 550 290 550 290 515 c 2
 290 302 l 1
EndSplineSet
Validated: 1
EndChar

StartChar: plusminus
Encoding: 177 177 123
Width: 720
VWidth: 0
Flags: MW
HStem: 0 120<60 660> 170 21G<275 445> 300 120<60 275 445 660> 530 20G<275 445>
VStem: 275 170<170 300 420 550>
LayerCount: 2
Fore
SplineSet
60 0 m 1
 60 120 l 1
 660 120 l 1
 660 0 l 1
 60 0 l 1
60 300 m 1
 60 420 l 1
 275 420 l 1
 275 550 l 1
 445 550 l 1
 445 420 l 1
 660 420 l 1
 660 300 l 1
 445 300 l 1
 445 170 l 1
 275 170 l 1
 275 300 l 1
 60 300 l 1
EndSplineSet
Validated: 1
EndChar

StartChar: paragraph
Encoding: 182 182 124
Width: 750
VWidth: 0
Flags: W
HStem: -225 21G<290 430 550 690> 565 95<430 550>
VStem: 290 140<-225 260> 550 140<-225 565>
LayerCount: 2
Fore
SplineSet
60 430 m 2
 60 490 l 2
 60 620 164 660 290 660 c 2
 690 660 l 1
 690 -225 l 1
 550 -225 l 1
 550 565 l 1
 430 565 l 1
 430 -225 l 1
 290 -225 l 1
 290 260 l 1
 158 260 60 300 60 430 c 2
EndSplineSet
Validated: 1
EndChar

StartChar: divide
Encoding: 247 247 127
Width: 720
VWidth: 0
Flags: W
HStem: 0 120<275 445> 180 120<60 660> 360 120<275 445>
VStem: 275 170<0 120 360 480>
CounterMasks: 1 e0
LayerCount: 2
Fore
SplineSet
60 180 m 1
 60 300 l 1
 660 300 l 1
 660 180 l 1
 60 180 l 1
275 0 m 1
 275 120 l 1
 445 120 l 1
 445 0 l 1
 275 0 l 1
275 360 m 1
 275 480 l 1
 445 480 l 1
 445 360 l 1
 275 360 l 1
EndSplineSet
Validated: 1
EndChar

StartChar: ordfeminine
Encoding: 170 170 128
Width: 560
VWidth: 0
Flags: W
HStem: 175 70<60 500> 320 70<190.156 370> 465 70<190.156 370> 590 70<100 369.844>
VStem: 60 130<394.158 460.842> 370 130<390 465 535 585.842>
LayerCount: 2
Fore
SplineSet
60 175 m 1
 60 245 l 1
 500 245 l 1
 500 175 l 1
 60 175 l 1
60 410 m 2
 60 445 l 2
 60 535 140 535 220 535 c 2
 370 535 l 1
 370 565 l 2
 370 590 350 590 330 590 c 2
 100 590 l 1
 100 660 l 1
 340 660 l 2
 420 660 500 660 500 570 c 2
 500 320 l 1
 220 320 l 2
 140 320 60 320 60 410 c 2
190 415 m 2
 190 390 210 390 230 390 c 2
 370 390 l 1
 370 465 l 1
 230 465 l 2
 210 465 190 465 190 440 c 2
 190 415 l 2
EndSplineSet
Validated: 1
EndChar

StartChar: ordmasculine
Encoding: 186 186 129
Width: 560
VWidth: 0
Flags: W
HStem: 175 70<60 500> 320 70<190.156 369.844> 590 70<190.156 369.844>
VStem: 60 130<394.158 585.842> 370 130<394.158 585.842>
LayerCount: 2
Fore
SplineSet
60 175 m 1
 60 245 l 1
 500 245 l 1
 500 175 l 1
 60 175 l 1
60 410 m 2
 60 570 l 2
 60 660 140 660 220 660 c 2
 340 660 l 2
 420 660 500 660 500 570 c 2
 500 410 l 2
 500 320 420 320 340 320 c 2
 220 320 l 2
 140 320 60 320 60 410 c 2
190 415 m 2
 190 390 210 390 230 390 c 2
 330 390 l 2
 350 390 370 390 370 415 c 2
 370 565 l 2
 370 590 350 590 330 590 c 2
 230 590 l 2
 210 590 190 590 190 565 c 2
 190 415 l 2
EndSplineSet
Validated: 1
EndChar

StartChar: uni00B3
Encoding: 179 179 130
Width: 560
VWidth: 0
Flags: W
HStem: 320 70<60 369.844> 465 70<120 369.87> 590 70<60 369.844>
VStem: 370 130<394.158 463.876 535.991 585.842>
LayerCount: 2
Fore
SplineSet
60 320 m 1
 60 390 l 1
 330 390 l 2
 350 390 370 390 370 415 c 2
 370 440 l 2
 370 465 350 465 330 465 c 2
 120 465 l 1
 120 535 l 1
 330 535 l 2
 350 535 370 535 370 560 c 2
 370 565 l 2
 370 590 350 590 330 590 c 2
 60 590 l 1
 60 660 l 1
 340 660 l 2
 420 660 500 660 500 570 c 0
 500 525 460 510 440 505 c 1
 460 500 500 485 500 440 c 2
 500 410 l 2
 500 320 420 320 340 320 c 2
 60 320 l 1
EndSplineSet
Validated: 1
EndChar

StartChar: germandbls
Encoding: 223 223 131
Width: 740
VWidth: 0
Flags: W
HStem: 0 95<340 517.305> 305 95<340 478.17> 565 95<222.695 477.305>
VStem: 60 160<0 560.426> 480 160<403.223 560.426> 520 160<99.5743 300.57>
LayerCount: 2
Fore
SplineSet
60 0 m 1xf8
 60 545 l 2
 60 660 160 660 260 660 c 2
 440 660 l 2
 540 660 640 660 640 545 c 2
 640 450 l 2xf8
 640 385 610 365 570 360 c 1
 610 355 680 345 680 255 c 2
 680 115 l 2xf4
 680 0 580 0 480 0 c 2xf8
 340 0 l 1
 340 95 l 1
 470 95 l 2
 495 95 520 95 520 125 c 2
 520 275 l 2xf4
 520 305 495 305 470 305 c 2
 340 305 l 1
 340 400 l 1
 430 400 l 2
 455 400 480 400 480 430 c 2
 480 535 l 2
 480 565 455 565 430 565 c 2
 270 565 l 2
 245 565 220 565 220 535 c 2
 220 0 l 1
 60 0 l 1xf8
EndSplineSet
Validated: 1
EndChar

StartChar: macron
Encoding: 175 175 132
Width: 500
VWidth: 0
Flags: MW
HStem: 575 95<70 430>
VStem: 70 360
LayerCount: 2
Fore
SplineSet
70 575 m 1
 70 670 l 1
 430 670 l 1
 430 575 l 1
 70 575 l 1
EndSplineSet
Validated: 1
EndChar

StartChar: logicalnot
Encoding: 172 172 133
Width: 680
VWidth: 0
Flags: W
HStem: 280 120<60 480>
VStem: 480 140<80 280>
LayerCount: 2
Fore
SplineSet
60 280 m 1
 60 400 l 1
 620 400 l 1
 620 80 l 1
 480 80 l 1
 480 280 l 1
 60 280 l 1
EndSplineSet
Validated: 1
EndChar

StartChar: Euro
Encoding: 8364 8364 135
Width: 1030
VWidth: 0
Flags: MW
HStem: 0 110<365.499 764.501> 205 95<70 170 340 625> 300 60 360 95<70 170 340 670> 550 110<365.499 764.501>
VStem: 170 170<133.973 205 300 360 455 526.027> 790 170<133.973 180 480 526.027>
LayerCount: 2
Fore
SplineSet
70 205 m 1
 70 300 l 1
 170 300 l 1x20
 170 360 l 1x20
 70 360 l 1
 70 455 l 1
 170 455 l 1
 170 480 l 2
 170 660 330 660 490 660 c 2
 640 660 l 2
 800 660 960 660 960 480 c 1
 790 480 l 1
 785 550 725 550 660 550 c 2
 470 550 l 2
 405 550 340 550 340 475 c 2
 340 455 l 1
 695 455 l 1
 670 360 l 1
 340 360 l 1x20
 340 300 l 1x20
 650 300 l 1
 625 205 l 1
 340 205 l 1
 340 185 l 2
 340 110 405 110 470 110 c 2
 660 110 l 2
 725 110 785 110 790 180 c 1
 960 180 l 1
 960 0 800 0 640 0 c 2
 490 0 l 2
 330 0 170 0 170 180 c 2
 170 205 l 1
 70 205 l 1
EndSplineSet
Validated: 1
EndChar

StartChar: dotlessi
Encoding: 305 305 149
Width: 280
VWidth: 0
Flags: W
HStem: 0 21G<60 220> 460 20G<60 220>
VStem: 60 160<0 480>
LayerCount: 2
Fore
SplineSet
60 0 m 1
 60 480 l 1
 220 480 l 1
 220 0 l 1
 60 0 l 1
EndSplineSet
Validated: 1
EndChar

StartChar: Eth
Encoding: 208 208 174
Width: 960
VWidth: 0
Flags: W
HStem: 0 110<270 605.437> 315 95<20 100 270 495> 555 105<270 605.437>
VStem: 100 170<110 315 410 555> 720 170<214.575 450.097>
LayerCount: 2
Fore
SplineSet
270 110 m 1
 480 110 l 2
 600 110 720 150 720 310 c 2
 720 355 l 2
 720 515 600 555 480 555 c 2
 270 555 l 1
 270 410 l 1
 495 410 l 1
 495 315 l 1
 270 315 l 1
 270 110 l 1
100 315 m 1
 20 315 l 1
 20 410 l 1
 100 410 l 1
 100 660 l 1
 530 660 l 2
 710 660 890 580 890 355 c 2
 890 310 l 2
 890 85 710 0 530 0 c 2
 100 0 l 1
 100 315 l 1
EndSplineSet
Validated: 1
EndChar

StartChar: eth
Encoding: 240 240 175
Width: 740
VWidth: 0
Flags: W
HStem: 0 75<222.695 517.305> 300 75<222.695 496.807> 640 20G<365 546.111>
VStem: 60 160<77.041 297.959> 520 160<77.041 293.84>
LayerCount: 2
Fore
SplineSet
60 115 m 2
 60 260 l 2
 60 375 160 375 260 375 c 2
 460 375 l 2
 480 375 497 375 497 390 c 3
 497 400 491 413 485 425 c 2
 460 475 l 1
 350 420 l 1
 315 490 l 1
 425 545 l 1
 365 660 l 1
 535 660 l 1
 560 615 l 1
 640 655 l 1
 675 585 l 1
 595 545 l 1
 640 455 l 2
 680 375 680 300 680 220 c 2
 680 115 l 2
 680 0 580 0 480 0 c 2
 260 0 l 2
 160 0 60 0 60 115 c 2
220 105 m 2
 220 75 245 75 270 75 c 2
 470 75 l 2
 495 75 520 75 520 105 c 2
 520 270 l 2
 520 295 495 300 470 300 c 2
 270 300 l 2
 245 300 220 300 220 270 c 2
 220 105 l 2
EndSplineSet
Validated: 1
EndChar

StartChar: circumflex
Encoding: 710 710 176
Width: 500
VWidth: 0
Flags: MW
HStem: 550 160
LayerCount: 2
Fore
SplineSet
40 550 m 1
 190 710 l 1
 310 710 l 1
 460 550 l 1
 340 550 l 1
 250 640 l 1
 160 550 l 1
 40 550 l 1
EndSplineSet
Validated: 1
EndChar

StartChar: ogonek
Encoding: 731 731 177
Width: 500
VWidth: 0
Flags: W
HStem: -225 70<256.472 335> -20 20G<185 335>
VStem: 130 120<-146.31 -74.9165>
LayerCount: 2
Fore
SplineSet
130 -135 m 0
 130 -95 150 -70 220 0 c 1
 335 0 l 1
 260 -75 250 -95 250 -115 c 0
 250 -145 280 -155 320 -155 c 2
 335 -155 l 1
 335 -225 l 1
 290 -225 l 2
 210 -225 130 -215 130 -135 c 0
EndSplineSet
Validated: 1
EndChar

StartChar: tilde
Encoding: 732 732 178
Width: 500
VWidth: 0
Flags: MW
HStem: 560 80<287.6 369.854> 620 80<130.146 212.4>
VStem: 50 90<560 560> 360 90<700 700>
LayerCount: 2
Fore
SplineSet
155 700 m 0x70
 180 700 190 700 250 670 c 0
 290 650 310 640 320 640 c 0xb0
 335 640 345 640 360 700 c 1
 460 700 l 1x70
 435 595 385 560 345 560 c 0xb0
 320 560 310 560 250 590 c 0
 210 610 190 620 180 620 c 0x70
 165 620 155 620 140 560 c 1
 40 560 l 1xb0
 65 665 115 700 155 700 c 0x70
EndSplineSet
Validated: 1
EndChar

StartChar: ring
Encoding: 730 730 179
Width: 500
VWidth: 0
Flags: W
HStem: 550 65<177.617 322.383> 715 65<177.617 322.383>
VStem: 65 110<617.336 712.664> 325 110<617.336 712.664>
LayerCount: 2
Fore
SplineSet
65 635 m 2
 65 695 l 2
 65 752 105 780 185 780 c 2
 315 780 l 2
 395 780 435 752 435 695 c 2
 435 635 l 2
 435 578 395 550 315 550 c 2
 185 550 l 2
 105 550 65 578 65 635 c 2
175 635 m 2
 175 622 185 615 205 615 c 2
 295 615 l 2
 315 615 325 622 325 635 c 2
 325 695 l 2
 325 708 315 715 295 715 c 2
 205 715 l 2
 185 715 175 708 175 695 c 2
 175 635 l 2
EndSplineSet
Validated: 1
EndChar

StartChar: Lslash
Encoding: 321 321 201
Width: 890
VWidth: 0
Flags: MW
HStem: 0 110<290 860> 640 20G<120 290>
VStem: 120 170<110 260 455 660> 840 20G
LayerCount: 2
Fore
SplineSet
20 210 m 1
 20 320 l 1
 120 370 l 1
 120 660 l 1
 290 660 l 1
 290 455 l 1
 490 555 l 1
 490 445 l 1
 290 345 l 1
 290 110 l 1
 860 110 l 1
 860 0 l 1
 120 0 l 1
 120 260 l 1
 20 210 l 1
EndSplineSet
Validated: 1
EndChar

StartChar: lslash
Encoding: 322 322 202
Width: 400
VWidth: 0
Flags: W
HStem: 0 21G<120 280> 640 20G<120 280>
VStem: 120 160<0 270 440 660>
LayerCount: 2
Fore
SplineSet
20 220 m 1
 20 310 l 1
 120 360 l 1
 120 660 l 1
 280 660 l 1
 280 440 l 1
 380 490 l 1
 380 400 l 1
 280 350 l 1
 280 0 l 1
 120 0 l 1
 120 270 l 1
 20 220 l 1
EndSplineSet
Validated: 1
EndChar

StartChar: dotaccent
Encoding: 729 729 208
Width: 500
VWidth: 0
Flags: W
HStem: 575 110<185 315>
VStem: 185 130<575 685>
LayerCount: 2
Fore
SplineSet
185 575 m 1
 185 685 l 1
 315 685 l 1
 315 575 l 1
 185 575 l 1
EndSplineSet
Validated: 1
EndChar

StartChar: caron
Encoding: 711 711 215
Width: 500
VWidth: 0
Flags: W
HStem: 550 160
LayerCount: 2
Fore
SplineSet
40 710 m 1
 160 710 l 1
 250 620 l 1
 340 710 l 1
 460 710 l 1
 310 550 l 1
 190 550 l 1
 40 710 l 1
EndSplineSet
Validated: 1
EndChar

StartChar: breve
Encoding: 728 728 225
Width: 500
VWidth: 0
Flags: W
HStem: 550 85<198.911 301.089>
VStem: 80 95<658.825 710> 325 95<658.825 710>
LayerCount: 2
Fore
SplineSet
80 710 m 1
 175 710 l 1
 175 669 209 635 250 635 c 0
 291 635 325 669 325 710 c 1
 420 710 l 1
 420 622 344 550 250 550 c 0
 156 550 80 622 80 710 c 1
EndSplineSet
Validated: 1
EndChar

StartChar: hungarumlaut
Encoding: 733 733 252
Width: 500
VWidth: 0
Flags: MW
HStem: 550 160
VStem: 50 220 270 220
LayerCount: 2
Fore
SplineSet
50 550 m 1xc0
 140 710 l 1
 270 710 l 1xc0
 150 550 l 1
 50 550 l 1xc0
270 550 m 1
 360 710 l 1
 490 710 l 1
 370 550 l 1
 270 550 l 1
EndSplineSet
Validated: 1
EndChar

StartChar: dcroat
Encoding: 273 273 258
Width: 760
VWidth: 0
Flags: W
HStem: 0 95<222.695 520> 385 95<222.695 520> 535 80<370 520 680 740> 640 20G<520 680>
VStem: 60 160<99.5743 380.426> 520 160<95 385 480 535 615 660>
LayerCount: 2
Fore
SplineSet
60 115 m 2
 60 365 l 2
 60 480 160 480 260 480 c 2
 520 480 l 1
 520 535 l 1
 370 535 l 1
 370 615 l 1
 520 615 l 1
 520 660 l 1
 680 660 l 1
 680 615 l 1
 740 615 l 1
 740 535 l 1
 680 535 l 1
 680 0 l 1
 260 0 l 2
 160 0 60 0 60 115 c 2
220 125 m 2
 220 95 245 95 270 95 c 2
 520 95 l 1
 520 385 l 1
 270 385 l 2
 245 385 220 385 220 355 c 2
 220 125 l 2
EndSplineSet
Validated: 1
EndChar

StartChar: afii10107
Encoding: 1114 1114 288
Width: 1120
VWidth: 0
Flags: W
HStem: 0 95<640 897.305> 205 95<220 480 640 897.305> 460 20G<60 220 480 640>
VStem: 60 160<0 205 300 480> 480 160<95 205 300 480> 900 160<99.5743 200.426>
CounterMasks: 1 1c
LayerCount: 2
Fore
SplineSet
60 0 m 1
 60 480 l 1
 220 480 l 1
 220 300 l 1
 480 300 l 1
 480 480 l 1
 640 480 l 1
 640 300 l 1
 860 300 l 2
 960 300 1060 300 1060 185 c 2
 1060 115 l 2
 1060 0 960 0 860 0 c 2
 480 0 l 1
 480 205 l 1
 220 205 l 1
 220 0 l 1
 60 0 l 1
640 95 m 1
 850 95 l 2
 875 95 900 95 900 125 c 2
 900 175 l 2
 900 205 875 205 850 205 c 2
 640 205 l 1
 640 95 l 1
EndSplineSet
Validated: 1
EndChar

StartChar: afii10069
Encoding: 1076 1076 289
Width: 870
VWidth: 0
Flags: MW
HStem: 0 95<160 165 353 590> 385 95<390 590>
VStem: 30 130<-125 0> 230 160<144.181 385> 590 160<95 385> 710 130<-125 0>
LayerCount: 2
Fore
SplineSet
30 95 m 1xf4
 165 95 230 116 230 225 c 10
 230 480 l 1
 750 480 l 1
 750 95 l 1xf8
 840 95 l 1
 840 -125 l 1
 710 -125 l 1
 710 0 l 1
 160 0 l 1
 160 -125 l 1
 30 -125 l 1
 30 95 l 1xf4
353 95 m 1
 590 95 l 1
 590 385 l 1
 390 385 l 1
 390 225 l 2
 390 172 380 132 353 95 c 1
EndSplineSet
Validated: 1
EndChar

StartChar: afii10042
Encoding: 1064 1064 290
Width: 1150
VWidth: 0
Flags: MW
HStem: 0 110<240 490 660 910> 640 20G<70 240 490 660 910 1080>
VStem: 70 420 70 170<110 660> 490 420 490 170<110 660> 910 170<110 660>
CounterMasks: 1 16
LayerCount: 2
Fore
SplineSet
70 0 m 1
 70 660 l 1x20
 240 660 l 1
 240 110 l 1
 490 110 l 1
 490 660 l 1x08
 660 660 l 1
 660 110 l 1
 910 110 l 1
 910 660 l 1
 1080 660 l 1
 1080 0 l 1
 70 0 l 1
EndSplineSet
Validated: 1
EndChar

StartChar: afii10084
Encoding: 1090 1090 291
Width: 720
VWidth: 0
Flags: W
HStem: 0 21G<280 440> 385 95<60 280 440 660>
VStem: 280 160<0 385>
LayerCount: 2
Fore
SplineSet
60 385 m 1
 60 480 l 1
 660 480 l 1
 660 385 l 1
 440 385 l 1
 440 0 l 1
 280 0 l 1
 280 385 l 1
 60 385 l 1
EndSplineSet
Validated: 1
EndChar

StartChar: afii10072
Encoding: 1078 1078 292
Width: 980
VWidth: 0
Flags: W
HStem: 0 21G<20 230 410 570 750 960> 460 20G<40 250 410 570 730 940>
VStem: 410 160<0 110 300 480>
LayerCount: 2
Fore
SplineSet
20 0 m 1
 270 250 l 1
 40 480 l 1
 230 480 l 1
 410 300 l 1
 410 480 l 1
 570 480 l 1
 570 300 l 1
 750 480 l 1
 940 480 l 1
 710 250 l 1
 960 0 l 1
 770 0 l 1
 615 155 l 1
 570 110 l 1
 570 0 l 1
 410 0 l 1
 410 110 l 1
 365 155 l 1
 210 0 l 1
 20 0 l 1
EndSplineSet
Validated: 1
EndChar

StartChar: afii10068
Encoding: 1075 1075 293
Width: 700
VWidth: 0
Flags: MW
HStem: 0 21G<60 220> 385 95<220 640>
VStem: 60 160<0 385> 620 20G
LayerCount: 2
Fore
SplineSet
60 0 m 1
 60 480 l 1
 640 480 l 1
 640 385 l 1
 220 385 l 1
 220 0 l 1
 60 0 l 1
EndSplineSet
Validated: 1
EndChar

StartChar: afii10018
Encoding: 1041 1041 294
Width: 930
VWidth: 0
Flags: W
HStem: 0 110<240 686.709> 300 115<240 686.709> 550 110<240 810>
VStem: 70 170<110 300 415 550> 690 170<116.892 292.265>
LayerCount: 2
Fore
SplineSet
70 0 m 1
 70 660 l 1
 810 660 l 1
 810 550 l 1
 240 550 l 1
 240 415 l 1
 620 415 l 2
 740 415 860 415 860 280 c 2
 860 135 l 2
 860 0 740 0 620 0 c 2
 70 0 l 1
240 110 m 1
 630 110 l 2
 660 110 690 110 690 145 c 2
 690 265 l 2
 690 300 660 300 630 300 c 2
 240 300 l 1
 240 110 l 1
EndSplineSet
Validated: 1
EndChar

StartChar: afii10051
Encoding: 1026 1026 295
Width: 1180
VWidth: 0
Flags: W
HStem: -225 110<790 862.942> 0 21G<370 540> 305 110<540 936.709> 550 110<30 370 540 880>
VStem: 370 170<0 305 415 550> 940 170<-37.6328 298.108>
LayerCount: 2
Fore
SplineSet
30 550 m 1
 30 660 l 1
 880 660 l 1
 880 550 l 1
 540 550 l 1
 540 415 l 1
 870 415 l 2
 990 415 1110 415 1110 280 c 2
 1110 60 l 2
 1110 -205 890 -220 790 -225 c 1
 790 -115 l 1
 855 -105 940 -80 940 60 c 2
 940 270 l 2
 940 305 910 305 880 305 c 2
 540 305 l 1
 540 0 l 1
 370 0 l 1
 370 550 l 1
 30 550 l 1
EndSplineSet
Validated: 1
EndChar

StartChar: afii10067
Encoding: 1074 1074 296
Width: 740
VWidth: 0
Flags: W
HStem: 0 95<220 517.305> 205 95<220 509.298> 385 95<220 507.305>
VStem: 60 160<95 205 300 385> 510 160<301.769 383.324> 520 160<96.6762 202.759>
LayerCount: 2
Fore
SplineSet
60 0 m 1xf4
 60 480 l 1
 470 480 l 2
 570 480 670 480 670 380 c 2
 670 345 l 2xf8
 670 290 645 265 605 255 c 1
 645 245 680 220 680 165 c 2
 680 100 l 2
 680 0 580 0 480 0 c 2
 60 0 l 1xf4
220 95 m 1
 470 95 l 2
 495 95 520 95 520 120 c 2
 520 180 l 2xf4
 520 205 495 205 470 205 c 2
 220 205 l 1
 220 95 l 1
220 300 m 1
 460 300 l 2
 485 300 510 300 510 325 c 2
 510 360 l 2xf8
 510 385 485 385 460 385 c 2
 220 385 l 1
 220 300 l 1
EndSplineSet
Validated: 1
EndChar

StartChar: afii10086
Encoding: 1092 1092 297
Width: 1000
VWidth: 0
Flags: MW
HStem: -225 21G<420 580> 0 95<222.695 420 580 777.305> 385 95<222.695 420 580 777.305> 640 20G<420 580>
VStem: 60 360 60 160<99.5743 380.426> 420 360 420 160<-225 0 95 385 480 660> 780 160<99.5743 380.426>
CounterMasks: 1 0580
LayerCount: 2
Fore
SplineSet
60 115 m 2
 60 365 l 2x08
 60 480 160 480 260 480 c 2
 420 480 l 1
 420 660 l 1
 580 660 l 1
 580 480 l 1
 740 480 l 2
 840 480 940 480 940 365 c 2
 940 115 l 2
 940 0 840 0 740 0 c 2
 580 0 l 1
 580 -225 l 1
 420 -225 l 1
 420 0 l 1
 260 0 l 2
 160 0 60 0 60 115 c 2
220 125 m 2
 220 95 245 95 270 95 c 2
 420 95 l 1
 420 385 l 1x02
 270 385 l 2
 245 385 220 385 220 355 c 2
 220 125 l 2
580 95 m 1
 730 95 l 2
 755 95 780 95 780 125 c 2
 780 355 l 2
 780 385 755 385 730 385 c 2
 580 385 l 1
 580 95 l 1
EndSplineSet
Validated: 1
EndChar

StartChar: afii10066
Encoding: 1073 1073 298
Width: 740
VWidth: 0
Flags: W
HStem: 0 95<222.695 517.305> 385 95<220.865 517.305> 580 80<404.519 640>
VStem: 60 160<99.5743 382.989 480 519.098> 520 160<99.5743 380.426>
LayerCount: 2
Fore
SplineSet
60 115 m 2
 60 425 l 2
 60 620 150 660 640 660 c 1
 640 580 l 1
 400 580 220 560 220 480 c 1
 480 480 l 2
 580 480 680 480 680 365 c 2
 680 115 l 2
 680 0 580 0 480 0 c 2
 260 0 l 2
 160 0 60 0 60 115 c 2
220 125 m 2
 220 95 245 95 270 95 c 2
 470 95 l 2
 495 95 520 95 520 125 c 2
 520 355 l 2
 520 385 495 385 470 385 c 2
 270 385 l 2
 245 385 220 385 220 355 c 2
 220 125 l 2
EndSplineSet
Validated: 1
EndChar

StartChar: afii10099
Encoding: 1106 1106 299
Width: 780
VWidth: 0
Flags: W
HStem: -225 95<450 508.337> 0 21G<100 260> 310 95<260 557.305> 505 80<20 100 260 480> 640 20G<100 260>
VStem: 100 160<0 310 405 505 585 660> 560 160<-81.875 308.324>
LayerCount: 2
Fore
SplineSet
20 505 m 1
 20 585 l 1
 100 585 l 1
 100 660 l 1
 260 660 l 1
 260 585 l 1
 480 585 l 1
 480 505 l 1
 260 505 l 1
 260 405 l 1
 520 405 l 2
 620 405 720 405 720 305 c 2
 720 0 l 2
 720 -205 540 -220 450 -225 c 1
 450 -130 l 1
 540 -115 560 -60 560 0 c 2
 560 285 l 2
 560 310 535 310 510 310 c 2
 260 310 l 1
 260 0 l 1
 100 0 l 1
 100 505 l 1
 20 505 l 1
EndSplineSet
Validated: 1
EndChar

StartChar: afii10047
Encoding: 1069 1069 300
Width: 930
VWidth: 0
Flags: MW
HStem: 0 110<265.499 664.501> 305 110<315 690> 550 110<265.499 664.501>
VStem: 70 170<133.973 180 480 526.027> 690 170<133.973 305 415 526.027>
LayerCount: 2
Fore
SplineSet
70 180 m 1
 240 180 l 1
 245 110 305 110 370 110 c 2
 560 110 l 2
 625 110 690 110 690 185 c 2
 690 305 l 1
 315 305 l 1
 315 415 l 1
 690 415 l 1
 690 475 l 2
 690 550 625 550 560 550 c 2
 370 550 l 2
 305 550 245 550 240 480 c 1
 70 480 l 1
 70 660 230 660 390 660 c 2
 540 660 l 2
 700 660 860 660 860 480 c 2
 860 180 l 2
 860 0 700 0 540 0 c 2
 390 0 l 2
 230 0 70 0 70 180 c 1
EndSplineSet
Validated: 1
EndChar

StartChar: afii10045
Encoding: 1067 1067 301
Width: 1150
VWidth: 0
Flags: W
HStem: 0 110<240 636.709> 305 110<240 636.709> 640 20G<70 240 910 1080>
VStem: 70 170<110 305 415 660> 640 170<116.892 298.108> 910 170<0 660>
LayerCount: 2
Fore
SplineSet
70 0 m 1
 70 660 l 1
 240 660 l 1
 240 415 l 1
 570 415 l 2
 690 415 810 415 810 280 c 2
 810 135 l 2
 810 0 690 0 570 0 c 2
 70 0 l 1
240 110 m 1
 580 110 l 2
 610 110 640 110 640 145 c 2
 640 270 l 2
 640 305 610 305 580 305 c 2
 240 305 l 1
 240 110 l 1
910 0 m 1
 910 660 l 1
 1080 660 l 1
 1080 0 l 1
 910 0 l 1
EndSplineSet
Validated: 1
EndChar

StartChar: afii10059
Encoding: 1034 1034 302
Width: 1450
VWidth: 0
Flags: W
HStem: 0 110<810 1206.71> 305 110<240 640 810 1206.71> 640 20G<70 240 640 810>
VStem: 70 170<0 305 415 660> 640 170<110 305 415 660> 1210 170<116.892 298.108>
CounterMasks: 1 1c
LayerCount: 2
Fore
SplineSet
70 0 m 1
 70 660 l 1
 240 660 l 1
 240 415 l 1
 640 415 l 1
 640 660 l 1
 810 660 l 1
 810 415 l 1
 1140 415 l 2
 1260 415 1380 415 1380 280 c 2
 1380 135 l 2
 1380 0 1260 0 1140 0 c 2
 640 0 l 1
 640 305 l 1
 240 305 l 1
 240 0 l 1
 70 0 l 1
810 110 m 1
 1150 110 l 2
 1180 110 1210 110 1210 145 c 2
 1210 270 l 2
 1210 305 1180 305 1150 305 c 2
 810 305 l 1
 810 110 l 1
EndSplineSet
Validated: 1
EndChar

StartChar: afii10145
Encoding: 1039 1039 304
Width: 930
VWidth: 0
Flags: W
HStem: 0 110<240 390 540 690> 640 20G<70 240 690 860>
VStem: 70 170<110 660> 390 150<-150 0> 690 170<110 660>
CounterMasks: 1 38
LayerCount: 2
Fore
SplineSet
70 0 m 1
 70 660 l 1
 240 660 l 1
 240 110 l 1
 690 110 l 1
 690 660 l 1
 860 660 l 1
 860 0 l 1
 540 0 l 1
 540 -150 l 1
 390 -150 l 1
 390 0 l 1
 70 0 l 1
EndSplineSet
Validated: 1
EndChar

StartChar: afii10048
Encoding: 1070 1070 305
Width: 1250
VWidth: 0
Flags: W
HStem: 0 110<563.291 1006.71> 275 110<240 390> 550 110<563.291 1006.71>
VStem: 70 170<0 275 385 660> 390 170<116.892 275 385 543.108> 1010 170<116.892 543.108>
CounterMasks: 1 e0
LayerCount: 2
Fore
SplineSet
70 0 m 1
 70 660 l 1
 240 660 l 1
 240 385 l 1
 390 385 l 1
 390 525 l 2
 390 660 510 660 630 660 c 2
 940 660 l 2
 1060 660 1180 660 1180 525 c 2
 1180 135 l 2
 1180 0 1060 0 940 0 c 2
 630 0 l 2
 510 0 390 0 390 135 c 2
 390 275 l 1
 240 275 l 1
 240 0 l 1
 70 0 l 1
560 145 m 2
 560 110 590 110 620 110 c 2
 950 110 l 2
 980 110 1010 110 1010 145 c 2
 1010 515 l 2
 1010 550 980 550 950 550 c 2
 620 550 l 2
 590 550 560 550 560 515 c 2
 560 145 l 2
EndSplineSet
Validated: 1
EndChar

StartChar: afii10078
Encoding: 1084 1084 306
Width: 910
VWidth: 0
Flags: W
HStem: 0 21G<60 220 370 540 690 850> 460 20G<60 295 615 850>
VStem: 60 160<0 320> 690 160<0 320>
LayerCount: 2
Fore
SplineSet
60 0 m 1
 60 480 l 1
 285 480 l 1
 455 140 l 1
 625 480 l 1
 850 480 l 1
 850 0 l 1
 690 0 l 1
 690 320 l 1
 530 0 l 1
 380 0 l 1
 220 320 l 1
 220 0 l 1
 60 0 l 1
EndSplineSet
Validated: 1
EndChar

StartChar: afii10077
Encoding: 1083 1083 308
Width: 720
VWidth: 0
Flags: W
HStem: 0 95<30 88.3374> 385 95<300 500>
VStem: 140 160<143.125 385> 500 160<0 385>
LayerCount: 2
Fore
SplineSet
30 0 m 1
 30 95 l 1
 120 110 140 165 140 225 c 2
 140 480 l 1
 660 480 l 1
 660 0 l 1
 500 0 l 1
 500 385 l 1
 300 385 l 1
 300 225 l 2
 300 20 120 5 30 0 c 1
EndSplineSet
Validated: 1
EndChar

StartChar: afii10046
Encoding: 1068 1068 309
Width: 880
VWidth: 0
Flags: W
HStem: 0 110<240 636.709> 305 110<240 636.709> 640 20G<70 240>
VStem: 70 170<110 305 415 660> 640 170<116.892 298.108>
LayerCount: 2
Fore
SplineSet
70 0 m 1
 70 660 l 1
 240 660 l 1
 240 415 l 1
 570 415 l 2
 690 415 810 415 810 280 c 2
 810 135 l 2
 810 0 690 0 570 0 c 2
 70 0 l 1
240 110 m 1
 580 110 l 2
 610 110 640 110 640 145 c 2
 640 270 l 2
 640 305 610 305 580 305 c 2
 240 305 l 1
 240 110 l 1
EndSplineSet
Validated: 1
EndChar

StartChar: afii10024
Encoding: 1046 1046 310
Width: 1230
VWidth: 0
Flags: W
HStem: 0 21G<20 250 530 700 980 1210> 640 20G<60 290 530 700 940 1170>
VStem: 530 170<0 190 400 660>
LayerCount: 2
Fore
SplineSet
20 0 m 1
 370 350 l 1
 60 660 l 1
 270 660 l 1
 530 400 l 1
 530 660 l 1
 700 660 l 1
 700 400 l 1
 960 660 l 1
 1170 660 l 1
 860 350 l 1
 1210 0 l 1
 1000 0 l 1
 755 245 l 1
 700 190 l 1
 700 0 l 1
 530 0 l 1
 530 190 l 1
 475 245 l 1
 230 0 l 1
 20 0 l 1
EndSplineSet
Validated: 1
EndChar

StartChar: afii10073
Encoding: 1079 1079 311
Width: 700
VWidth: 0
Flags: W
HStem: 0 95<60 477.305> 205 95<140 479.135> 385 95<60 477.305>
VStem: 480 160<99.5743 201.944 303.307 380.426>
LayerCount: 2
Fore
SplineSet
60 0 m 1
 60 95 l 1
 430 95 l 2
 455 95 480 95 480 125 c 2
 480 175 l 2
 480 205 455 205 430 205 c 2
 140 205 l 1
 140 300 l 1
 430 300 l 2
 455 300 480 300 480 330 c 2
 480 355 l 2
 480 385 455 385 430 385 c 2
 60 385 l 1
 60 480 l 1
 440 480 l 2
 540 480 640 480 640 365 c 2
 640 350 l 2
 640 295 605 270 565 260 c 1
 605 250 640 225 640 170 c 2
 640 115 l 2
 640 0 540 0 440 0 c 2
 60 0 l 1
EndSplineSet
Validated: 1
EndChar

StartChar: afii10049
Encoding: 1071 1071 312
Width: 930
VWidth: 0
Flags: W
HStem: 0 21G<30 260 690 860> 270 110<243.055 300 510 690> 550 110<243.291 690>
VStem: 70 170<386.892 543.108> 690 170<0 270 380 550>
LayerCount: 2
Fore
SplineSet
30 0 m 1
 300 270 l 17
 190 270 70 270 70 405 c 2
 70 525 l 2
 70 660 190 660 310 660 c 2
 860 660 l 1
 860 0 l 1
 690 0 l 1
 690 270 l 1
 510 270 l 1
 240 0 l 1
 30 0 l 1
240 415 m 2
 240 380 270 380 300 380 c 2
 690 380 l 1
 690 550 l 1
 300 550 l 2
 270 550 240 550 240 515 c 2
 240 415 l 2
EndSplineSet
Validated: 1
EndChar

StartChar: afii10193
Encoding: 1119 1119 313
Width: 740
VWidth: 0
Flags: MW
HStem: 0 75<220 305 435 520> 460 20G<60 220 520 680>
VStem: 60 160<75 480> 305 130<-125 0> 520 160<75 480>
CounterMasks: 1 38
LayerCount: 2
Fore
SplineSet
60 0 m 1
 60 480 l 1
 220 480 l 1
 220 75 l 1
 520 75 l 1
 520 480 l 1
 680 480 l 1
 680 0 l 1
 435 0 l 1
 435 -125 l 1
 305 -125 l 1
 305 0 l 1
 60 0 l 1
EndSplineSet
Validated: 1
EndChar

StartChar: afii10025
Encoding: 1047 1047 314
Width: 880
VWidth: 0
Flags: W
HStem: 0 110<70 636.709> 305 110<160 637.917> 550 110<70 636.709>
VStem: 640 170<116.892 300.173 419.233 543.108>
LayerCount: 2
Fore
SplineSet
70 0 m 1
 70 110 l 1
 580 110 l 2
 610 110 640 110 640 145 c 2
 640 270 l 2
 640 305 610 305 580 305 c 2
 160 305 l 1
 160 415 l 1
 580 415 l 2
 610 415 640 415 640 450 c 2
 640 515 l 2
 640 550 610 550 580 550 c 2
 70 550 l 1
 70 660 l 1
 570 660 l 2
 690 660 810 660 810 525 c 2
 810 465 l 2
 810 405 770 375 730 365 c 1
 770 355 810 325 810 265 c 2
 810 135 l 2
 810 0 690 0 570 0 c 2
 70 0 l 1
EndSplineSet
Validated: 1
EndChar

StartChar: afii10040
Encoding: 1062 1062 315
Width: 1020
VWidth: 0
Flags: W
HStem: 0 110<240 690> 640 20G<70 240 690 860>
VStem: 70 170<110 660> 690 170<110 660> 830 150<-150 0>
LayerCount: 2
Fore
SplineSet
70 0 m 1xe8
 70 660 l 1
 240 660 l 1
 240 110 l 1
 690 110 l 1
 690 660 l 1
 860 660 l 1
 860 110 l 1xf0
 980 110 l 1
 980 -150 l 1
 830 -150 l 1
 830 0 l 1
 70 0 l 1xe8
EndSplineSet
Validated: 1
EndChar

StartChar: afii10037
Encoding: 1059 1059 316
Width: 840
VWidth: 0
Flags: MW
HStem: 0 110<120 275.339> 640 20G<20 223.333 616.667 820>
VStem: 120 21G
LayerCount: 2
Fore
SplineSet
20 660 m 1
 210 660 l 1
 420 345 l 1
 630 660 l 1
 820 660 l 1
 440 90 l 2
 400 30 380 0 290 0 c 2
 120 0 l 1
 120 110 l 1
 225 110 l 2
 260 110 270 120 300 165 c 2
 326 204 l 1
 20 660 l 1
EndSplineSet
Validated: 1
EndChar

StartChar: afii10090
Encoding: 1096 1096 317
Width: 960
VWidth: 0
Flags: MW
HStem: 0 95<220 400 560 740> 460 20G<60 220 400 560 740 900>
VStem: 60 340 60 160<95 480> 400 340 400 160<95 480> 740 160<95 480>
CounterMasks: 1 16
LayerCount: 2
Fore
SplineSet
60 0 m 1
 60 480 l 1x20
 220 480 l 1
 220 95 l 1
 400 95 l 1
 400 480 l 1x08
 560 480 l 1
 560 95 l 1
 740 95 l 1
 740 480 l 1
 900 480 l 1
 900 0 l 1
 60 0 l 1
EndSplineSet
Validated: 1
EndChar

StartChar: afii10043
Encoding: 1065 1065 318
Width: 1240
VWidth: 0
Flags: MW
HStem: 0 110<240 490 660 910> 640 20G<70 240 490 660 910 1080>
VStem: 70 420 70 170<110 660> 490 420 490 170<110 660> 910 170<110 660> 1050 150<-150 0>
LayerCount: 2
Fore
SplineSet
70 0 m 1xd5
 70 660 l 1x20
 240 660 l 1
 240 110 l 1
 490 110 l 1
 490 660 l 1x08
 660 660 l 1
 660 110 l 1
 910 110 l 1
 910 660 l 1
 1080 660 l 1
 1080 110 l 1xd6
 1200 110 l 1
 1200 -150 l 1
 1050 -150 l 1
 1050 0 l 1
 70 0 l 1xd5
EndSplineSet
Validated: 1
EndChar

StartChar: afii10088
Encoding: 1094 1094 319
Width: 800
VWidth: 0
Flags: W
HStem: 0 95<220 520> 460 20G<60 220 520 680>
VStem: 60 160<95 480> 520 160<95 480> 640 130<-125 0>
LayerCount: 2
Fore
SplineSet
60 0 m 1xe8
 60 480 l 1
 220 480 l 1
 220 95 l 1
 520 95 l 1
 520 480 l 1
 680 480 l 1
 680 95 l 1xf0
 770 95 l 1
 770 -125 l 1
 640 -125 l 1
 640 0 l 1
 60 0 l 1xe8
EndSplineSet
Validated: 1
EndChar

StartChar: afii10053
Encoding: 1028 1028 320
Width: 930
VWidth: 0
Flags: MW
HStem: 0 110<265.499 664.501> 305 110<240 615> 550 110<265.499 664.501>
VStem: 70 170<133.973 305 415 526.027> 690 170<133.973 180 480 526.027>
LayerCount: 2
Fore
SplineSet
70 180 m 2
 70 480 l 2
 70 660 230 660 390 660 c 2
 540 660 l 2
 700 660 860 660 860 480 c 1
 690 480 l 1
 685 550 625 550 560 550 c 2
 370 550 l 2
 305 550 240 550 240 475 c 2
 240 415 l 1
 615 415 l 1
 615 305 l 1
 240 305 l 1
 240 185 l 2
 240 110 305 110 370 110 c 2
 560 110 l 2
 625 110 685 110 690 180 c 1
 860 180 l 1
 860 0 700 0 540 0 c 2
 390 0 l 2
 230 0 70 0 70 180 c 2
EndSplineSet
Validated: 1
EndChar

StartChar: afii10095
Encoding: 1101 1101 321
Width: 740
VWidth: 0
Flags: MW
HStem: 0 95<231.839 508.939> 205 95<290 520> 385 95<231.839 504.922>
VStem: 60 160<111.644 150 330 368.356> 520 160<107.188 205 300 372.812>
LayerCount: 2
Fore
SplineSet
60 150 m 1
 220 150 l 1
 220 95 270 95 320 95 c 2
 420 95 l 2
 470 95 520 95 520 150 c 2
 520 205 l 1
 290 205 l 1
 290 300 l 1
 520 300 l 1
 520 330 l 2
 520 385 470 385 420 385 c 2
 320 385 l 2
 270 385 220 385 220 330 c 1
 60 330 l 1
 65 480 200 480 340 480 c 2
 400 480 l 2
 545 480 680 480 680 320 c 2
 680 160 l 2
 680 0 540 0 400 0 c 2
 340 0 l 2
 200 0 65 0 60 150 c 1
EndSplineSet
Validated: 1
EndChar

StartChar: afii10094
Encoding: 1100 1100 322
Width: 700
VWidth: 0
Flags: W
HStem: 0 95<220 477.305> 205 95<220 477.305> 460 20G<60 220>
VStem: 60 160<95 205 300 480> 480 160<99.5743 200.426>
LayerCount: 2
Fore
SplineSet
60 0 m 1
 60 480 l 1
 220 480 l 1
 220 300 l 1
 440 300 l 2
 540 300 640 300 640 185 c 2
 640 115 l 2
 640 0 540 0 440 0 c 2
 60 0 l 1
220 95 m 1
 430 95 l 2
 455 95 480 95 480 125 c 2
 480 175 l 2
 480 205 455 205 430 205 c 2
 220 205 l 1
 220 95 l 1
EndSplineSet
Validated: 1
EndChar

StartChar: afii10041
Encoding: 1063 1063 323
Width: 930
VWidth: 0
Flags: W
HStem: 0 21G<690 860> 250 110<243.291 690> 640 20G<70 240 690 860>
VStem: 70 170<366.892 660> 690 170<0 250 360 660>
LayerCount: 2
Fore
SplineSet
70 385 m 2
 70 660 l 1
 240 660 l 1
 240 395 l 2
 240 360 270 360 300 360 c 2
 690 360 l 1
 690 660 l 1
 860 660 l 1
 860 0 l 1
 690 0 l 1
 690 250 l 1
 310 250 l 2
 190 250 70 250 70 385 c 2
EndSplineSet
Validated: 1
EndChar

StartChar: afii10074
Encoding: 1080 1080 324
Width: 740
VWidth: 0
Flags: W
HStem: 0 21G<60 258.361 520 680> 460 20G<60 220 481.639 680>
VStem: 60 160<175 480> 520 160<0 305>
LayerCount: 2
Fore
SplineSet
60 0 m 1
 60 480 l 1
 220 480 l 1
 220 175 l 1
 500 480 l 1
 680 480 l 1
 680 0 l 1
 520 0 l 1
 520 305 l 1
 240 0 l 1
 60 0 l 1
EndSplineSet
Validated: 1
EndChar

StartChar: afii10026
Encoding: 1048 1048 325
Width: 930
VWidth: 0
Flags: W
HStem: 0 21G<70 278.298 690 860> 640 20G<70 240 651.702 860>
VStem: 70 170<190 660> 690 170<0 470>
LayerCount: 2
Fore
SplineSet
70 0 m 1
 70 660 l 1
 240 660 l 1
 240 190 l 1
 670 660 l 1
 860 660 l 1
 860 0 l 1
 690 0 l 1
 690 470 l 1
 260 0 l 1
 70 0 l 1
EndSplineSet
Validated: 1
EndChar

StartChar: afii61352
Encoding: 8470 8470 326
Width: 1350
VWidth: 0
Flags: W
HStem: 0 70<840 1280> 140 70<970.156 1149.84> 410 70<970.156 1149.84> 640 20G<70 274.348 590 760>
VStem: 70 170<0 460> 590 170<200 660> 840 130<214.158 405.842> 1150 130<214.158 405.842>
LayerCount: 2
Fore
SplineSet
70 0 m 1
 70 660 l 1
 260 660 l 1
 590 200 l 1
 590 660 l 1
 760 660 l 1
 760 0 l 1
 570 0 l 1
 240 460 l 1
 240 0 l 1
 70 0 l 1
840 0 m 1
 840 70 l 1
 1280 70 l 1
 1280 0 l 1
 840 0 l 1
840 230 m 2
 840 390 l 2
 840 480 920 480 1000 480 c 2
 1120 480 l 2
 1200 480 1280 480 1280 390 c 2
 1280 230 l 2
 1280 140 1200 140 1120 140 c 2
 1000 140 l 2
 920 140 840 140 840 230 c 2
970 235 m 2
 970 210 990 210 1010 210 c 2
 1110 210 l 2
 1130 210 1150 210 1150 235 c 2
 1150 385 l 2
 1150 410 1130 410 1110 410 c 2
 1010 410 l 2
 990 410 970 410 970 385 c 2
 970 235 l 2
EndSplineSet
Validated: 1
EndChar

StartChar: afii10029
Encoding: 1051 1051 327
Width: 950
VWidth: 0
Flags: W
HStem: 0 110<40 112.942> 550 110<360 710>
VStem: 190 170<187.367 550> 710 170<0 550>
LayerCount: 2
Fore
SplineSet
40 0 m 1
 40 110 l 1
 105 120 190 145 190 285 c 2
 190 660 l 1
 880 660 l 1
 880 0 l 1
 710 0 l 1
 710 550 l 1
 360 550 l 1
 360 285 l 2
 360 20 140 5 40 0 c 1
EndSplineSet
Validated: 1
EndChar

StartChar: afii10058
Encoding: 1033 1033 328
Width: 1370
VWidth: 0
Flags: W
HStem: 0 110<40 112.942 730 1126.71> 300 110<730 1126.71> 550 110<360 560>
VStem: 190 170<187.367 550> 560 170<110 300 410 550> 1130 170<116.892 293.108>
LayerCount: 2
Fore
SplineSet
40 0 m 1
 40 110 l 1
 105 120 190 145 190 285 c 2
 190 660 l 1
 730 660 l 1
 730 410 l 1
 1060 410 l 2
 1180 410 1300 410 1300 275 c 2
 1300 135 l 2
 1300 0 1180 0 1060 0 c 2
 560 0 l 1
 560 550 l 1
 360 550 l 1
 360 285 l 2
 360 20 140 5 40 0 c 1
730 110 m 1
 1070 110 l 2
 1100 110 1130 110 1130 145 c 2
 1130 265 l 2
 1130 300 1100 300 1070 300 c 2
 730 300 l 1
 730 110 l 1
EndSplineSet
Validated: 1
EndChar

StartChar: afii10081
Encoding: 1087 1087 329
Width: 740
VWidth: 0
Flags: W
HStem: 0 21G<60 220 520 680> 385 95<220 520>
VStem: 60 160<0 385> 520 160<0 385>
LayerCount: 2
Fore
SplineSet
60 0 m 1
 60 480 l 1
 680 480 l 1
 680 0 l 1
 520 0 l 1
 520 385 l 1
 220 385 l 1
 220 0 l 1
 60 0 l 1
EndSplineSet
Validated: 1
EndChar

StartChar: afii10096
Encoding: 1102 1102 330
Width: 1040
VWidth: 0
Flags: W
HStem: 0 75<522.695 817.305> 185 95<220 360> 405 75<522.695 817.305>
VStem: 60 160<0 185 280 480> 360 160<77.041 185 280 402.959> 820 160<77.041 402.959>
LayerCount: 2
Fore
SplineSet
60 0 m 1
 60 480 l 1
 220 480 l 1
 220 280 l 1
 360 280 l 1
 360 365 l 2
 360 480 460 480 560 480 c 2
 780 480 l 2
 880 480 980 480 980 365 c 2
 980 115 l 2
 980 0 880 0 780 0 c 2
 560 0 l 2
 460 0 360 0 360 115 c 2
 360 185 l 1
 220 185 l 1
 220 0 l 1
 60 0 l 1
520 105 m 2
 520 75 545 75 570 75 c 2
 770 75 l 2
 795 75 820 75 820 105 c 2
 820 375 l 2
 820 405 795 405 770 405 c 2
 570 405 l 2
 545 405 520 405 520 375 c 2
 520 105 l 2
EndSplineSet
Validated: 1
EndChar

StartChar: afii10092
Encoding: 1098 1098 331
Width: 860
VWidth: 0
Flags: MW
HStem: 0 95<380 637.305> 205 95<380 637.305> 385 95<60 220>
VStem: 60 21G 220 160<95 205 300 385> 640 160<99.5743 200.426>
LayerCount: 2
Fore
SplineSet
60 385 m 1
 60 480 l 1
 380 480 l 1
 380 300 l 1
 600 300 l 2
 700 300 800 300 800 185 c 2
 800 115 l 2
 800 0 700 0 600 0 c 2
 220 0 l 1
 220 385 l 1
 60 385 l 1
380 95 m 1
 590 95 l 2
 615 95 640 95 640 125 c 2
 640 175 l 2
 640 205 615 205 590 205 c 2
 380 205 l 1
 380 95 l 1
EndSplineSet
Validated: 1
EndChar

StartChar: afii10101
Encoding: 1108 1108 332
Width: 740
VWidth: 0
Flags: MW
HStem: 0 95<231.061 508.161> 205 95<220 450> 385 95<235.078 508.161>
VStem: 60 160<107.188 205 300 372.812> 520 160<111.644 150 330 368.356>
LayerCount: 2
Fore
SplineSet
60 160 m 2
 60 320 l 2
 60 480 195 480 340 480 c 2
 400 480 l 2
 540 480 675 480 680 330 c 1
 520 330 l 1
 520 385 470 385 420 385 c 2
 320 385 l 2
 270 385 220 385 220 330 c 2
 220 300 l 1
 450 300 l 1
 450 205 l 1
 220 205 l 1
 220 150 l 2
 220 95 270 95 320 95 c 2
 420 95 l 2
 470 95 520 95 520 150 c 1
 680 150 l 1
 675 0 540 0 400 0 c 2
 340 0 l 2
 200 0 60 0 60 160 c 2
EndSplineSet
Validated: 1
EndChar

StartChar: afii10093
Encoding: 1099 1099 333
Width: 960
VWidth: 0
Flags: W
HStem: 0 95<220 477.305> 205 95<220 477.305> 460 20G<60 220 740 900>
VStem: 60 160<95 205 300 480> 480 160<99.5743 200.426> 740 160<0 480>
LayerCount: 2
Fore
SplineSet
60 0 m 1
 60 480 l 1
 220 480 l 1
 220 300 l 1
 440 300 l 2
 540 300 640 300 640 185 c 2
 640 115 l 2
 640 0 540 0 440 0 c 2
 60 0 l 1
220 95 m 1
 430 95 l 2
 455 95 480 95 480 125 c 2
 480 175 l 2
 480 205 455 205 430 205 c 2
 220 205 l 1
 220 95 l 1
740 0 m 1
 740 480 l 1
 900 480 l 1
 900 0 l 1
 740 0 l 1
EndSplineSet
Validated: 1
EndChar

StartChar: afii10097
Encoding: 1103 1103 334
Width: 740
VWidth: 0
Flags: W
HStem: 0 21G<40 250 520 680> 195 95<425 520> 385 95<222.695 520>
VStem: 60 160<295.852 380.426> 520 160<0 195 290 385>
LayerCount: 2
Fore
SplineSet
40 0 m 1
 235 195 l 1
 145 195 60 205 60 310 c 2
 60 365 l 2
 60 480 160 480 260 480 c 2
 680 480 l 1
 680 0 l 1
 520 0 l 1
 520 195 l 1
 425 195 l 1
 230 0 l 1
 40 0 l 1
220 320 m 2
 220 290 245 290 270 290 c 2
 520 290 l 1
 520 385 l 1
 270 385 l 2
 245 385 220 385 220 355 c 2
 220 320 l 2
EndSplineSet
Validated: 1
EndChar

StartChar: afii10108
Encoding: 1115 1115 335
Width: 780
VWidth: 0
Flags: W
HStem: 0 21G<100 260 560 720> 310 95<260 557.305> 500 80<20 100 260 480> 640 20G<100 260>
VStem: 100 160<0 310 405 500 580 660> 560 160<0 305.426>
LayerCount: 2
Fore
SplineSet
20 500 m 1
 20 580 l 1
 100 580 l 1
 100 660 l 1
 260 660 l 1
 260 580 l 1
 480 580 l 1
 480 500 l 1
 260 500 l 1
 260 405 l 1
 520 405 l 2
 620 405 720 405 720 290 c 2
 720 0 l 1
 560 0 l 1
 560 280 l 2
 560 310 535 310 510 310 c 2
 260 310 l 1
 260 0 l 1
 100 0 l 1
 100 500 l 1
 20 500 l 1
EndSplineSet
Validated: 1
EndChar

StartChar: afii10091
Encoding: 1097 1097 336
Width: 1020
VWidth: 0
Flags: MW
HStem: 0 95<220 400 560 740> 460 20G<60 220 400 560 740 900>
VStem: 60 340 60 160<95 480> 400 340 400 160<95 480> 740 160<95 480> 860 130<-125 0>
LayerCount: 2
Fore
SplineSet
60 0 m 1xd5
 60 480 l 1x20
 220 480 l 1
 220 95 l 1
 400 95 l 1
 400 480 l 1x08
 560 480 l 1
 560 95 l 1
 740 95 l 1
 740 480 l 1
 900 480 l 1
 900 95 l 1xd6
 990 95 l 1
 990 -125 l 1
 860 -125 l 1
 860 0 l 1
 60 0 l 1xd5
EndSplineSet
Validated: 1
EndChar

StartChar: afii10021
Encoding: 1044 1044 337
Width: 1060
VWidth: 0
Flags: MW
HStem: 0 110<380 730> 550 110<430 730>
VStem: 40 150<-150 0> 260 170<185.093 550> 730 170<110 550> 870 150<-150 0>
LayerCount: 2
Fore
SplineSet
40 110 m 1xf4
 185 110 260 150 260 285 c 2
 260 660 l 1
 900 660 l 1
 900 110 l 1xf8
 1020 110 l 1
 1020 -150 l 1
 870 -150 l 1
 870 0 l 1
 190 0 l 1
 190 -150 l 1
 40 -150 l 1
 40 110 l 1xf4
380 110 m 1
 730 110 l 1
 730 550 l 1
 430 550 l 1
 430 285 l 2
 430 200 410 155 380 110 c 1
EndSplineSet
Validated: 1
EndChar

StartChar: afii10089
Encoding: 1095 1095 338
Width: 740
VWidth: 0
Flags: W
HStem: 0 21G<520 680> 175 95<222.695 520> 460 20G<60 220 520 680>
VStem: 60 160<274.574 480> 520 160<0 175 270 480>
LayerCount: 2
Fore
SplineSet
60 290 m 2
 60 480 l 1
 220 480 l 1
 220 300 l 2
 220 270 245 270 270 270 c 2
 520 270 l 1
 520 480 l 1
 680 480 l 1
 680 0 l 1
 520 0 l 1
 520 175 l 1
 260 175 l 2
 160 175 60 175 60 290 c 2
EndSplineSet
Validated: 1
EndChar

StartChar: afii10079
Encoding: 1085 1085 339
Width: 740
VWidth: 0
Flags: W
HStem: 0 21G<60 220 520 680> 205 95<220 520> 460 20G<60 220 520 680>
VStem: 60 160<0 205 300 480> 520 160<0 205 300 480>
LayerCount: 2
Fore
SplineSet
60 0 m 1
 60 480 l 1
 220 480 l 1
 220 300 l 1
 520 300 l 1
 520 480 l 1
 680 480 l 1
 680 0 l 1
 520 0 l 1
 520 205 l 1
 220 205 l 1
 220 0 l 1
 60 0 l 1
EndSplineSet
Validated: 1
EndChar

StartChar: afii10106
Encoding: 1113 1113 340
Width: 1080
VWidth: 0
Flags: W
HStem: 0 95<30 88.3374 600 857.305> 205 95<600 857.305> 385 95<300 440>
VStem: 140 160<143.125 385> 440 160<95 205 300 385> 860 160<99.5743 200.426>
LayerCount: 2
Fore
SplineSet
30 0 m 1
 30 95 l 1
 120 110 140 165 140 225 c 2
 140 480 l 1
 600 480 l 1
 600 300 l 1
 820 300 l 2
 920 300 1020 300 1020 185 c 2
 1020 115 l 2
 1020 0 920 0 820 0 c 2
 440 0 l 1
 440 385 l 1
 300 385 l 1
 300 225 l 2
 300 20 120 5 30 0 c 1
600 95 m 1
 810 95 l 2
 835 95 860 95 860 125 c 2
 860 175 l 2
 860 205 835 205 810 205 c 2
 600 205 l 1
 600 95 l 1
EndSplineSet
Validated: 1
EndChar

StartChar: afii10044
Encoding: 1066 1066 342
Width: 1080
VWidth: 0
Flags: MW
HStem: 0 110<440 836.709> 305 110<440 836.709> 550 110<30 270>
VStem: 30 21G 270 170<110 305 415 550> 840 170<116.892 298.108>
LayerCount: 2
Fore
SplineSet
30 550 m 1
 30 660 l 1
 440 660 l 1
 440 415 l 1
 770 415 l 2
 890 415 1010 415 1010 280 c 2
 1010 135 l 2
 1010 0 890 0 770 0 c 2
 270 0 l 1
 270 550 l 1
 30 550 l 1
440 110 m 1
 780 110 l 2
 810 110 840 110 840 145 c 2
 840 270 l 2
 840 305 810 305 780 305 c 2
 440 305 l 1
 440 110 l 1
EndSplineSet
Validated: 1
EndChar

StartChar: afii10060
Encoding: 1035 1035 343
Width: 1180
VWidth: 0
Flags: W
HStem: 0 21G<370 540 940 1110> 305 110<540 936.709> 550 110<30 370 540 880>
VStem: 370 170<0 305 415 550> 940 170<0 298.108>
LayerCount: 2
Fore
SplineSet
30 550 m 1
 30 660 l 1
 880 660 l 1
 880 550 l 1
 540 550 l 1
 540 415 l 1
 870 415 l 2
 990 415 1110 415 1110 280 c 2
 1110 0 l 1
 940 0 l 1
 940 270 l 2
 940 305 910 305 880 305 c 2
 540 305 l 1
 540 0 l 1
 370 0 l 1
 370 550 l 1
 30 550 l 1
EndSplineSet
Validated: 1
EndChar

StartChar: endash
Encoding: 8211 8211 352
Width: 500
VWidth: 0
Flags: MW
HStem: 180 120<20 480>
VStem: 20 460
LayerCount: 2
Fore
SplineSet
20 180 m 1
 20 300 l 1
 480 300 l 1
 480 180 l 1
 20 180 l 1
EndSplineSet
Validated: 1
EndChar

StartChar: figuredash
Encoding: 8210 8210 355
Width: 910
VWidth: 0
Flags: MW
HStem: 180 120<210 700>
VStem: 210 490
LayerCount: 2
Fore
SplineSet
210 180 m 1
 210 300 l 1
 700 300 l 1
 700 180 l 1
 210 180 l 1
EndSplineSet
Validated: 1
EndChar

StartChar: guilsinglleft
Encoding: 8249 8249 356
Width: 470
VWidth: 0
Flags: MW
HStem: 40 400
VStem: 60 350
LayerCount: 2
Fore
SplineSet
60 240 m 1
 260 440 l 1
 410 440 l 1
 230 240 l 1
 410 40 l 1
 260 40 l 1
 60 240 l 1
EndSplineSet
Validated: 1
EndChar

StartChar: quotereversed
Encoding: 8219 8219 357
Width: 350
VWidth: 0
Flags: MW
HStem: 410 250<75 275>
VStem: 75 200<410 660>
LayerCount: 2
Fore
SplineSet
75 660 m 1
 225 660 l 1
 275 410 l 1
 175 410 l 1
 75 660 l 1
EndSplineSet
Validated: 1
EndChar

StartChar: guilsinglright
Encoding: 8250 8250 358
Width: 470
VWidth: 0
Flags: MW
HStem: 40 400
VStem: 60 350
LayerCount: 2
Fore
SplineSet
60 40 m 1
 240 240 l 1
 60 440 l 1
 210 440 l 1
 410 240 l 1
 210 40 l 1
 60 40 l 1
EndSplineSet
Validated: 1
EndChar

StartChar: quoteleft
Encoding: 8216 8216 360
Width: 350
VWidth: 0
Flags: MW
HStem: 410 250<75 275>
VStem: 75 200<410 660>
LayerCount: 2
Fore
SplineSet
75 410 m 1
 175 660 l 1
 275 660 l 1
 225 410 l 1
 75 410 l 1
EndSplineSet
Validated: 1
EndChar

StartChar: quoteright
Encoding: 8217 8217 361
Width: 350
VWidth: 0
Flags: MW
HStem: 410 250<75 275>
VStem: 75 200<410 660>
LayerCount: 2
Fore
SplineSet
75 410 m 1
 125 660 l 1
 275 660 l 1
 175 410 l 1
 75 410 l 1
EndSplineSet
Validated: 1
EndChar

StartChar: quotesinglbase
Encoding: 8218 8218 362
Width: 350
VWidth: 0
Flags: MW
HStem: -130 250<75 275>
VStem: 75 200<-130 120>
LayerCount: 2
Fore
SplineSet
75 -130 m 1
 125 120 l 1
 275 120 l 1
 175 -130 l 1
 75 -130 l 1
EndSplineSet
Validated: 1
EndChar

StartChar: emdash
Encoding: 8212 8212 364
Width: 1000
VWidth: 0
Flags: M
HStem: 180 120<20 980>
VStem: 20 960
LayerCount: 2
Fore
SplineSet
20 180 m 1
 20 300 l 1
 980 300 l 1
 980 180 l 1
 20 180 l 1
EndSplineSet
Validated: 1
EndChar

StartChar: afii57929
Encoding: 700 700 365
Width: 330
VWidth: 0
Flags: MW
HStem: 460 200<125 165>
VStem: 75 180
LayerCount: 2
Fore
SplineSet
75 460 m 1
 125 660 l 1
 255 660 l 1
 175 460 l 1
 75 460 l 1
EndSplineSet
Validated: 1
EndChar

StartChar: uni0326
Encoding: 806 806 366
Width: 0
VWidth: 0
Flags: MW
HStem: -225 155
VStem: -465 180
LayerCount: 2
Fore
SplineSet
-465 -225 m 1
 -425 -70 l 1
 -285 -70 l 1
 -355 -225 l 1
 -465 -225 l 1
EndSplineSet
Validated: 1
EndChar

StartChar: uni0237
Encoding: 567 567 392
Width: 280
VWidth: 0
Flags: MW
HStem: -225 95<-50 8.3374> 460 20G<60 220>
VStem: -50 21G 60 160<-81.875 480>
LayerCount: 2
Fore
SplineSet
-50 -130 m 1
 40 -115 60 -60 60 0 c 2
 60 480 l 1
 220 480 l 1
 220 0 l 2
 220 -205 40 -220 -50 -225 c 1
 -50 -130 l 1
EndSplineSet
Validated: 1
EndChar

StartChar: Hbar
Encoding: 294 294 405
Width: 990
VWidth: 0
Flags: W
HStem: 0 21G<100 270 720 890> 305 110<270 720> 500 95<20 100 270 720 890 970> 640 20G<100 270 720 890>
VStem: 100 170<0 305 415 500 595 660> 720 170<0 305 415 500 595 660>
LayerCount: 2
Fore
SplineSet
20 500 m 1
 20 595 l 1
 100 595 l 1
 100 660 l 1
 270 660 l 1
 270 595 l 1
 720 595 l 1
 720 660 l 1
 890 660 l 1
 890 595 l 1
 970 595 l 1
 970 500 l 1
 890 500 l 1
 890 0 l 1
 720 0 l 1
 720 305 l 1
 270 305 l 1
 270 0 l 1
 100 0 l 1
 100 500 l 1
 20 500 l 1
270 415 m 1
 720 415 l 1
 720 500 l 1
 270 500 l 1
 270 415 l 1
EndSplineSet
Validated: 1
EndChar

StartChar: hbar
Encoding: 295 295 406
Width: 760
VWidth: 0
Flags: W
HStem: 0 21G<80 240 540 700> 385 95<240 537.305> 535 80<20 80 240 390> 640 20G<80 240>
VStem: 80 160<0 385 480 535 615 660> 540 160<0 380.426>
LayerCount: 2
Fore
SplineSet
20 535 m 1
 20 615 l 1
 80 615 l 1
 80 660 l 1
 240 660 l 1
 240 615 l 1
 390 615 l 1
 390 535 l 1
 240 535 l 1
 240 480 l 1
 500 480 l 2
 600 480 700 480 700 365 c 2
 700 0 l 1
 540 0 l 1
 540 355 l 2
 540 385 515 385 490 385 c 2
 240 385 l 1
 240 0 l 1
 80 0 l 1
 80 535 l 1
 20 535 l 1
EndSplineSet
Validated: 1
EndChar

StartChar: Tbar
Encoding: 358 358 415
Width: 910
VWidth: 0
Flags: W
HStem: 0 21G<370 540> 310 95<170 370 540 740> 550 110<30 370 540 880>
VStem: 370 170<0 310 405 550>
LayerCount: 2
Fore
SplineSet
30 550 m 1
 30 660 l 1
 880 660 l 1
 880 550 l 1
 540 550 l 1
 540 405 l 1
 740 405 l 1
 740 310 l 1
 540 310 l 1
 540 0 l 1
 370 0 l 1
 370 310 l 1
 170 310 l 1
 170 405 l 1
 370 405 l 1
 370 550 l 1
 30 550 l 1
EndSplineSet
Validated: 1
EndChar

StartChar: tbar
Encoding: 359 359 416
Width: 500
VWidth: 0
Flags: W
HStem: 0 95<242.695 440> 220 80<20 80 240 390> 385 95<240 440> 640 20G<80 240>
VStem: 80 160<99.5743 220 300 385 480 660>
LayerCount: 2
Fore
SplineSet
20 220 m 1
 20 300 l 1
 80 300 l 1
 80 660 l 1
 240 660 l 1
 240 480 l 1
 440 480 l 1
 440 385 l 1
 240 385 l 1
 240 300 l 1
 390 300 l 1
 390 220 l 1
 240 220 l 1
 240 125 l 2
 240 95 265 95 290 95 c 2
 440 95 l 1
 440 0 l 1
 280 0 l 2
 180 0 80 0 80 115 c 2
 80 220 l 1
 20 220 l 1
EndSplineSet
Validated: 1
EndChar

StartChar: kgreenlandic
Encoding: 312 312 417
Width: 670
VWidth: 0
Flags: W
HStem: 0 21G<60 220 440 650> 460 20G<60 220 420 630>
VStem: 60 160<0 70 260 480>
LayerCount: 2
Fore
SplineSet
60 0 m 1
 60 480 l 1
 220 480 l 1
 220 260 l 1
 440 480 l 1
 630 480 l 1
 400 250 l 1
 650 0 l 1
 460 0 l 1
 305 155 l 1
 220 70 l 1
 220 0 l 1
 60 0 l 1
EndSplineSet
Validated: 1
EndChar

StartChar: Eng
Encoding: 330 330 419
Width: 930
VWidth: 0
Flags: W
HStem: -225 110<540 612.04> 0 21G<70 240> 640 20G<70 278.298 690 860>
VStem: 70 170<0 470> 690 170<190 660>
LayerCount: 2
Fore
SplineSet
70 0 m 1
 70 660 l 1
 260 660 l 1
 690 190 l 1
 690 660 l 1
 860 660 l 1
 860 0 l 2
 860 -160 716 -225 540 -225 c 1
 540 -115 l 1
 600 -110 670 -80 670 0 c 1
 240 470 l 1
 240 0 l 1
 70 0 l 1
EndSplineSet
Validated: 1
EndChar

StartChar: eng
Encoding: 331 331 420
Width: 740
VWidth: 0
Flags: W
HStem: -225 95<410 468.337> 0 21G<60 220> 385 95<220 517.305>
VStem: 60 160<0 385> 520 160<-81.875 380.426>
LayerCount: 2
Fore
SplineSet
60 0 m 1
 60 480 l 1
 480 480 l 2
 580 480 680 480 680 365 c 2
 680 0 l 2
 680 -205 500 -220 410 -225 c 1
 410 -130 l 1
 500 -115 520 -60 520 0 c 2
 520 355 l 2
 520 385 495 385 470 385 c 2
 220 385 l 1
 220 0 l 1
 60 0 l 1
EndSplineSet
Validated: 1
EndChar

StartChar: uni0312
Encoding: 786 786 421
Width: 0
VWidth: 0
Flags: M
HStem: 550 250
VStem: -440 200
LayerCount: 2
Fore
SplineSet
-440 550 m 1
 -340 800 l 1
 -240 800 l 1
 -290 550 l 1
 -440 550 l 1
EndSplineSet
Validated: 1
EndChar

StartChar: Omega
Encoding: 937 937 471
Width: 930
VWidth: 0
Flags: W
HStem: 0 105<50 145 311.289 415 515 618.711 785 880> 555 105<313.433 616.567>
VStem: 70 170<192.135 474.95> 690 170<192.135 474.95>
LayerCount: 2
Fore
SplineSet
50 0 m 1
 50 105 l 1
 145 105 l 1
 100 150 70 220 70 320 c 2
 70 360 l 2
 70 595 220 660 420 660 c 2
 510 660 l 2
 710 660 860 595 860 360 c 2
 860 320 l 2
 860 220 830 150 785 105 c 1
 880 105 l 1
 880 0 l 1
 515 0 l 1
 515 105 l 1
 625 105 690 145 690 305 c 2
 690 355 l 2
 690 515 625 555 515 555 c 2
 415 555 l 2
 305 555 240 515 240 355 c 2
 240 305 l 2
 240 145 305 105 415 105 c 1
 415 0 l 1
 50 0 l 1
EndSplineSet
Validated: 1
EndChar

StartChar: dieresistonos
Encoding: 901 901 472
Width: 500
VWidth: 0
Flags: MW
HStem: 575 110<60 195 305 440> 730 160<230 270>
VStem: 60 135<575 685> 305 135<575 685>
LayerCount: 2
Fore
SplineSet
60 575 m 1
 60 685 l 1
 195 685 l 1
 195 575 l 1
 60 575 l 1
305 575 m 1
 305 685 l 1
 440 685 l 1
 440 575 l 1
 305 575 l 1
160 730 m 1
 230 890 l 1
 370 890 l 1
 270 730 l 1
 160 730 l 1
EndSplineSet
Validated: 1
EndChar

StartChar: Xi
Encoding: 926 926 473
Width: 930
VWidth: 0
Flags: MW
HStem: 0 110<240 690> 300 110<240 690> 550 110<240 690>
VStem: 70 170<110 220 480 550> 690 170<110 220 480 550>
LayerCount: 2
Fore
SplineSet
70 0 m 1
 70 220 l 1
 240 220 l 1
 240 110 l 1
 690 110 l 1
 690 220 l 1
 860 220 l 1
 860 0 l 1
 70 0 l 1
70 480 m 1
 70 660 l 1
 860 660 l 1
 860 480 l 1
 690 480 l 1
 690 550 l 1
 240 550 l 1
 240 480 l 1
 70 480 l 1
240 300 m 1
 240 410 l 1
 690 410 l 1
 690 300 l 1
 240 300 l 1
EndSplineSet
Validated: 1
EndChar

StartChar: Gamma
Encoding: 915 915 474
Width: 840
VWidth: 0
Flags: MW
HStem: 0 21G<70 240> 550 110<240 810>
VStem: 70 170<0 550> 790 20G
LayerCount: 2
Fore
SplineSet
70 0 m 1
 70 660 l 1
 810 660 l 1
 810 550 l 1
 240 550 l 1
 240 0 l 1
 70 0 l 1
EndSplineSet
Validated: 1
EndChar

StartChar: Phi
Encoding: 934 934 475
Width: 1050
VWidth: 0
Flags: MW
HStem: 0 21G<440 610> 75 110<243.291 440 610 806.709> 475 110<243.291 440 610 806.709> 640 20G<440 610>
VStem: 70 170<191.892 468.108> 240 200 440 170<0 75 185 475 585 660> 610 200 810 170<191.892 468.108>
CounterMasks: 1 0a80
LayerCount: 2
Fore
SplineSet
70 210 m 2
 70 450 l 2
 70 585 190 585 310 585 c 2
 440 585 l 1
 440 660 l 1
 610 660 l 1
 610 585 l 1
 740 585 l 2
 860 585 980 585 980 450 c 2
 980 210 l 2
 980 75 860 75 740 75 c 2
 610 75 l 1
 610 0 l 1
 440 0 l 1
 440 75 l 1
 310 75 l 2
 190 75 70 75 70 210 c 2
240 220 m 2
 240 185 270 185 300 185 c 2
 440 185 l 1
 440 475 l 1x04
 300 475 l 2
 270 475 240 475 240 440 c 2x04
 240 220 l 2
610 185 m 1
 750 185 l 2
 780 185 810 185 810 220 c 2
 810 440 l 2x01
 810 475 780 475 750 475 c 2
 610 475 l 1x01
 610 185 l 1
EndSplineSet
Validated: 1
EndChar

StartChar: Sigma
Encoding: 931 931 476
Width: 880
VWidth: 0
Flags: MW
HStem: 0 110<280 810> 550 110<280 810>
VStem: 70 740
LayerCount: 2
Fore
SplineSet
70 0 m 1
 70 110 l 1
 290 330 l 1
 70 550 l 1
 70 660 l 1
 810 660 l 1
 810 550 l 1
 280 550 l 1
 500 330 l 1
 280 110 l 1
 810 110 l 1
 810 0 l 1
 70 0 l 1
EndSplineSet
Validated: 1
EndChar

StartChar: Delta
Encoding: 916 916 477
Width: 930
VWidth: 0
Flags: W
HStem: 0 111<245 685> 640 20G<340 590>
LayerCount: 2
Fore
SplineSet
20 0 m 1
 350 660 l 1
 580 660 l 1
 910 0 l 1
 20 0 l 1
245 111 m 1
 685 111 l 1
 465 550 l 1
 245 111 l 1
EndSplineSet
Validated: 1
EndChar

StartChar: Theta
Encoding: 920 920 478
Width: 930
VWidth: 0
Flags: W
HStem: 0 110<243.291 686.709> 300 110<340 590> 550 110<243.291 686.709>
VStem: 70 170<116.892 543.108> 690 170<116.892 543.108>
LayerCount: 2
Fore
SplineSet
70 135 m 2
 70 525 l 2
 70 660 190 660 310 660 c 2
 620 660 l 2
 740 660 860 660 860 525 c 2
 860 135 l 2
 860 0 740 0 620 0 c 2
 310 0 l 2
 190 0 70 0 70 135 c 2
240 145 m 2
 240 110 270 110 300 110 c 2
 630 110 l 2
 660 110 690 110 690 145 c 2
 690 515 l 2
 690 550 660 550 630 550 c 2
 300 550 l 2
 270 550 240 550 240 515 c 2
 240 145 l 2
340 300 m 1
 340 410 l 1
 590 410 l 1
 590 300 l 1
 340 300 l 1
EndSplineSet
Validated: 1
EndChar

StartChar: tonos
Encoding: 900 900 479
Width: 500
VWidth: 0
Flags: MW
HStem: 550 160
VStem: 160 210
LayerCount: 2
Fore
SplineSet
160 550 m 1
 230 710 l 1
 370 710 l 1
 270 550 l 1
 160 550 l 1
EndSplineSet
Validated: 1
EndChar

StartChar: Psi
Encoding: 936 936 480
Width: 1050
VWidth: 0
Flags: MW
HStem: 0 21G<440 610> 195 110<243.291 440 610 806.709> 640 20G<70 240 440 610 810 980>
VStem: 70 370 70 170<311.892 660> 440 370 440 170<0 195 305 660> 810 170<311.892 660>
CounterMasks: 1 0b
LayerCount: 2
Fore
SplineSet
70 330 m 2
 70 660 l 1x10
 240 660 l 1
 240 340 l 2
 240 305 270 305 300 305 c 2
 440 305 l 1
 440 660 l 1x04
 610 660 l 1
 610 305 l 1
 750 305 l 2
 780 305 810 305 810 340 c 2
 810 660 l 1
 980 660 l 1
 980 330 l 2
 980 195 860 195 740 195 c 2
 610 195 l 1
 610 0 l 1
 440 0 l 1
 440 195 l 1
 310 195 l 2
 190 195 70 195 70 330 c 2
EndSplineSet
Validated: 1
EndChar

StartChar: Lambda
Encoding: 923 923 481
Width: 930
VWidth: 0
Flags: W
HStem: 0 21G<20 200 730 910> 640 20G<340 590>
LayerCount: 2
Fore
SplineSet
20 0 m 1
 350 660 l 1
 580 660 l 1
 910 0 l 1
 740 0 l 1
 465 550 l 1
 190 0 l 1
 20 0 l 1
EndSplineSet
Validated: 1
EndChar

StartChar: Pi
Encoding: 928 928 489
Width: 930
VWidth: 0
Flags: W
HStem: 0 21G<70 240 690 860> 550 110<240 690>
VStem: 70 170<0 550> 690 170<0 550>
LayerCount: 2
Fore
SplineSet
70 0 m 1
 70 660 l 1
 860 660 l 1
 860 0 l 1
 690 0 l 1
 690 550 l 1
 240 550 l 1
 240 0 l 1
 70 0 l 1
EndSplineSet
Validated: 1
EndChar

StartChar: uni20AF
Encoding: 8367 8367 492
Width: 1390
VWidth: 0
Flags: W
HStem: -225 21G<800 960> 0 110<240 445.437> 0 95<960 1157.3> 385 95<962.695 1157.3> 555 105<240 445.437>
VStem: 70 170<110 555> 560 170<214.575 450.097> 800 160<-225 0 95 380.426> 1160 160<99.5743 380.426>
LayerCount: 2
Fore
SplineSet
70 0 m 1xbf80
 70 660 l 1
 370 660 l 2
 550 660 730 580 730 355 c 2
 730 310 l 2
 730 85 550 0 370 0 c 2xdf80
 70 0 l 1xbf80
240 110 m 1
 320 110 l 2
 440 110 560 150 560 310 c 2
 560 355 l 2
 560 515 440 555 320 555 c 2
 240 555 l 1
 240 110 l 1
800 -225 m 1
 800 365 l 2
 800 480 900 480 1000 480 c 2
 1120 480 l 2
 1220 480 1320 480 1320 365 c 2
 1320 115 l 2
 1320 0 1220 0 1120 0 c 2
 960 0 l 1xbf80
 960 -225 l 1
 800 -225 l 1
960 95 m 1
 1110 95 l 2
 1135 95 1160 95 1160 125 c 2
 1160 355 l 2
 1160 385 1135 385 1110 385 c 2
 1010 385 l 2
 985 385 960 385 960 355 c 2
 960 95 l 1
EndSplineSet
Validated: 1
EndChar

StartChar: uni037A
Encoding: 890 890 493
Width: 500
VWidth: 0
Flags: W
HStem: -225 65<281.329 340>
VStem: 170 110<-157.887 -50>
LayerCount: 2
Fore
SplineSet
170 -50 m 1
 280 -50 l 1
 280 -135 l 2
 280 -160 300 -160 320 -160 c 2
 340 -160 l 1
 340 -225 l 1
 255 -225 170 -225 170 -130 c 2
 170 -50 l 1
EndSplineSet
Validated: 1
EndChar

StartChar: lambda
Encoding: 955 955 494
Width: 670
VWidth: 0
Flags: MW
HStem: 0 21G<30 190 480 640> 565 95<150 207.898>
VStem: 70 21G
LayerCount: 2
Fore
SplineSet
20 0 m 1
 250 460 l 1
 215 530 l 2
 200 560 195 565 150 565 c 2
 70 565 l 1
 70 660 l 1
 220 660 l 2
 315 660 340 620 370 560 c 2
 650 0 l 1
 480 0 l 1
 335 290 l 1
 190 0 l 1
 20 0 l 1
EndSplineSet
Validated: 1
EndChar

StartChar: gamma
Encoding: 947 947 495
Width: 720
VWidth: 0
Flags: W
HStem: -225 21G<280 440> 460 20G<20 200 520 700>
VStem: 280 160<-225 -40>
LayerCount: 2
Fore
SplineSet
20 480 m 1
 190 480 l 1
 360 140 l 1
 530 480 l 1
 700 480 l 1
 440 -40 l 1
 440 -225 l 1
 280 -225 l 1
 280 -40 l 1
 20 480 l 1
EndSplineSet
Validated: 1
EndChar

StartChar: iota
Encoding: 953 953 496
Width: 360
VWidth: 0
Flags: MW
HStem: 0 95<222.695 300> 460 20G<60 220>
VStem: 60 160<99.5743 480> 280 20G
LayerCount: 2
Fore
SplineSet
60 115 m 2
 60 480 l 1
 220 480 l 1
 220 125 l 2
 220 95 245 95 270 95 c 2
 300 95 l 1
 300 0 l 1
 260 0 l 1
 160 0 60 0 60 115 c 2
EndSplineSet
Validated: 1
EndChar

StartChar: sigma
Encoding: 963 963 497
Width: 880
VWidth: 0
Flags: MW
HStem: 0 95<222.695 517.305> 385 95<222.695 519.135 680 820>
VStem: 60 160<99.5743 380.426> 520 160<99.5743 382.989> 800 20G
LayerCount: 2
Fore
SplineSet
60 115 m 2
 60 365 l 2
 60 480 160 480 260 480 c 2
 820 480 l 1
 820 385 l 1
 680 385 l 1
 680 115 l 2
 680 0 580 0 480 0 c 2
 260 0 l 2
 160 0 60 0 60 115 c 2
220 125 m 2
 220 95 245 95 270 95 c 2
 470 95 l 2
 495 95 520 95 520 125 c 2
 520 355 l 2
 520 385 495 385 470 385 c 2
 270 385 l 2
 245 385 220 385 220 355 c 2
 220 125 l 2
EndSplineSet
Validated: 1
EndChar

StartChar: tau
Encoding: 964 964 498
Width: 720
VWidth: 0
Flags: MW
HStem: 0 95<442.695 520> 385 95<60 280 440 660>
VStem: 280 160<99.5743 385> 500 20G
LayerCount: 2
Fore
SplineSet
520 0 m 1
 480 0 l 1
 380 0 280 0 280 115 c 1
 280 385 l 1
 60 385 l 1
 60 480 l 1
 660 480 l 1
 660 385 l 1
 440 385 l 1
 440 125 l 1
 440 95 465 95 490 95 c 2
 520 95 l 1
 520 0 l 1
EndSplineSet
Validated: 1
EndChar

StartChar: epsilon
Encoding: 949 949 499
Width: 700
VWidth: 0
Flags: W
HStem: 0 95<222.695 640> 205 95<220.865 560> 385 95<222.695 640>
VStem: 60 160<99.5743 202.872 303.386 380.426>
LayerCount: 2
Fore
SplineSet
60 115 m 2
 60 175 l 2
 60 230 95 255 135 265 c 1
 95 275 60 300 60 355 c 2
 60 365 l 2
 60 480 160 480 260 480 c 2
 640 480 l 1
 640 385 l 1
 270 385 l 2
 245 385 220 385 220 355 c 2
 220 330 l 2
 220 300 245 300 270 300 c 2
 560 300 l 1
 560 205 l 1
 270 205 l 2
 245 205 220 205 220 175 c 2
 220 125 l 2
 220 95 245 95 270 95 c 2
 640 95 l 1
 640 0 l 1
 260 0 l 2
 160 0 60 0 60 115 c 2
EndSplineSet
EndChar

StartChar: eta
Encoding: 951 951 501
Width: 740
VWidth: 0
Flags: W
HStem: -225 21G<520 680> 0 21G<60 220> 385 95<220 517.305>
VStem: 60 160<0 385> 520 160<-225 380.426>
LayerCount: 2
Fore
SplineSet
60 0 m 1
 60 480 l 1
 480 480 l 2
 580 480 680 480 680 365 c 2
 680 -225 l 1
 520 -225 l 1
 520 355 l 2
 520 385 495 385 470 385 c 2
 220 385 l 1
 220 0 l 1
 60 0 l 1
EndSplineSet
Validated: 1
EndChar

StartChar: upsilon
Encoding: 965 965 502
Width: 740
VWidth: 0
Flags: W
HStem: 0 95<222.695 498.314> 460 20G<60 220 520 680>
VStem: 60 160<99.5743 480> 520 160<120.586 480>
LayerCount: 2
Fore
SplineSet
60 115 m 2
 60 480 l 1
 220 480 l 1
 220 125 l 2
 220 95 245 95 270 95 c 2
 390 95 l 2
 455 95 520 95 520 170 c 2
 520 480 l 1
 680 480 l 1
 680 180 l 2
 680 0 520 0 360 0 c 2
 260 0 l 2
 160 0 60 0 60 115 c 2
EndSplineSet
Validated: 1
EndChar

StartChar: pi
Encoding: 960 960 504
Width: 860
VWidth: 0
Flags: W
HStem: 0 21G<200 360 500 660> 385 95<60 200 360 500 660 800>
VStem: 200 160<0 385> 500 160<0 385>
LayerCount: 2
Fore
SplineSet
60 385 m 1
 60 480 l 1
 800 480 l 1
 800 385 l 1
 660 385 l 1
 660 0 l 1
 500 0 l 1
 500 385 l 1
 360 385 l 1
 360 0 l 1
 200 0 l 1
 200 385 l 1
 60 385 l 1
EndSplineSet
Validated: 1
EndChar

StartChar: mu
Encoding: 956 956 505
Width: 740
VWidth: 0
Flags: W
HStem: -225 21G<60 220> 0 95<220.865 517.305> 460 20G<60 220 520 680>
VStem: 60 160<-225 0 97.0114 480> 520 160<99.5743 480>
LayerCount: 2
Fore
SplineSet
60 -225 m 1
 60 480 l 1
 220 480 l 1
 220 125 l 2
 220 95 245 95 270 95 c 2
 470 95 l 2
 495 95 520 95 520 125 c 2
 520 480 l 1
 680 480 l 1
 680 115 l 2
 680 0 580 0 480 0 c 2
 220 0 l 1
 220 -225 l 1
 60 -225 l 1
EndSplineSet
Validated: 1
EndChar

StartChar: rho
Encoding: 961 961 506
Width: 740
VWidth: 0
Flags: W
HStem: -225 21G<60 220> 0 95<220 517.305> 385 95<222.695 517.305>
VStem: 60 160<-225 0 95 380.426> 520 160<99.5743 380.426>
LayerCount: 2
Fore
SplineSet
60 -225 m 1
 60 365 l 2
 60 480 160 480 260 480 c 2
 480 480 l 2
 580 480 680 480 680 365 c 2
 680 115 l 2
 680 0 580 0 480 0 c 2
 220 0 l 1
 220 -225 l 1
 60 -225 l 1
220 95 m 1
 470 95 l 2
 495 95 520 95 520 125 c 2
 520 355 l 2
 520 385 495 385 470 385 c 2
 270 385 l 2
 245 385 220 385 220 355 c 2
 220 95 l 1
EndSplineSet
Validated: 1
EndChar

StartChar: theta
Encoding: 952 952 507
Width: 740
VWidth: 0
Flags: W
HStem: 0 95<222.695 517.305> 305 95<220 520> 565 95<222.695 517.305>
VStem: 60 160<99.5743 305 400 560.426> 520 160<99.5743 305 400 560.426>
LayerCount: 2
Fore
SplineSet
60 115 m 2
 60 545 l 2
 60 660 160 660 260 660 c 2
 480 660 l 2
 580 660 680 660 680 545 c 2
 680 115 l 2
 680 0 580 0 480 0 c 2
 260 0 l 2
 160 0 60 0 60 115 c 2
220 125 m 2
 220 95 245 95 270 95 c 2
 470 95 l 2
 495 95 520 95 520 125 c 2
 520 305 l 1
 220 305 l 1
 220 125 l 2
220 400 m 1
 520 400 l 1
 520 535 l 2
 520 565 495 565 470 565 c 2
 270 565 l 2
 245 565 220 565 220 535 c 2
 220 400 l 1
EndSplineSet
Validated: 1
EndChar

StartChar: beta
Encoding: 946 946 518
Width: 740
VWidth: 0
Flags: W
HStem: -225 21G<60 220> 0 95<220 517.305> 305 95<300 478.17> 565 95<222.695 477.305>
VStem: 60 160<-225 0 95 560.426> 480 160<403.223 560.426> 520 160<99.5743 300.57>
LayerCount: 2
Fore
SplineSet
60 -225 m 1xfc
 60 545 l 2
 60 660 160 660 260 660 c 2
 440 660 l 2
 540 660 640 660 640 545 c 2
 640 450 l 2xfc
 640 385 610 365 570 360 c 1
 610 355 680 345 680 255 c 2
 680 115 l 2xfa
 680 0 580 0 480 0 c 2
 220 0 l 1
 220 -225 l 1
 60 -225 l 1xfc
220 95 m 1
 470 95 l 2
 495 95 520 95 520 125 c 2
 520 275 l 2xfa
 520 305 495 305 470 305 c 2
 300 305 l 1
 300 400 l 1
 430 400 l 2
 455 400 480 400 480 430 c 2
 480 535 l 2
 480 565 455 565 430 565 c 2
 270 565 l 2
 245 565 220 565 220 535 c 2
 220 95 l 1
EndSplineSet
Validated: 1
EndChar

StartChar: sigma1
Encoding: 962 962 519
Width: 700
VWidth: 0
Flags: W
HStem: -225 85<420 469.216> 0 95<222.695 517.813> 385 95<222.695 640>
VStem: 60 160<99.5743 380.426> 520 120<-95.0291 -4.08961>
LayerCount: 2
Fore
SplineSet
60 115 m 2
 60 365 l 2
 60 480 160 480 260 480 c 2
 640 480 l 1
 640 385 l 1
 270 385 l 2
 245 385 220 385 220 355 c 2
 220 125 l 2
 220 95 245 95 270 95 c 2
 440 95 l 2
 540 95 640 95 640 -20 c 0
 640 -160 540 -210 420 -225 c 1
 420 -140 l 1
 490 -120 520 -85 520 -35 c 0
 520 0 490 0 460 0 c 2
 260 0 l 2
 160 0 60 0 60 115 c 2
EndSplineSet
Validated: 1
EndChar

StartChar: phi
Encoding: 966 966 520
Width: 960
VWidth: 0
Flags: MW
HStem: -225 21G<400 560> 0 95<222.695 400 560 737.305> 385 95<562.695 737.305>
VStem: 60 340 60 160<99.5743 460> 400 340 400 160<-225 0 95 380.426> 740 160<99.5743 380.426>
CounterMasks: 1 0b
LayerCount: 2
Fore
SplineSet
60 115 m 2
 60 460 l 1x10
 220 460 l 1
 220 125 l 2
 220 95 245 95 270 95 c 2
 400 95 l 1
 400 365 l 2x04
 400 480 500 480 600 480 c 2
 700 480 l 2
 800 480 900 480 900 365 c 2
 900 115 l 2
 900 0 800 0 700 0 c 2
 560 0 l 1
 560 -225 l 1
 400 -225 l 1
 400 0 l 1
 260 0 l 2
 160 0 60 0 60 115 c 2
560 95 m 1
 690 95 l 2
 715 95 740 95 740 125 c 2
 740 355 l 2
 740 385 715 385 690 385 c 2
 610 385 l 2
 585 385 560 385 560 355 c 2
 560 95 l 1
EndSplineSet
Validated: 1
EndChar

StartChar: psi
Encoding: 968 968 521
Width: 960
VWidth: 0
Flags: MW
HStem: -225 21G<400 560> 0 95<222.695 400 560 737.305> 460 20G<60 220 400 560 740 900>
VStem: 60 340 60 160<99.5743 480> 400 340 400 160<-225 0 95 480> 740 160<99.5743 480>
CounterMasks: 1 0b
LayerCount: 2
Fore
SplineSet
60 115 m 2
 60 480 l 1x10
 220 480 l 1
 220 125 l 2
 220 95 245 95 270 95 c 2
 400 95 l 1
 400 480 l 1x04
 560 480 l 1
 560 95 l 1
 690 95 l 2
 715 95 740 95 740 125 c 2
 740 480 l 1
 900 480 l 1
 900 115 l 2
 900 0 800 0 700 0 c 2
 560 0 l 1
 560 -225 l 1
 400 -225 l 1
 400 0 l 1
 260 0 l 2
 160 0 60 0 60 115 c 2
EndSplineSet
Validated: 1
EndChar

StartChar: delta
Encoding: 948 948 522
Width: 740
VWidth: 0
Flags: W
HStem: 0 95<222.695 517.305> 325 95<222.695 390> 565 95<350 640>
VStem: 60 160<99.5743 320.426> 520 160<99.5743 322.989>
LayerCount: 2
Fore
SplineSet
60 115 m 2
 60 305 l 2
 60 420 160 420 260 420 c 2
 390 420 l 1
 100 555 l 1
 100 660 l 1
 640 660 l 1
 640 565 l 1
 350 565 l 1
 570 465 l 2
 672 419 680 360 680 305 c 2
 680 115 l 2
 680 0 580 0 480 0 c 2
 260 0 l 2
 160 0 60 0 60 115 c 2
220 125 m 2
 220 95 245 95 270 95 c 2
 470 95 l 2
 495 95 520 95 520 125 c 2
 520 295 l 2
 520 325 495 325 470 325 c 2
 270 325 l 2
 245 325 220 325 220 295 c 2
 220 125 l 2
EndSplineSet
Validated: 1
EndChar

StartChar: omega
Encoding: 969 969 523
Width: 1000
VWidth: 0
Flags: MW
HStem: 0 95<222.695 419.135 580.865 777.305> 385 95<271.663 330 670 728.337>
VStem: 60 360 60 160<99.5743 336.875> 420 360 420 160<97.0114 300> 780 160<99.5743 336.875>
CounterMasks: 1 16
LayerCount: 2
Fore
SplineSet
60 115 m 2x20
 60 255 l 2
 60 460 240 475 330 480 c 1
 330 385 l 1
 240 370 220 315 220 255 c 2
 220 125 l 2
 220 95 245 95 270 95 c 2
 370 95 l 2
 395 95 420 95 420 125 c 2
 420 300 l 1x08
 580 300 l 1
 580 125 l 2
 580 95 605 95 630 95 c 2
 730 95 l 2
 755 95 780 95 780 125 c 2
 780 255 l 2
 780 315 760 370 670 385 c 1
 670 480 l 1
 760 475 940 460 940 255 c 2
 940 115 l 2
 940 0 840 0 740 0 c 2
 260 0 l 2
 160 0 60 0 60 115 c 2x20
EndSplineSet
Validated: 1
EndChar

StartChar: chi
Encoding: 967 967 524
Width: 690
VWidth: 0
Flags: W
HStem: -225 21G<20 213.303 476.697 670> 460 20G<20 213.303 476.697 670>
LayerCount: 2
Fore
SplineSet
20 -225 m 1
 255 128 l 1
 20 480 l 1
 200 480 l 1
 345 262 l 1
 490 480 l 1
 670 480 l 1
 435 128 l 1
 670 -225 l 1
 490 -225 l 1
 345 -7 l 1
 200 -225 l 1
 20 -225 l 1
EndSplineSet
Validated: 1
EndChar

StartChar: alpha
Encoding: 945 945 525
Width: 790
VWidth: 0
Flags: MW
HStem: 0 95<222.695 438.886> 385 95<222.695 438.886>
VStem: 60 160<99.5743 380.426> 529 146<217.6 262.4>
LayerCount: 2
Fore
SplineSet
60 115 m 2
 60 365 l 2
 60 480 160 480 260 480 c 2
 365 480 l 2
 455 480 520 460 573 398 c 1
 600 480 l 1
 750 480 l 1
 675 240 l 1
 750 0 l 1
 600 0 l 1
 573 82 l 1
 520 20 455 0 365 0 c 2
 260 0 l 2
 160 0 60 0 60 115 c 2
220 125 m 2
 220 95 245 95 270 95 c 2
 365 95 l 2
 440 95 490 145 529 240 c 1
 490 335 440 385 365 385 c 2
 270 385 l 2
 245 385 220 385 220 355 c 2
 220 125 l 2
EndSplineSet
Validated: 1
EndChar

StartChar: xi
Encoding: 958 958 526
Width: 700
VWidth: 0
Flags: W
HStem: -225 85<420 469.216> 0 95<222.695 517.813> 305 95<220.287 560> 565 95<222.695 640>
VStem: 60 160<99.5743 301.944 403.307 560.426> 520 120<-95.0291 -4.08961>
LayerCount: 2
Fore
SplineSet
60 115 m 2
 60 270 l 2
 60 325 95 350 135 360 c 1
 95 370 60 395 60 450 c 2
 60 545 l 2
 60 660 160 660 260 660 c 2
 640 660 l 1
 640 565 l 1
 270 565 l 2
 245 565 220 565 220 535 c 2
 220 425 l 2
 220 400 255 400 280 400 c 2
 560 400 l 1
 560 305 l 1
 270 305 l 2
 245 305 220 305 220 280 c 2
 220 125 l 2
 220 95 245 95 270 95 c 2
 440 95 l 2
 540 95 640 95 640 -20 c 0
 640 -160 540 -210 420 -225 c 1
 420 -140 l 1
 490 -120 520 -85 520 -35 c 0
 520 0 490 0 460 0 c 2
 260 0 l 2
 160 0 60 0 60 115 c 2
EndSplineSet
Validated: 1
EndChar

StartChar: zeta
Encoding: 950 950 527
Width: 700
VWidth: 0
Flags: W
HStem: -225 85<420 469.216> 0 95<222.695 517.813> 565 95<100 420>
VStem: 60 160<99.5743 307.335> 520 120<-95.0291 -4.08961>
LayerCount: 2
Fore
SplineSet
60 115 m 2
 60 235 l 2
 60 310 60 325 150 385 c 2
 420 565 l 1
 100 565 l 1
 100 660 l 1
 610 660 l 1
 610 555 l 1
 280 335 l 2
 220 295 220 295 220 235 c 2
 220 125 l 2
 220 95 245 95 270 95 c 2
 440 95 l 2
 540 95 640 95 640 -20 c 0
 640 -160 540 -210 420 -225 c 1
 420 -140 l 1
 490 -120 520 -85 520 -35 c 0
 520 0 490 0 460 0 c 2
 260 0 l 2
 160 0 60 0 60 115 c 2
EndSplineSet
Validated: 1
EndChar

StartChar: longs
Encoding: 383 383 541
Width: 580
VWidth: 0
Flags: W
HStem: 0 21G<160 320> 385 95<60 160> 565 95<322.695 520>
VStem: 160 160<0 385 480 560.426>
LayerCount: 2
Fore
SplineSet
60 385 m 1
 60 480 l 1
 160 480 l 1
 160 545 l 2
 160 660 260 660 360 660 c 2
 520 660 l 1
 520 565 l 1
 370 565 l 2
 345 565 320 565 320 535 c 2
 320 0 l 1
 160 0 l 1
 160 385 l 1
 60 385 l 1
EndSplineSet
Validated: 1
EndChar

StartChar: bullet
Encoding: 8226 8226 543
Width: 460
VWidth: 0
Flags: W
HStem: 200 260<100 360>
VStem: 100 260<200 460>
LayerCount: 2
Fore
SplineSet
100 200 m 1
 100 460 l 1
 360 460 l 1
 360 200 l 1
 100 200 l 1
EndSplineSet
EndChar

StartChar: fraction
Encoding: 8260 8260 545
Width: 110
VWidth: 0
Flags: W
HStem: 0 21G<-180 -30> 640 20G<140 290>
LayerCount: 2
Fore
SplineSet
-180 0 m 1
 150 660 l 1
 290 660 l 1
 -40 0 l 1
 -180 0 l 1
EndSplineSet
Validated: 1
EndChar

StartChar: trademark
Encoding: 8482 8482 546
Width: 1170
VWidth: 0
Flags: MW
HStem: 320 21G<210 340 550 680 770 890 980 1110> 590 70<60 210 340 490>
VStem: 210 130<320 590> 550 130<320 520> 980 130<320 520>
LayerCount: 2
Fore
SplineSet
60 590 m 1
 60 660 l 1
 490 660 l 1
 490 590 l 1
 340 590 l 1
 340 320 l 1
 210 320 l 1
 210 590 l 1
 60 590 l 1
550 320 m 1
 550 660 l 1
 720 660 l 1
 830 440 l 1
 940 660 l 1
 1110 660 l 1
 1110 320 l 1
 980 320 l 1
 980 520 l 1
 880 320 l 1
 780 320 l 1
 680 520 l 1
 680 320 l 1
 550 320 l 1
EndSplineSet
Validated: 1
EndChar

StartChar: summation
Encoding: 8721 8721 547
Width: 910
VWidth: 0
Flags: MW
HStem: -225 110<270 840> 550 110<270 840>
VStem: 70 770
LayerCount: 2
Fore
SplineSet
70 -115 m 1
 400 220 l 1
 70 550 l 1
 70 660 l 1
 840 660 l 1
 840 550 l 1
 270 550 l 1
 600 220 l 1
 270 -115 l 1
 840 -115 l 1
 840 -225 l 1
 70 -225 l 1
 70 -115 l 1
EndSplineSet
Validated: 1
EndChar

StartChar: notequal
Encoding: 8800 8800 548
Width: 720
VWidth: 0
Flags: MW
HStem: 60 120<60 215 385 660> 300 120<60 335 505 660>
VStem: 60 600
LayerCount: 2
Fore
SplineSet
450 530 m 1
 538 486 l 1
 505 420 l 1
 660 420 l 1
 660 300 l 1
 445 300 l 1
 385 180 l 1
 660 180 l 1
 660 60 l 1
 325 60 l 1
 270 -50 l 1
 182 -6 l 1
 215 60 l 1
 60 60 l 1
 60 180 l 1
 275 180 l 1
 335 300 l 1
 60 300 l 1
 60 420 l 1
 395 420 l 1
 450 530 l 1
EndSplineSet
Validated: 1
EndChar

StartChar: partialdiff
Encoding: 8706 8706 549
Width: 740
VWidth: 0
Flags: W
HStem: 0 95<222.695 517.305> 340 95<222.695 519.135> 565 95<110 367.582>
VStem: 60 160<99.5743 335.426> 520 160<99.5743 337.989 435 484.196>
LayerCount: 2
Fore
SplineSet
60 115 m 2
 60 320 l 2
 60 435 160 435 260 435 c 2
 520 435 l 1
 520 525 365 565 110 565 c 9
 110 660 l 17
 515 660 680 605 680 410 c 2
 680 115 l 2
 680 0 580 0 480 0 c 2
 260 0 l 2
 160 0 60 0 60 115 c 2
220 125 m 2
 220 95 245 95 270 95 c 2
 470 95 l 2
 495 95 520 95 520 125 c 2
 520 310 l 2
 520 340 495 340 470 340 c 2
 270 340 l 2
 245 340 220 340 220 310 c 2
 220 125 l 2
EndSplineSet
Validated: 1
EndChar

StartChar: radical
Encoding: 8730 8730 550
Width: 740
VWidth: 0
Flags: W
HStem: 295 90<60 180>
LayerCount: 2
Fore
SplineSet
60 295 m 1
 60 385 l 1
 290 385 l 1
 380 115 l 1
 590 745 l 1
 720 745 l 1
 465 -20 l 1
 285 -20 l 1
 180 295 l 1
 60 295 l 1
EndSplineSet
Validated: 1
EndChar

StartChar: minus
Encoding: 8722 8722 551
Width: 720
VWidth: 0
Flags: MW
HStem: 180 120<60 660>
VStem: 60 600
LayerCount: 2
Fore
SplineSet
60 180 m 1
 60 300 l 1
 660 300 l 1
 660 180 l 1
 60 180 l 1
EndSplineSet
Validated: 1
EndChar

StartChar: lessequal
Encoding: 8804 8804 552
Width: 750
VWidth: 0
Flags: MW
HStem: 0 120<60 690> 140 120<570 690> 460 120<664.059 690>
VStem: 60 630
LayerCount: 2
Fore
SplineSet
60 0 m 1
 60 120 l 1
 690 120 l 1
 690 0 l 1
 60 0 l 1
60 310 m 1
 60 410 l 1
 690 580 l 1
 690 460 l 1
 290 360 l 1
 690 260 l 1
 690 140 l 1
 60 310 l 1
EndSplineSet
Validated: 1
EndChar

StartChar: greaterequal
Encoding: 8805 8805 553
Width: 750
VWidth: 0
Flags: MW
HStem: 0 120<60 690> 140 120<60 85.9412> 460 120<60 180>
VStem: 60 630
LayerCount: 2
Fore
SplineSet
60 0 m 1
 60 120 l 1
 690 120 l 1
 690 0 l 1
 60 0 l 1
60 140 m 1
 60 260 l 1
 460 360 l 1
 60 460 l 1
 60 580 l 1
 690 410 l 1
 690 310 l 1
 60 140 l 1
EndSplineSet
Validated: 1
EndChar

StartChar: dagger
Encoding: 8224 8224 554
Width: 680
VWidth: 0
Flags: MW
HStem: -105 21G<260 420> 395 95<60 260 420 620> 640 20G<260 420>
VStem: 260 160<-105 395 490 660>
LayerCount: 2
Fore
SplineSet
60 395 m 1
 60 490 l 1
 260 490 l 1
 260 660 l 1
 420 660 l 1
 420 490 l 1
 620 490 l 1
 620 395 l 1
 420 395 l 1
 420 -105 l 1
 260 -105 l 1
 260 395 l 1
 60 395 l 1
EndSplineSet
Validated: 1
EndChar

StartChar: daggerdbl
Encoding: 8225 8225 555
Width: 680
VWidth: 0
Flags: MW
HStem: -105 21G<260 420> 65 95<60 260 420 620> 395 95<60 260 420 620> 640 20G<260 420>
VStem: 260 160<-105 65 160 395 490 660>
LayerCount: 2
Fore
SplineSet
60 65 m 1
 60 160 l 1
 260 160 l 1
 260 395 l 1
 60 395 l 1
 60 490 l 1
 260 490 l 1
 260 660 l 1
 420 660 l 1
 420 490 l 1
 620 490 l 1
 620 395 l 1
 420 395 l 1
 420 160 l 1
 620 160 l 1
 620 65 l 1
 420 65 l 1
 420 -105 l 1
 260 -105 l 1
 260 65 l 1
 60 65 l 1
EndSplineSet
Validated: 1
EndChar

StartChar: infinity
Encoding: 8734 8734 556
Width: 950
VWidth: 0
Flags: MW
HStem: 90 70<199.901 390.354 559.646 750.099> 360 70<199.901 390.354 559.646 750.099>
VStem: 60 340 60 130<171.513 348.487> 400 360 400 150<171.513 348.487> 760 130<171.513 348.487>
CounterMasks: 1 16
LayerCount: 2
Fore
SplineSet
60 205 m 2
 60 315 l 2x20
 60 430 160 430 260 430 c 2
 335 430 l 2
 395 430 445 430 475 400 c 1
 505 430 555 430 615 430 c 2
 690 430 l 2
 790 430 890 430 890 315 c 2
 890 205 l 2
 890 90 790 90 690 90 c 2
 615 90 l 2
 555 90 505 90 475 120 c 1
 445 90 395 90 335 90 c 2
 260 90 l 2
 160 90 60 90 60 205 c 2
190 215 m 2
 190 160 240 160 290 160 c 2
 300 160 l 2
 350 160 400 160 400 215 c 2
 400 305 l 2x08
 400 360 350 360 300 360 c 2
 290 360 l 2
 240 360 190 360 190 305 c 2
 190 215 l 2
550 215 m 2
 550 160 600 160 650 160 c 2
 660 160 l 2
 710 160 760 160 760 215 c 2
 760 305 l 2
 760 360 710 360 660 360 c 2
 650 360 l 2
 600 360 550 360 550 305 c 2
 550 215 l 2
EndSplineSet
Validated: 1
EndChar

StartChar: florin
Encoding: 402 402 557
Width: 580
VWidth: 0
Flags: W
HStem: -225 95<20 157.305> 385 95<60 160 320 520> 565 95<322.695 520>
VStem: 160 160<-125.426 385 480 560.426>
LayerCount: 2
Fore
SplineSet
20 -130 m 1
 110 -130 l 2
 135 -130 160 -130 160 -100 c 2
 160 385 l 1
 60 385 l 1
 60 480 l 1
 160 480 l 1
 160 545 l 2
 160 660 260 660 360 660 c 2
 520 660 l 1
 520 565 l 1
 370 565 l 2
 345 565 320 565 320 535 c 2
 320 480 l 1
 520 480 l 1
 520 385 l 1
 320 385 l 1
 320 -110 l 2
 320 -225 220 -225 120 -225 c 2
 20 -225 l 1
 20 -130 l 1
EndSplineSet
Validated: 1
EndChar

StartChar: afii61289
Encoding: 8467 8467 559
Width: 665
VWidth: 0
Flags: W
HStem: 0 95<322.695 535.391> 225 95<60 160 320 458.08> 565 95<322.695 458.08>
VStem: 160 160<99.5743 225 320 560.426> 460 110<324.574 560.426> 570 35<131.908 170>
LayerCount: 2
Fore
SplineSet
60 225 m 1xf4
 60 320 l 1
 160 320 l 1
 160 545 l 2
 160 660 260 660 360 660 c 2
 410 660 l 2
 490 660 570 660 570 545 c 2
 570 340 l 2xf8
 570 225 490 225 410 225 c 2
 320 225 l 1
 320 125 l 2
 320 95 345 95 370 95 c 2
 465 95 l 2
 520 95 570 130 570 170 c 1
 605 170 l 1
 605 100 580 0 465 0 c 2
 360 0 l 2
 260 0 160 0 160 115 c 2
 160 225 l 1
 60 225 l 1xf4
320 320 m 1
 410 320 l 2
 435 320 460 320 460 350 c 2
 460 535 l 2
 460 565 435 565 410 565 c 2
 370 565 l 2
 345 565 320 565 320 535 c 2
 320 320 l 1
EndSplineSet
Validated: 1
EndChar

StartChar: estimated
Encoding: 8494 8494 561
Width: 700
VWidth: 0
Flags: MW
HStem: 0 50<241.499 460.873> 225 50<200 500> 430 50<241.499 458.501>
VStem: 60 140<152.224 225 275 328.188> 500 140<275 327.776>
LayerCount: 2
Fore
SplineSet
60 240 m 0
 60 373 190 480 350 480 c 0
 510 480 640 372 640 240 c 2
 640 225 l 1
 200 225 l 1
 200 92 l 1
 241 66 293 50 350 50 c 0
 416 50 476 71 519 105 c 1
 590 105 l 1
 538 42 450 0 350 0 c 0
 190 0 60 108 60 240 c 0
200 275 m 1
 500 275 l 1
 500 388 l 1
 459 414 407 430 350 430 c 0
 293 430 241 414 200 388 c 1
 200 275 l 1
EndSplineSet
Validated: 1
EndChar

StartChar: integral
Encoding: 8747 8747 566
Width: 440
VWidth: 0
Flags: W
HStem: -225 95<0 137.305> 565 95<302.695 440>
VStem: 140 160<-125.426 560.426>
LayerCount: 2
Fore
SplineSet
0 -130 m 1
 90 -130 l 2
 115 -130 140 -130 140 -100 c 2
 140 545 l 2
 140 660 240 660 340 660 c 2
 440 660 l 1
 440 565 l 1
 350 565 l 2
 325 565 300 565 300 535 c 2
 300 -110 l 2
 300 -225 200 -225 100 -225 c 2
 0 -225 l 1
 0 -130 l 1
EndSplineSet
Validated: 1
EndChar

StartChar: approxequal
Encoding: 8776 8776 567
Width: 700
VWidth: 0
Flags: W
HStem: 0 125<421.366 556.349> 105 125<143.651 278.634> 250 125<421.366 556.349> 355 125<143.651 278.634>
LayerCount: 2
Fore
SplineSet
60 65 m 1x40
 60 170 l 1
 120 200 180 230 240 230 c 0x40
 290 230 335 205 370 180 c 0
 411 151 450 125 495 125 c 0
 545 125 600 145 640 165 c 1
 640 60 l 1
 580 30 520 0 460 0 c 0x80
 410 0 365 25 330 50 c 0
 289 79 250 105 205 105 c 0
 155 105 100 85 60 65 c 1x40
60 315 m 1
 60 420 l 1
 120 450 180 480 240 480 c 0x10
 290 480 335 455 370 430 c 0
 411 401 450 375 495 375 c 0
 545 375 600 395 640 415 c 1
 640 310 l 1
 580 280 520 250 460 250 c 0x20
 410 250 365 275 330 300 c 0
 289 329 250 355 205 355 c 0x10
 155 355 100 335 60 315 c 1
EndSplineSet
Validated: 1
EndChar

StartChar: lozenge
Encoding: 9674 9674 568
Width: 700
VWidth: 0
Flags: MW
HStem: -60 200<344.842 355.158> 520 200<344.842 355.158>
VStem: 60 150<320.586 339.414> 490 150<320.586 339.414>
LayerCount: 2
Fore
SplineSet
60 330 m 1
 350 720 l 1
 640 330 l 1
 350 -60 l 1
 60 330 l 1
210 330 m 1
 350 140 l 1
 490 330 l 1
 350 520 l 1
 210 330 l 1
EndSplineSet
EndChar

StartChar: uni048E
Encoding: 1166 1166 573
Width: 930
VWidth: 0
Flags: MW
HStem: 0 21G<70 240> 250 110<240 370 620 686.709> 550 110<240 686.709>
VStem: 70 170<0 250 360 550> 690 170<366.892 543.108>
LayerCount: 2
Fore
SplineSet
70 0 m 1
 70 660 l 1
 620 660 l 2
 740 660 860 660 860 525 c 2
 860 385 l 2
 860 250 740 250 620 250 c 1
 670 200 l 1
 600 130 l 1
 480 250 l 1
 240 250 l 1
 240 0 l 1
 70 0 l 1
240 360 m 1
 370 360 l 1
 320 410 l 1
 390 480 l 1
 510 360 l 1
 630 360 l 2
 660 360 690 360 690 395 c 2
 690 515 l 2
 690 550 660 550 630 550 c 2
 240 550 l 1
 240 360 l 1
EndSplineSet
Validated: 1
EndChar

StartChar: uni048F
Encoding: 1167 1167 574
Width: 740
VWidth: 0
Flags: W
HStem: -225 21G<60 220> 0 95<220 320> 385 95<220 517.305>
VStem: 60 160<-225 0 95 385> 520 160<99.7559 380.426>
LayerCount: 2
Fore
SplineSet
60 -225 m 1
 60 480 l 1
 480 480 l 2
 580 480 680 480 680 365 c 2
 680 115 l 2
 680 30 630 5 535 0 c 1
 585 -50 l 1
 525 -110 l 1
 415 0 l 1
 220 0 l 1
 220 -225 l 1
 60 -225 l 1
220 95 m 1
 320 95 l 1
 270 145 l 1
 330 205 l 1
 440 95 l 1
 470 95 l 2
 495 95 520 95 520 125 c 2
 520 355 l 2
 520 385 495 385 470 385 c 2
 220 385 l 1
 220 95 l 1
EndSplineSet
Validated: 1
EndChar

StartChar: afii10050
Encoding: 1168 1168 575
Width: 840
VWidth: 0
Flags: W
HStem: 0 21G<70 240> 550 110<240 660>
VStem: 70 170<0 550> 660 150<660 810>
LayerCount: 2
Fore
SplineSet
70 0 m 1
 70 660 l 1
 660 660 l 1
 660 810 l 1
 810 810 l 1
 810 550 l 1
 240 550 l 1
 240 0 l 1
 70 0 l 1
EndSplineSet
Validated: 1
EndChar

StartChar: afii10098
Encoding: 1169 1169 576
Width: 700
VWidth: 0
Flags: MW
HStem: 0 21G<60 220> 385 95<220 510>
VStem: 60 160<0 385> 510 130<480 605>
LayerCount: 2
Fore
SplineSet
60 0 m 1
 60 480 l 1
 510 480 l 1
 510 605 l 1
 640 605 l 1
 640 385 l 1
 220 385 l 1
 220 0 l 1
 60 0 l 1
EndSplineSet
Validated: 1
EndChar

StartChar: uni0492
Encoding: 1170 1170 577
Width: 870
VWidth: 0
Flags: MW
HStem: 0 21G<100 270> 310 95<20 100 270 495> 550 110<270 840>
VStem: 100 170<0 310 405 550> 820 20G
LayerCount: 2
Fore
SplineSet
20 310 m 1
 20 405 l 1
 100 405 l 1
 100 660 l 1
 840 660 l 1
 840 550 l 1
 270 550 l 1
 270 405 l 1
 495 405 l 1
 495 310 l 1
 270 310 l 1
 270 0 l 1
 100 0 l 1
 100 310 l 1
 20 310 l 1
EndSplineSet
Validated: 1
EndChar

StartChar: uni0493
Encoding: 1171 1171 578
Width: 720
VWidth: 0
Flags: MW
HStem: 0 21G<80 240> 200 85<20 80 240 390> 385 95<240 660>
VStem: 80 160<0 200 285 385> 640 20G
LayerCount: 2
Fore
SplineSet
20 200 m 1
 20 285 l 1
 80 285 l 1
 80 480 l 1
 660 480 l 1
 660 385 l 1
 240 385 l 1
 240 285 l 1
 390 285 l 1
 390 200 l 1
 240 200 l 1
 240 0 l 1
 80 0 l 1
 80 200 l 1
 20 200 l 1
EndSplineSet
Validated: 1
EndChar

StartChar: uni0494
Encoding: 1172 1172 579
Width: 930
VWidth: 0
Flags: W
HStem: -225 110<540 612.942> 0 21G<70 240> 305 110<240 686.709> 550 110<240 790>
VStem: 70 170<0 305 415 550> 690 170<-37.6328 298.108>
LayerCount: 2
Fore
SplineSet
70 0 m 1
 70 660 l 1
 790 660 l 1
 790 550 l 1
 240 550 l 1
 240 415 l 1
 620 415 l 2
 740 415 860 415 860 280 c 2
 860 60 l 2
 860 -205 640 -220 540 -225 c 1
 540 -115 l 1
 605 -105 690 -80 690 60 c 2
 690 270 l 2
 690 305 660 305 630 305 c 2
 240 305 l 1
 240 0 l 1
 70 0 l 1
EndSplineSet
Validated: 1
EndChar

StartChar: uni0495
Encoding: 1173 1173 580
Width: 740
VWidth: 0
Flags: W
HStem: -225 95<410 468.337> 0 21G<60 220> 205 95<220 517.305> 385 95<220 640>
VStem: 60 160<0 205 300 385> 520 160<-81.875 203.324>
LayerCount: 2
Fore
SplineSet
60 0 m 1
 60 480 l 1
 640 480 l 1
 640 385 l 1
 220 385 l 1
 220 300 l 1
 480 300 l 2
 580 300 680 300 680 200 c 2
 680 0 l 2
 680 -205 500 -220 410 -225 c 1
 410 -130 l 1
 500 -115 520 -60 520 0 c 2
 520 180 l 2
 520 205 495 205 470 205 c 2
 220 205 l 1
 220 0 l 1
 60 0 l 1
EndSplineSet
Validated: 1
EndChar

StartChar: uni0496
Encoding: 1174 1174 581
Width: 1270
VWidth: 0
Flags: W
HStem: 0 21G<20 250 530 700> 640 20G<60 290 530 700 940 1170>
VStem: 530 170<0 190 400 660> 1080 150<-150 0>
LayerCount: 2
Fore
SplineSet
20 0 m 1
 370 350 l 1
 60 660 l 1
 270 660 l 1
 530 400 l 1
 530 660 l 1
 700 660 l 1
 700 400 l 1
 960 660 l 1
 1170 660 l 1
 860 350 l 1
 1125 85 l 1
 1230 85 l 1
 1230 -150 l 1
 1080 -150 l 1
 1080 0 l 1
 1000 0 l 1
 755 245 l 1
 700 190 l 1
 700 0 l 1
 530 0 l 1
 530 190 l 1
 475 245 l 1
 230 0 l 1
 20 0 l 1
EndSplineSet
Validated: 1
EndChar

StartChar: uni0497
Encoding: 1175 1175 582
Width: 1000
VWidth: 0
Flags: W
HStem: 0 21G<20 230 410 570> 460 20G<40 250 410 570 730 940>
VStem: 410 160<0 110 300 480> 840 130<-125 0>
LayerCount: 2
Fore
SplineSet
20 0 m 1
 270 250 l 1
 40 480 l 1
 230 480 l 1
 410 300 l 1
 410 480 l 1
 570 480 l 1
 570 300 l 1
 750 480 l 1
 940 480 l 1
 710 250 l 1
 885 75 l 1
 970 75 l 1
 970 -125 l 1
 840 -125 l 1
 840 0 l 1
 770 0 l 1
 615 155 l 1
 570 110 l 1
 570 0 l 1
 410 0 l 1
 410 110 l 1
 365 155 l 1
 210 0 l 1
 20 0 l 1
EndSplineSet
Validated: 1
EndChar

StartChar: uni049A
Encoding: 1178 1178 585
Width: 900
VWidth: 0
Flags: W
HStem: 0 21G<70 240> 640 20G<70 240 570 800>
VStem: 70 170<0 100 310 660> 710 150<-150 0>
LayerCount: 2
Fore
SplineSet
70 0 m 1
 70 660 l 1
 240 660 l 1
 240 310 l 1
 590 660 l 1
 800 660 l 1
 490 350 l 1
 755 85 l 1
 860 85 l 1
 860 -150 l 1
 710 -150 l 1
 710 0 l 1
 630 0 l 1
 385 245 l 1
 240 100 l 1
 240 0 l 1
 70 0 l 1
EndSplineSet
Validated: 1
EndChar

StartChar: uni049B
Encoding: 1179 1179 586
Width: 690
VWidth: 0
Flags: W
HStem: 0 21G<60 220> 460 20G<60 220 420 630>
VStem: 60 160<0 70 260 480> 530 130<-125 0>
LayerCount: 2
Fore
SplineSet
60 0 m 1
 60 480 l 1
 220 480 l 1
 220 260 l 1
 440 480 l 1
 630 480 l 1
 400 250 l 1
 575 75 l 1
 660 75 l 1
 660 -125 l 1
 530 -125 l 1
 530 0 l 1
 460 0 l 1
 305 155 l 1
 220 70 l 1
 220 0 l 1
 60 0 l 1
EndSplineSet
Validated: 1
EndChar

StartChar: uni049C
Encoding: 1180 1180 587
Width: 860
VWidth: 0
Flags: MW
HStem: 0 21G<70 240 610 840> 640 20G<70 240 570 800>
VStem: 70 170<0 100 310 660> 240 65 305 95<55 165 470 580>
LayerCount: 2
Fore
SplineSet
70 0 m 1
 70 660 l 1
 240 660 l 1
 240 310 l 1x10
 305 375 l 1x10
 305 580 l 1
 400 580 l 1
 400 470 l 1
 590 660 l 1
 800 660 l 1
 490 350 l 1
 840 0 l 1
 630 0 l 1
 400 230 l 1
 400 55 l 1
 305 55 l 1
 305 165 l 1x10
 240 100 l 1x10
 240 0 l 1
 70 0 l 1
EndSplineSet
Validated: 1
EndChar

StartChar: uni049D
Encoding: 1181 1181 588
Width: 690
VWidth: 0
Flags: MW
HStem: 0 21G<60 220 460 670> 460 20G<60 220 440 650>
VStem: 60 160<0 50 240 480> 220 50 270 80<30 100 370 440>
LayerCount: 2
Fore
SplineSet
60 0 m 1
 60 480 l 1
 220 480 l 1
 220 240 l 1x10
 270 290 l 1x10
 270 440 l 1
 350 440 l 1
 350 370 l 1
 460 480 l 1
 650 480 l 1
 420 250 l 1
 670 0 l 1
 480 0 l 1
 350 130 l 1
 350 30 l 1
 270 30 l 1
 270 100 l 1x10
 220 50 l 1x10
 220 0 l 1
 60 0 l 1
EndSplineSet
Validated: 1
EndChar

StartChar: uni049E
Encoding: 1182 1182 589
Width: 890
VWidth: 0
Flags: W
HStem: 0 21G<100 270 640 870> 485 95<20 100 270 350> 640 20G<100 270 600 830>
VStem: 100 170<0 100 310 485 580 660>
LayerCount: 2
Fore
SplineSet
20 485 m 1
 20 580 l 1
 100 580 l 1
 100 660 l 1
 270 660 l 1
 270 580 l 1
 350 580 l 1
 350 485 l 1
 270 485 l 1
 270 310 l 1
 620 660 l 1
 830 660 l 1
 520 350 l 1
 870 0 l 1
 660 0 l 1
 415 245 l 1
 270 100 l 1
 270 0 l 1
 100 0 l 1
 100 485 l 1
 20 485 l 1
EndSplineSet
Validated: 1
EndChar

StartChar: uni049F
Encoding: 1183 1183 590
Width: 710
VWidth: 0
Flags: W
HStem: 0 21G<80 240 480 690> 340 80<20 80 240 300> 460 20G<80 240 460 670>
VStem: 80 160<0 50 240 340 420 480>
LayerCount: 2
Fore
SplineSet
20 340 m 1
 20 420 l 1
 80 420 l 1
 80 480 l 1
 240 480 l 1
 240 420 l 1
 300 420 l 1
 300 340 l 1
 240 340 l 1
 240 240 l 1
 480 480 l 1
 670 480 l 1
 440 250 l 1
 690 0 l 1
 500 0 l 1
 345 155 l 1
 240 50 l 1
 240 0 l 1
 80 0 l 1
 80 340 l 1
 20 340 l 1
EndSplineSet
Validated: 1
EndChar

StartChar: uni04A0
Encoding: 1184 1184 591
Width: 1060
VWidth: 0
Flags: MW
HStem: 0 21G<270 440 810 1040> 550 110<30 270>
VStem: 30 21G 270 170<0 100 310 550>
LayerCount: 2
Fore
SplineSet
30 550 m 1
 30 660 l 1
 440 660 l 1
 440 310 l 1
 790 660 l 1
 1000 660 l 1
 690 350 l 1
 1040 0 l 1
 830 0 l 1
 585 245 l 1
 440 100 l 1
 440 0 l 1
 270 0 l 1
 270 550 l 1
 30 550 l 1
EndSplineSet
Validated: 1
EndChar

StartChar: uni04A1
Encoding: 1185 1185 592
Width: 830
VWidth: 0
Flags: MW
HStem: 0 21G<220 380 600 810> 385 95<60 220>
VStem: 60 21G 220 160<0 70 260 385>
LayerCount: 2
Fore
SplineSet
60 385 m 1
 60 480 l 1
 380 480 l 1
 380 260 l 1
 600 480 l 1
 790 480 l 1
 560 250 l 1
 810 0 l 1
 620 0 l 1
 465 155 l 1
 380 70 l 1
 380 0 l 1
 220 0 l 1
 220 385 l 1
 60 385 l 1
EndSplineSet
Validated: 1
EndChar

StartChar: uni04A2
Encoding: 1186 1186 593
Width: 1020
VWidth: 0
Flags: W
HStem: 0 21G<70 240> 305 110<240 690> 640 20G<70 240 690 860>
VStem: 70 170<0 305 415 660> 690 170<85 305 415 660> 830 150<-150 0>
LayerCount: 2
Fore
SplineSet
70 0 m 1xf8
 70 660 l 1
 240 660 l 1
 240 415 l 1
 690 415 l 1
 690 660 l 1
 860 660 l 1
 860 85 l 1xf8
 980 85 l 1
 980 -150 l 1
 830 -150 l 1
 830 0 l 1xf4
 690 0 l 1
 690 305 l 1
 240 305 l 1
 240 0 l 1
 70 0 l 1xf8
EndSplineSet
Validated: 1
EndChar

StartChar: uni04A3
Encoding: 1187 1187 594
Width: 800
VWidth: 0
Flags: W
HStem: 0 21G<60 220> 205 95<220 520> 460 20G<60 220 520 680>
VStem: 60 160<0 205 300 480> 520 160<95 205 300 480> 640 130<-125 0>
LayerCount: 2
Fore
SplineSet
60 0 m 1xf8
 60 480 l 1
 220 480 l 1
 220 300 l 1
 520 300 l 1
 520 480 l 1
 680 480 l 1
 680 95 l 1xf8
 770 95 l 1
 770 -125 l 1
 640 -125 l 1
 640 0 l 1xf4
 520 0 l 1
 520 205 l 1
 220 205 l 1
 220 0 l 1
 60 0 l 1xf8
EndSplineSet
Validated: 1
EndChar

StartChar: uni04A4
Encoding: 1188 1188 595
Width: 1290
VWidth: 0
Flags: MW
HStem: 0 21G<70 240 690 860> 305 110<240 690> 550 110<860 1260>
VStem: 70 170<0 305 415 660> 690 170<0 305 415 550> 1240 20G
LayerCount: 2
Fore
SplineSet
70 0 m 1
 70 660 l 1
 240 660 l 1
 240 415 l 1
 690 415 l 1
 690 660 l 1
 1260 660 l 1
 1260 550 l 1
 860 550 l 1
 860 0 l 1
 690 0 l 1
 690 305 l 1
 240 305 l 1
 240 0 l 1
 70 0 l 1
EndSplineSet
Validated: 1
EndChar

StartChar: uni04A5
Encoding: 1189 1189 596
Width: 1000
VWidth: 0
Flags: MW
HStem: 0 21G<60 220 520 680> 205 95<220 520> 385 95<680 940>
VStem: 60 160<0 205 300 480> 520 160<0 205 300 385> 920 20G
LayerCount: 2
Fore
SplineSet
60 0 m 1
 60 480 l 1
 220 480 l 1
 220 300 l 1
 520 300 l 1
 520 480 l 1
 940 480 l 1
 940 385 l 1
 680 385 l 1
 680 0 l 1
 520 0 l 1
 520 205 l 1
 220 205 l 1
 220 0 l 1
 60 0 l 1
EndSplineSet
Validated: 1
EndChar

StartChar: uni04A6
Encoding: 1190 1190 597
Width: 1450
VWidth: 0
Flags: W
HStem: -225 110<1060 1132.94> 0 21G<70 240 640 810> 305 110<810 1206.71> 550 110<240 640>
VStem: 70 170<0 550> 640 170<0 305 415 550> 1210 170<-37.6328 298.108>
CounterMasks: 1 0e
LayerCount: 2
Fore
SplineSet
70 0 m 1
 70 660 l 1
 810 660 l 1
 810 415 l 1
 1140 415 l 2
 1260 415 1380 415 1380 280 c 2
 1380 60 l 2
 1380 -205 1160 -220 1060 -225 c 1
 1060 -115 l 1
 1125 -105 1210 -80 1210 60 c 2
 1210 270 l 2
 1210 305 1180 305 1150 305 c 2
 810 305 l 1
 810 0 l 1
 640 0 l 1
 640 550 l 1
 240 550 l 1
 240 0 l 1
 70 0 l 1
EndSplineSet
Validated: 1
EndChar

StartChar: uni04A7
Encoding: 1191 1191 598
Width: 1120
VWidth: 0
Flags: W
HStem: -225 95<790 848.337> 0 21G<60 220 480 640> 205 95<640 897.305> 385 95<220 480>
VStem: 60 160<0 385> 480 160<0 205 300 385> 900 160<-81.875 200.426>
CounterMasks: 1 0e
LayerCount: 2
Fore
SplineSet
60 0 m 1
 60 480 l 1
 640 480 l 1
 640 300 l 1
 860 300 l 2
 960 300 1060 300 1060 185 c 2
 1060 0 l 2
 1060 -205 880 -220 790 -225 c 1
 790 -130 l 1
 880 -115 900 -60 900 0 c 2
 900 175 l 2
 900 205 875 205 850 205 c 2
 640 205 l 1
 640 0 l 1
 480 0 l 1
 480 385 l 1
 220 385 l 1
 220 0 l 1
 60 0 l 1
EndSplineSet
Validated: 1
EndChar

StartChar: uni04A8
Encoding: 1192 1192 599
Width: 1180
VWidth: 0
Flags: W
HStem: 0 110<265.499 410 581.214 838.786 1010 1110> 370 110<583.356 836.644> 550 110<265.499 540>
VStem: 70 170<133.973 526.027> 390 170<131.197 346.027> 860 170<131.197 346.027>
LayerCount: 2
Fore
SplineSet
70 180 m 2
 70 480 l 2
 70 660 230 660 390 660 c 2
 540 660 l 1
 540 550 l 1
 370 550 l 2
 305 550 240 550 240 475 c 2
 240 185 l 2
 240 110 305 110 370 110 c 2
 410 110 l 1
 400 125 390 155 390 195 c 2
 390 300 l 2
 390 480 550 480 710 480 c 3
 870 480 1030 480 1030 300 c 2
 1030 195 l 2
 1030 155 1020 125 1010 110 c 1
 1110 110 l 1
 1110 0 l 1
 390 0 l 2
 230 0 70 0 70 180 c 2
560 185 m 2
 560 110 625 110 710 110 c 3
 795 110 860 110 860 185 c 2
 860 295 l 2
 860 370 795 370 710 370 c 3
 625 370 560 370 560 295 c 2
 560 185 l 2
EndSplineSet
Validated: 1
EndChar

StartChar: uni04A9
Encoding: 1193 1193 600
Width: 1020
VWidth: 0
Flags: W
HStem: 0 95<231.061 375 529.834 730.166 885 960> 235 95<532.456 727.544> 385 95<231.061 500>
VStem: 60 160<107.188 372.812> 360 160<107.446 220.499> 740 160<107.446 220.499>
LayerCount: 2
Fore
SplineSet
60 160 m 2
 60 320 l 2
 60 480 200 480 340 480 c 2
 500 480 l 1
 500 385 l 1
 320 385 l 2
 270 385 220 385 220 330 c 2
 220 150 l 2
 220 95 270 95 320 95 c 2
 375 95 l 1
 365 115 360 135 360 165 c 2
 360 175 l 2
 360 330 505 330 630 330 c 0
 755 330 900 330 900 175 c 2
 900 165 l 2
 900 135 895 115 885 95 c 1
 960 95 l 1
 960 0 l 1
 340 0 l 2
 200 0 60 0 60 160 c 2
520 150 m 2
 520 95 570 95 630 95 c 0
 690 95 740 95 740 150 c 2
 740 180 l 2
 740 235 690 235 630 235 c 0
 570 235 520 235 520 180 c 2
 520 150 l 2
EndSplineSet
Validated: 1
EndChar

StartChar: uni04AC
Encoding: 1196 1196 603
Width: 910
VWidth: 0
Flags: W
HStem: 550 110<30 370 540 880>
VStem: 370 170<110 550> 510 150<-150 0>
LayerCount: 2
Fore
SplineSet
30 550 m 1xc0
 30 660 l 1
 880 660 l 1
 880 550 l 1
 540 550 l 1
 540 110 l 1xc0
 660 110 l 1
 660 -150 l 1
 510 -150 l 1
 510 0 l 1xa0
 370 0 l 1
 370 550 l 1
 30 550 l 1xc0
EndSplineSet
Validated: 1
EndChar

StartChar: uni04AD
Encoding: 1197 1197 604
Width: 720
VWidth: 0
Flags: W
HStem: 385 95<60 280 440 660>
VStem: 280 160<75 385> 400 130<-125 0>
LayerCount: 2
Fore
SplineSet
60 385 m 1xc0
 60 480 l 1
 660 480 l 1
 660 385 l 1
 440 385 l 1
 440 75 l 1xc0
 530 75 l 1
 530 -125 l 1
 400 -125 l 1
 400 0 l 1xa0
 280 0 l 1
 280 385 l 1
 60 385 l 1xc0
EndSplineSet
Validated: 1
EndChar

StartChar: uni04B0
Encoding: 1200 1200 607
Width: 910
VWidth: 0
Flags: W
HStem: 0 21G<370 540> 125 95<195 370 540 715> 640 20G<20 250 660 890>
VStem: 370 170<0 125 220 310>
LayerCount: 2
Fore
SplineSet
20 660 m 1
 230 660 l 1
 455 435 l 1
 680 660 l 1
 890 660 l 1
 540 310 l 1
 540 220 l 1
 715 220 l 1
 715 125 l 1
 540 125 l 1
 540 0 l 1
 370 0 l 1
 370 125 l 1
 195 125 l 1
 195 220 l 1
 370 220 l 1
 370 310 l 1
 20 660 l 1
EndSplineSet
Validated: 1
EndChar

StartChar: uni04B1
Encoding: 1201 1201 608
Width: 720
VWidth: 0
Flags: W
HStem: -225 21G<280 440> -165 80<155 280 440 565> 460 20G<20 200 520 700>
VStem: 280 160<-225 -165 -85 -40>
LayerCount: 2
Fore
SplineSet
20 480 m 1
 190 480 l 1
 360 140 l 1
 530 480 l 1
 700 480 l 1
 440 -40 l 1
 440 -85 l 1
 565 -85 l 1
 565 -165 l 1
 440 -165 l 1
 440 -225 l 1
 280 -225 l 1
 280 -165 l 1
 155 -165 l 1
 155 -85 l 1
 280 -85 l 1
 280 -40 l 1
 20 480 l 1
EndSplineSet
Validated: 1
EndChar

StartChar: uni04B2
Encoding: 1202 1202 609
Width: 950
VWidth: 0
Flags: W
HStem: 0 21G<20 250> 640 20G<20 250 660 890>
VStem: 760 150<-150 0>
LayerCount: 2
Fore
SplineSet
910 110 m 1
 910 -150 l 1
 760 -150 l 1
 760 0 l 1
 680 0 l 1
 455 225 l 1
 230 0 l 1
 20 0 l 1
 350 330 l 1
 20 660 l 1
 230 660 l 1
 455 435 l 1
 680 660 l 1
 890 660 l 1
 560 330 l 1
 780 110 l 1
 910 110 l 1
EndSplineSet
Validated: 1
EndChar

StartChar: uni04B3
Encoding: 1203 1203 610
Width: 730
VWidth: 0
Flags: W
HStem: 0 21G<20 230> 460 20G<20 230 480 690>
VStem: 570 130<-125 0>
LayerCount: 2
Fore
SplineSet
20 0 m 1
 260 240 l 1
 20 480 l 1
 210 480 l 1
 355 335 l 1
 500 480 l 1
 690 480 l 1
 450 240 l 1
 595 95 l 1
 700 95 l 1
 700 -125 l 1
 570 -125 l 1
 570 0 l 1
 500 0 l 1
 355 145 l 1
 210 0 l 1
 20 0 l 1
EndSplineSet
Validated: 1
EndChar

StartChar: uni04B4
Encoding: 1204 1204 611
Width: 1320
VWidth: 0
Flags: W
HStem: 0 110<540 990> 550 110<30 370 540 880>
VStem: 370 170<110 550> 990 170<110 660> 1130 150<-150 0>
LayerCount: 2
Fore
SplineSet
30 550 m 1xe8
 30 660 l 1
 880 660 l 1
 880 550 l 1
 540 550 l 1
 540 110 l 1
 990 110 l 1
 990 660 l 1
 1160 660 l 1
 1160 110 l 1xf0
 1280 110 l 1
 1280 -150 l 1
 1130 -150 l 1
 1130 0 l 1
 370 0 l 1
 370 550 l 1
 30 550 l 1xe8
EndSplineSet
Validated: 1
EndChar

StartChar: uni04B5
Encoding: 1205 1205 612
Width: 1020
VWidth: 0
Flags: W
HStem: 0 95<440 740> 385 95<60 280 440 660>
VStem: 280 160<95 385> 740 160<95 480> 860 130<-125 0>
LayerCount: 2
Fore
SplineSet
60 385 m 1xe8
 60 480 l 1
 660 480 l 1
 660 385 l 1
 440 385 l 1
 440 95 l 1
 740 95 l 1
 740 480 l 1
 900 480 l 1
 900 95 l 1xf0
 990 95 l 1
 990 -125 l 1
 860 -125 l 1
 860 0 l 1
 280 0 l 1
 280 385 l 1
 60 385 l 1xe8
EndSplineSet
Validated: 1
EndChar

StartChar: uni04B6
Encoding: 1206 1206 613
Width: 1020
VWidth: 0
Flags: W
HStem: 250 110<243.291 690> 640 20G<70 240 690 860>
VStem: 70 170<366.892 660> 690 170<85 250 360 660> 830 150<-150 0>
LayerCount: 2
Fore
SplineSet
70 385 m 2xf0
 70 660 l 1
 240 660 l 1
 240 395 l 2
 240 360 270 360 300 360 c 2
 690 360 l 1
 690 660 l 1
 860 660 l 1
 860 85 l 1xf0
 980 85 l 1
 980 -150 l 1
 830 -150 l 1
 830 0 l 1xe8
 690 0 l 1
 690 250 l 1
 310 250 l 2
 190 250 70 250 70 385 c 2xf0
EndSplineSet
Validated: 1
EndChar

StartChar: uni04B7
Encoding: 1207 1207 614
Width: 800
VWidth: 0
Flags: W
HStem: 175 95<222.695 520> 460 20G<60 220 520 680>
VStem: 60 160<274.574 480> 520 160<95 175 270 480> 640 130<-125 0>
LayerCount: 2
Fore
SplineSet
60 290 m 2xf0
 60 480 l 1
 220 480 l 1
 220 300 l 2
 220 270 245 270 270 270 c 2
 520 270 l 1
 520 480 l 1
 680 480 l 1
 680 95 l 1xf0
 770 95 l 1
 770 -125 l 1
 640 -125 l 1
 640 0 l 1xe8
 520 0 l 1
 520 175 l 1
 260 175 l 2
 160 175 60 175 60 290 c 2xf0
EndSplineSet
Validated: 1
EndChar

StartChar: uni04B8
Encoding: 1208 1208 615
Width: 930
VWidth: 0
Flags: W
HStem: 0 21G<690 860> 250 110<243.291 420 515 690> 640 20G<70 240 690 860>
VStem: 70 170<366.892 660> 420 95<115 250 360 495> 690 170<0 250 360 660>
LayerCount: 2
Fore
SplineSet
70 385 m 2
 70 660 l 1
 240 660 l 1
 240 395 l 2
 240 360 270 360 300 360 c 2
 420 360 l 1
 420 495 l 1
 515 495 l 1
 515 360 l 1
 690 360 l 1
 690 660 l 1
 860 660 l 1
 860 0 l 1
 690 0 l 1
 690 250 l 1
 515 250 l 1
 515 115 l 1
 420 115 l 1
 420 250 l 1
 310 250 l 2
 190 250 70 250 70 385 c 2
EndSplineSet
Validated: 1
EndChar

StartChar: uni04B9
Encoding: 1209 1209 616
Width: 740
VWidth: 0
Flags: W
HStem: 0 21G<520 680> 175 95<222.695 330 410 520> 460 20G<60 220 520 680>
VStem: 60 160<274.574 480> 330 80<75 175 270 370> 520 160<0 175 270 480>
CounterMasks: 1 1c
LayerCount: 2
Fore
SplineSet
60 290 m 2
 60 480 l 1
 220 480 l 1
 220 300 l 2
 220 270 245 270 270 270 c 2
 330 270 l 1
 330 370 l 1
 410 370 l 1
 410 270 l 1
 520 270 l 1
 520 480 l 1
 680 480 l 1
 680 0 l 1
 520 0 l 1
 520 175 l 1
 410 175 l 1
 410 75 l 1
 330 75 l 1
 330 175 l 1
 260 175 l 2
 160 175 60 175 60 290 c 2
EndSplineSet
Validated: 1
EndChar

StartChar: uni04BA
Encoding: 1210 1210 617
Width: 930
VWidth: 0
Flags: W
HStem: 0 21G<70 240 690 860> 305 110<240 686.709> 640 20G<70 240>
VStem: 70 170<0 305 415 660> 690 170<0 298.108>
LayerCount: 2
Fore
SplineSet
70 0 m 1
 70 660 l 1
 240 660 l 1
 240 415 l 1
 620 415 l 2
 740 415 860 415 860 280 c 2
 860 0 l 1
 690 0 l 1
 690 270 l 2
 690 305 660 305 630 305 c 2
 240 305 l 1
 240 0 l 1
 70 0 l 1
EndSplineSet
Validated: 1
EndChar

StartChar: uni04BB
Encoding: 1211 1211 618
Width: 740
VWidth: 0
Flags: W
HStem: 0 21G<60 220 520 680> 205 95<220 517.305> 460 20G<60 220>
VStem: 60 160<0 205 300 480> 520 160<0 200.426>
LayerCount: 2
Fore
SplineSet
60 0 m 1
 60 480 l 1
 220 480 l 1
 220 300 l 1
 480 300 l 2
 580 300 680 300 680 185 c 2
 680 0 l 1
 520 0 l 1
 520 175 l 2
 520 205 495 205 470 205 c 2
 220 205 l 1
 220 0 l 1
 60 0 l 1
EndSplineSet
Validated: 1
EndChar

StartChar: uni04BC
Encoding: 1212 1212 619
Width: 1140
VWidth: 0
Flags: W
HStem: 0 110<475.499 874.501> 305 110<192.083 280 450 900> 550 110<475.499 874.501>
VStem: 40 150<421.892 510> 280 170<133.973 305 415 526.027> 900 170<133.973 180 415 526.027>
LayerCount: 2
Fore
SplineSet
40 440 m 10
 40 510 l 25
 190 510 l 25
 190 450 l 2
 190 415 220 415 250 415 c 2
 280 415 l 1
 280 480 l 2
 280 660 440 660 600 660 c 2
 750 660 l 2
 910 660 1070 660 1070 480 c 2
 1070 305 l 1
 450 305 l 1
 450 185 l 2
 450 110 515 110 580 110 c 2
 770 110 l 2
 835 110 895 110 900 180 c 1
 1070 180 l 1
 1070 0 910 0 750 0 c 2
 600 0 l 2
 440 0 280 0 280 180 c 2
 280 305 l 17
 160 305 40 305 40 440 c 10
450 415 m 1
 900 415 l 1
 900 475 l 2
 900 550 835 550 770 550 c 2
 580 550 l 2
 515 550 450 550 450 475 c 2
 450 415 l 1
EndSplineSet
Validated: 1
EndChar

StartChar: uni04BD
Encoding: 1213 1213 620
Width: 940
VWidth: 0
Flags: W
HStem: 0 95<431.061 708.161> 205 95<184.409 260 420 720> 385 95<431.061 708.939>
VStem: 40 140<304.574 390> 260 160<107.188 205 300 372.812> 720 160<111.644 150 300 372.812>
LayerCount: 2
Fore
SplineSet
40 320 m 10
 40 390 l 25
 180 390 l 25
 180 330 l 2
 180 300 205 300 230 300 c 2
 260 300 l 1
 260 320 l 2
 260 480 400 480 540 480 c 2
 600 480 l 2
 740 480 880 480 880 320 c 2
 880 205 l 1
 420 205 l 1
 420 150 l 2
 420 95 470 95 520 95 c 2
 620 95 l 2
 670 95 720 95 720 150 c 1
 880 150 l 1
 875 0 740 0 600 0 c 2
 540 0 l 2
 400 0 260 0 260 160 c 2
 260 205 l 1
 240 205 l 2
 140 205 40 205 40 320 c 10
420 300 m 1
 720 300 l 1
 720 330 l 2
 720 385 670 385 620 385 c 2
 520 385 l 2
 470 385 420 385 420 330 c 2
 420 300 l 1
EndSplineSet
Validated: 1
EndChar

StartChar: uni04BE
Encoding: 1214 1214 621
Width: 1140
VWidth: 0
Flags: W
HStem: 0 110<475.499 600 750 874.501> 305 110<192.083 280 450 900> 550 110<475.499 874.501>
VStem: 40 150<421.892 510> 280 170<133.973 305 415 526.027> 600 150<-150 0> 900 170<133.973 180 415 526.027>
LayerCount: 2
Fore
SplineSet
450 415 m 1
 900 415 l 1
 900 475 l 2
 900 550 835 550 770 550 c 2
 580 550 l 2
 515 550 450 550 450 475 c 2
 450 415 l 1
40 440 m 2
 40 510 l 1
 190 510 l 1
 190 450 l 2
 190 415 220 415 250 415 c 2
 280 415 l 1
 280 480 l 2
 280 660 440 660 600 660 c 2
 750 660 l 2
 910 660 1070 660 1070 480 c 2
 1070 305 l 1
 450 305 l 1
 450 185 l 2
 450 110 515 110 580 110 c 2
 770 110 l 2
 835 110 895 110 900 180 c 1
 1070 180 l 1
 1070 0 910 0 750 0 c 1
 750 -150 l 1
 600 -150 l 1
 600 0 l 1
 440 0 280 0 280 180 c 2
 280 305 l 1
 160 305 40 305 40 440 c 2
EndSplineSet
Validated: 1
EndChar

StartChar: uni04BF
Encoding: 1215 1215 622
Width: 940
VWidth: 0
Flags: W
HStem: 0 95<431.779 505 635 709.651> 205 95<184.409 260 420 720> 385 95<431.061 708.939>
VStem: 40 140<304.574 390> 260 160<107.188 205 300 372.812> 505 130<-125 0> 720 160<111.644 150 300 372.812>
LayerCount: 2
Fore
SplineSet
40 320 m 2
 40 390 l 1
 180 390 l 1
 180 330 l 2
 180 300 205 300 230 300 c 2
 260 300 l 1
 260 320 l 2
 260 480 400 480 540 480 c 2
 600 480 l 2
 740 480 880 480 880 320 c 2
 880 205 l 1
 420 205 l 1
 420 150 l 2
 420 95 470 95 520 95 c 2
 620 95 l 2
 670 95 720 95 720 150 c 1
 880 150 l 1
 875 0 735 0 635 0 c 1
 635 -125 l 1
 505 -125 l 1
 505 0 l 1
 410 0 260 0 260 160 c 2
 260 205 l 1
 240 205 l 2
 140 205 40 205 40 320 c 2
420 300 m 1
 720 300 l 1
 720 330 l 2
 720 385 670 385 620 385 c 2
 520 385 l 2
 470 385 420 385 420 330 c 2
 420 300 l 1
EndSplineSet
Validated: 1
EndChar

StartChar: uni04C3
Encoding: 1219 1219 626
Width: 820
VWidth: 0
Flags: W
HStem: -225 110<430 502.942> 0 21G<70 240> 305 110<240 335 545 575.476> 640 20G<70 240 560 790>
VStem: 70 170<0 305 415 660> 580 170<-37.6328 299.629>
LayerCount: 2
Fore
SplineSet
70 0 m 1
 70 660 l 1
 240 660 l 1
 240 415 l 1
 335 415 l 1
 580 660 l 1
 790 660 l 1
 545 415 l 1
 655 415 750 395 750 295 c 2
 750 60 l 2
 750 -205 530 -220 430 -225 c 1
 430 -115 l 1
 495 -105 580 -80 580 60 c 2
 580 275 l 2
 580 305 550 305 520 305 c 2
 240 305 l 1
 240 0 l 1
 70 0 l 1
EndSplineSet
Validated: 1
EndChar

StartChar: uni04C4
Encoding: 1220 1220 627
Width: 680
VWidth: 0
Flags: W
HStem: -225 95<350 408.337> 0 21G<60 220> 205 95<220 270> 460 20G<60 220 430 640>
VStem: 60 160<0 205 300 480> 460 160<-81.875 202.771>
LayerCount: 2
Fore
SplineSet
60 0 m 1
 60 480 l 1
 220 480 l 1
 220 300 l 1
 270 300 l 1
 450 480 l 1
 640 480 l 1
 460 300 l 1
 545 300 620 285 620 185 c 2
 620 0 l 2
 620 -205 440 -220 350 -225 c 1
 350 -130 l 1
 440 -115 460 -60 460 0 c 2
 460 175 l 2
 460 205 435 205 410 205 c 2
 220 205 l 1
 220 0 l 1
 60 0 l 1
EndSplineSet
Validated: 1
EndChar

StartChar: uni04C7
Encoding: 1223 1223 628
Width: 930
VWidth: 0
Flags: W
HStem: -225 110<540 612.942> 0 21G<70 240> 305 110<240 690> 640 20G<70 240 690 860>
VStem: 70 170<0 305 415 660> 690 170<-37.6328 305 415 660>
LayerCount: 2
Fore
SplineSet
70 0 m 1
 70 660 l 1
 240 660 l 1
 240 415 l 1
 690 415 l 1
 690 660 l 1
 860 660 l 1
 860 60 l 2
 860 -205 640 -220 540 -225 c 1
 540 -115 l 1
 605 -105 690 -80 690 60 c 2
 690 305 l 1
 240 305 l 1
 240 0 l 1
 70 0 l 1
EndSplineSet
Validated: 1
EndChar

StartChar: uni04C8
Encoding: 1224 1224 629
Width: 740
VWidth: 0
Flags: W
HStem: -225 95<410 468.337> 0 21G<60 220> 205 95<220 520> 460 20G<60 220 520 680>
VStem: 60 160<0 205 300 480> 520 160<-81.875 205 300 480>
LayerCount: 2
Fore
SplineSet
60 0 m 1
 60 480 l 1
 220 480 l 1
 220 300 l 1
 520 300 l 1
 520 480 l 1
 680 480 l 1
 680 0 l 2
 680 -205 500 -220 410 -225 c 1
 410 -130 l 1
 500 -115 520 -60 520 0 c 2
 520 205 l 1
 220 205 l 1
 220 0 l 1
 60 0 l 1
EndSplineSet
Validated: 1
EndChar

StartChar: uni04CB
Encoding: 1227 1227 630
Width: 930
VWidth: 0
Flags: W
HStem: 250 110<243.291 690> 640 20G<70 240 690 860>
VStem: 70 170<366.892 660> 570 150<-150 0> 690 170<110 250 360 660>
LayerCount: 2
Fore
SplineSet
70 385 m 2xe8
 70 660 l 1
 240 660 l 1
 240 395 l 2
 240 360 270 360 300 360 c 2
 690 360 l 1
 690 660 l 1
 860 660 l 1
 860 0 l 1xe8
 720 0 l 1
 720 -150 l 1
 570 -150 l 1
 570 110 l 1xf0
 690 110 l 1
 690 250 l 1
 310 250 l 2
 190 250 70 250 70 385 c 2xe8
EndSplineSet
Validated: 1
EndChar

StartChar: uni04CC
Encoding: 1228 1228 631
Width: 740
VWidth: 0
Flags: W
HStem: 175 95<222.695 520> 460 20G<60 220 520 680>
VStem: 60 160<274.574 480> 430 130<-125 0> 520 160<85 175 270 480>
LayerCount: 2
Fore
SplineSet
60 290 m 2xe8
 60 480 l 1
 220 480 l 1
 220 300 l 2
 220 270 245 270 270 270 c 2
 520 270 l 1
 520 480 l 1
 680 480 l 1
 680 0 l 1xe8
 560 0 l 1
 560 -125 l 1
 430 -125 l 1
 430 85 l 1xf0
 520 85 l 1
 520 175 l 1
 260 175 l 2
 160 175 60 175 60 290 c 2xe8
EndSplineSet
Validated: 1
EndChar

StartChar: uni04D8
Encoding: 1240 1240 640
Width: 930
VWidth: 0
Flags: MW
HStem: 0 110<265.499 664.501> 245 110<240 690> 550 110<265.499 664.501>
VStem: 70 170<133.973 245 480 526.027> 690 170<133.973 245 355 526.027>
LayerCount: 2
Fore
SplineSet
70 180 m 2
 70 355 l 1
 690 355 l 1
 690 475 l 2
 690 550 625 550 560 550 c 2
 370 550 l 2
 305 550 245 550 240 480 c 1
 70 480 l 1
 70 660 230 660 390 660 c 2
 540 660 l 2
 700 660 860 660 860 480 c 2
 860 180 l 2
 860 0 700 0 540 0 c 2
 390 0 l 2
 230 0 70 0 70 180 c 2
240 185 m 2
 240 110 305 110 370 110 c 2
 560 110 l 2
 625 110 690 110 690 185 c 2
 690 245 l 1
 240 245 l 1
 240 185 l 2
EndSplineSet
Validated: 1
EndChar

StartChar: afii10846
Encoding: 1241 1241 641
Width: 740
VWidth: 0
Flags: W
HStem: 0 95<231.061 508.939> 180 95<220 520> 385 95<231.839 508.939>
VStem: 60 160<107.188 180 330 368.356> 520 160<107.188 180 275 372.812>
LayerCount: 2
Fore
SplineSet
60 160 m 2
 60 275 l 1
 520 275 l 1
 520 330 l 2
 520 385 470 385 420 385 c 2
 320 385 l 2
 270 385 220 385 220 330 c 1
 60 330 l 1
 65 480 200 480 340 480 c 2
 400 480 l 2
 540 480 680 480 680 320 c 2
 680 160 l 2
 680 0 540 0 400 0 c 2
 340 0 l 2
 200 0 60 0 60 160 c 2
220 150 m 2
 220 95 270 95 320 95 c 2
 420 95 l 2
 470 95 520 95 520 150 c 2
 520 180 l 1
 220 180 l 1
 220 150 l 2
EndSplineSet
Validated: 1
EndChar

StartChar: uni04E0
Encoding: 1248 1248 648
Width: 880
VWidth: 0
Flags: MW
HStem: 0 105<70 636.709> 305 110<605 635.476> 555 105<70 580>
VStem: 640 170<111.237 301.292>
LayerCount: 2
Fore
SplineSet
70 0 m 1
 70 105 l 1
 580 105 l 2
 610 105 640 105 640 140 c 2
 640 270 l 2
 640 305 610 305 580 305 c 2
 375 305 l 1
 375 415 l 1
 580 555 l 1
 70 555 l 1
 70 660 l 1
 810 660 l 1
 810 555 l 1
 605 415 l 1
 715 415 810 400 810 280 c 2
 810 135 l 2
 810 0 690 0 570 0 c 2
 70 0 l 1
EndSplineSet
Validated: 1
EndChar

StartChar: uni04E1
Encoding: 1249 1249 649
Width: 700
VWidth: 0
Flags: W
HStem: 0 95<60 477.305> 385 95<60 440>
VStem: 480 160<99.5743 200.299>
LayerCount: 2
Fore
SplineSet
60 0 m 1
 60 95 l 1
 430 95 l 2
 455 95 480 95 480 125 c 2
 480 175 l 2
 480 205 455 205 430 205 c 2
 305 205 l 1
 305 300 l 1
 440 385 l 1
 60 385 l 1
 60 480 l 1
 640 480 l 1
 640 385 l 1
 505 300 l 1
 580 300 640 270 640 185 c 2
 640 115 l 2
 640 0 540 0 440 0 c 2
 60 0 l 1
EndSplineSet
Validated: 1
EndChar

StartChar: afii10146
Encoding: 1122 1122 680
Width: 960
VWidth: 0
Flags: W
HStem: 0 110<270 716.709> 305 110<270 716.709> 500 95<20 100 270 495> 640 20G<100 270>
VStem: 100 170<110 305 415 500 595 660> 720 170<116.892 298.108>
LayerCount: 2
Fore
SplineSet
20 500 m 1
 20 595 l 1
 100 595 l 1
 100 660 l 1
 270 660 l 1
 270 595 l 1
 495 595 l 1
 495 500 l 1
 270 500 l 1
 270 415 l 1
 650 415 l 2
 770 415 890 415 890 280 c 2
 890 135 l 2
 890 0 770 0 650 0 c 2
 100 0 l 1
 100 500 l 1
 20 500 l 1
270 110 m 1
 660 110 l 2
 690 110 720 110 720 145 c 2
 720 270 l 2
 720 305 690 305 660 305 c 2
 270 305 l 1
 270 110 l 1
EndSplineSet
Validated: 1
EndChar

StartChar: afii10194
Encoding: 1123 1123 681
Width: 760
VWidth: 0
Flags: W
HStem: 0 95<240 537.305> 205 95<240 537.305> 355 80<20 80 240 390> 460 20G<80 240>
VStem: 80 160<95 205 300 355 435 480> 540 160<99.5743 200.426>
LayerCount: 2
Fore
SplineSet
20 355 m 1
 20 435 l 1
 80 435 l 1
 80 480 l 1
 240 480 l 1
 240 435 l 1
 390 435 l 1
 390 355 l 1
 240 355 l 1
 240 300 l 1
 500 300 l 2
 600 300 700 300 700 185 c 2
 700 115 l 2
 700 0 600 0 500 0 c 2
 80 0 l 1
 80 355 l 1
 20 355 l 1
240 95 m 1
 490 95 l 2
 515 95 540 95 540 125 c 2
 540 175 l 2
 540 205 515 205 490 205 c 2
 240 205 l 1
 240 95 l 1
EndSplineSet
Validated: 1
EndChar

StartChar: afii10147
Encoding: 1138 1138 682
Width: 930
VWidth: 0
Flags: W
HStem: 0 110<243.291 686.709> 305 110<240 690> 550 110<243.291 686.709>
VStem: 70 170<116.892 305 415 543.108> 690 170<116.892 305 415 543.108>
LayerCount: 2
Fore
SplineSet
70 135 m 2
 70 525 l 2
 70 660 190 660 310 660 c 2
 620 660 l 2
 740 660 860 660 860 525 c 2
 860 135 l 2
 860 0 740 0 620 0 c 2
 310 0 l 2
 190 0 70 0 70 135 c 2
240 145 m 2
 240 110 270 110 300 110 c 2
 630 110 l 2
 660 110 690 110 690 145 c 2
 690 305 l 1
 240 305 l 1
 240 145 l 2
240 415 m 1
 690 415 l 1
 690 515 l 2
 690 550 660 550 630 550 c 2
 300 550 l 2
 270 550 240 550 240 515 c 2
 240 415 l 1
EndSplineSet
Validated: 1
EndChar

StartChar: afii10195
Encoding: 1139 1139 683
Width: 740
VWidth: 0
Flags: W
HStem: 0 95<222.695 517.305> 205 95<220 520> 385 95<222.695 517.305>
VStem: 60 160<99.5743 205 300 380.426> 520 160<99.5743 205 300 380.426>
LayerCount: 2
Fore
SplineSet
60 115 m 2
 60 365 l 2
 60 480 160 480 260 480 c 2
 480 480 l 2
 580 480 680 480 680 365 c 2
 680 115 l 2
 680 0 580 0 480 0 c 2
 260 0 l 2
 160 0 60 0 60 115 c 2
220 125 m 2
 220 95 245 95 270 95 c 2
 470 95 l 2
 495 95 520 95 520 125 c 2
 520 205 l 1
 220 205 l 1
 220 125 l 2
220 300 m 1
 520 300 l 1
 520 355 l 2
 520 385 495 385 470 385 c 2
 270 385 l 2
 245 385 220 385 220 355 c 2
 220 300 l 1
EndSplineSet
Validated: 1
EndChar

StartChar: afii10148
Encoding: 1140 1140 684
Width: 1010
VWidth: 0
Flags: MW
HStem: 0 21G<340 590> 550 110<846.419 980>
VStem: 960 20G
LayerCount: 2
Fore
SplineSet
20 660 m 1
 200 660 l 1
 465 130 l 1
 670 540 l 2
 698 596 730 660 840 660 c 2
 980 660 l 1
 980 550 l 1
 905 550 l 2
 855 550 847 534 827 494 c 2
 580 0 l 1
 350 0 l 1
 20 660 l 1
EndSplineSet
Validated: 1
EndChar

StartChar: afii10196
Encoding: 1141 1141 685
Width: 820
VWidth: 0
Flags: MW
HStem: 0 21G<250 470> 385 95<642.543 760>
VStem: 740 20G
LayerCount: 2
Fore
SplineSet
20 480 m 1
 190 480 l 1
 360 140 l 1
 478 376 l 2
 508 436 533 480 628 480 c 2
 760 480 l 1
 760 385 l 1
 698 385 l 2
 653 385 648 376 633 346 c 2
 460 0 l 1
 260 0 l 1
 20 480 l 1
EndSplineSet
Validated: 1
EndChar

StartChar: uni203D
Encoding: 8253 8253 688
Width: 910
VWidth: 0
Flags: MW
HStem: 0 140<285 455> 220 21G<285 455> 305 110<457.083 661.709> 555 105<75 285 455 661.709>
VStem: 285 170<0 140 220 301.395 415 555> 665 170<421.892 548.763>
LayerCount: 2
Fore
SplineSet
75 555 m 1
 75 660 l 1
 595 660 l 2
 715 660 835 660 835 525 c 2
 835 440 l 2
 835 305 715 305 595 305 c 2
 515 305 l 2
 485 305 455 305 455 270 c 2
 455 220 l 1
 285 220 l 1
 285 555 l 1
 75 555 l 1
285 0 m 1
 285 140 l 1
 455 140 l 1
 455 0 l 1
 285 0 l 1
455 415 m 1
 605 415 l 2
 635 415 665 415 665 450 c 2
 665 520 l 2
 665 555 635 555 605 555 c 2
 455 555 l 1
 455 415 l 1
EndSplineSet
Validated: 1
EndChar

StartChar: uni2070
Encoding: 8304 8304 690
Width: 560
VWidth: 0
Flags: MW
VStem: 60 130<394.158 585.842> 370 130<394.158 585.842>
LayerCount: 2
Fore
SplineSet
60 410 m 2
 60 570 l 2
 60 660 140 660 220 660 c 2
 340 660 l 2
 420 660 500 660 500 570 c 2
 500 410 l 2
 500 320 420 320 340 320 c 2
 220 320 l 2
 140 320 60 320 60 410 c 2
190 415 m 2
 190 390 210 390 230 390 c 2
 330 390 l 2
 350 390 370 390 370 415 c 2
 370 565 l 2
 370 590 350 590 330 590 c 2
 230 590 l 2
 210 590 190 590 190 565 c 2
 190 415 l 2
EndSplineSet
Validated: 1
EndChar

StartChar: uni2074
Encoding: 8308 8308 691
Width: 560
VWidth: 0
Flags: MW
HStem: 380 70<199 370> 640 20G<304.286 500>
VStem: 60 21G 370 130<320 380 450 583>
LayerCount: 2
Fore
SplineSet
60 380 m 1
 60 450 l 1
 330 660 l 1
 500 660 l 1
 500 320 l 1
 370 320 l 1
 370 380 l 1
 60 380 l 1
199 450 m 1
 370 450 l 1
 370 583 l 1
 199 450 l 1
EndSplineSet
Validated: 1
EndChar

StartChar: uni2075
Encoding: 8309 8309 692
Width: 560
VWidth: 0
Flags: MW
HStem: 320 70<60 369.844> 465 70<190 369.844> 590 70<190 480>
VStem: 60 130<535 590> 370 130<394.158 460.842>
LayerCount: 2
Fore
SplineSet
60 320 m 1
 60 390 l 1
 330 390 l 2
 350 390 370 390 370 415 c 2
 370 440 l 2
 370 465 350 465 330 465 c 2
 60 465 l 1
 60 660 l 1
 480 660 l 1
 480 590 l 1
 190 590 l 1
 190 535 l 1
 340 535 l 2
 420 535 500 535 500 445 c 2
 500 410 l 2
 500 320 420 320 340 320 c 2
 60 320 l 1
EndSplineSet
Validated: 1
EndChar

StartChar: uni2076
Encoding: 8310 8310 693
Width: 560
VWidth: 0
Flags: W
HStem: 320 70<190.156 369.844> 465 70<190.13 369.844> 590 70<194.051 480>
VStem: 60 130<394.158 464.237 535 585.571> 370 130<394.158 460.842>
LayerCount: 2
Fore
SplineSet
60 410 m 2
 60 560 l 2
 60 660 150 660 240 660 c 2
 480 660 l 1
 480 590 l 1
 240 590 l 2
 215 590 190 590 190 560 c 2
 190 535 l 1
 340 535 l 2
 420 535 500 535 500 445 c 2
 500 410 l 2
 500 320 420 320 340 320 c 2
 220 320 l 2
 140 320 60 320 60 410 c 2
190 415 m 2
 190 390 210 390 230 390 c 2
 330 390 l 2
 350 390 370 390 370 415 c 2
 370 440 l 2
 370 465 350 465 330 465 c 2
 230 465 l 2
 210 465 190 465 190 440 c 2
 190 415 l 2
EndSplineSet
Validated: 1
EndChar

StartChar: uni2077
Encoding: 8311 8311 694
Width: 560
VWidth: 0
Flags: MW
HStem: 590 70<60 355>
VStem: 60 440
LayerCount: 2
Fore
SplineSet
60 590 m 1
 60 660 l 1
 500 660 l 1
 500 590 l 1
 310 320 l 1
 165 320 l 1
 355 590 l 1
 60 590 l 1
EndSplineSet
Validated: 1
EndChar

StartChar: uni2078
Encoding: 8312 8312 695
Width: 560
VWidth: 0
Flags: W
HStem: 320 70<190.156 369.844> 465 70<190.13 369.87> 590 70<190.156 369.844>
VStem: 60 130<394.158 463.876 535.991 585.842> 370 130<394.158 463.876 535.991 585.842>
LayerCount: 2
Fore
SplineSet
60 410 m 2
 60 440 l 2
 60 485 100 500 120 505 c 1
 100 510 60 525 60 570 c 0
 60 660 140 660 220 660 c 2
 340 660 l 2
 420 660 500 660 500 570 c 0
 500 525 460 510 440 505 c 1
 460 500 500 485 500 440 c 2
 500 410 l 2
 500 320 420 320 340 320 c 2
 220 320 l 2
 140 320 60 320 60 410 c 2
190 415 m 2
 190 390 210 390 230 390 c 2
 330 390 l 2
 350 390 370 390 370 415 c 2
 370 440 l 2
 370 465 350 465 330 465 c 2
 230 465 l 2
 210 465 190 465 190 440 c 2
 190 415 l 2
190 560 m 2
 190 535 210 535 230 535 c 2
 330 535 l 2
 350 535 370 535 370 560 c 2
 370 565 l 2
 370 590 350 590 330 590 c 2
 230 590 l 2
 210 590 190 590 190 565 c 2
 190 560 l 2
EndSplineSet
Validated: 1
EndChar

StartChar: uni2079
Encoding: 8313 8313 696
Width: 560
VWidth: 0
Flags: MW
HStem: 320 70<80 365.949> 465 70<190.156 369.87> 590 70<190.156 369.844>
VStem: 60 130<539.158 585.842> 370 130<394.429 465 535.763 585.842>
LayerCount: 2
Fore
SplineSet
60 555 m 2
 60 570 l 2
 60 660 140 660 220 660 c 2
 340 660 l 2
 420 660 500 660 500 570 c 2
 500 420 l 2
 500 320 410 320 320 320 c 2
 80 320 l 1
 80 390 l 1
 320 390 l 2
 345 390 370 390 370 420 c 2
 370 465 l 1
 220 465 l 2
 140 465 60 465 60 555 c 2
190 560 m 2
 190 535 210 535 230 535 c 2
 330 535 l 2
 350 535 370 535 370 560 c 2
 370 565 l 2
 370 590 350 590 330 590 c 2
 230 590 l 2
 210 590 190 590 190 565 c 2
 190 560 l 2
EndSplineSet
Validated: 1
EndChar

StartChar: uni207A
Encoding: 8314 8314 697
Width: 480
VWidth: 0
Flags: W
HStem: 410 70<60 180 300 420>
VStem: 180 120<320 410 480 570>
LayerCount: 2
Fore
SplineSet
60 410 m 1
 60 480 l 1
 180 480 l 1
 180 570 l 1
 300 570 l 1
 300 480 l 1
 420 480 l 1
 420 410 l 1
 300 410 l 1
 300 320 l 1
 180 320 l 1
 180 410 l 1
 60 410 l 1
EndSplineSet
Validated: 1
EndChar

StartChar: uni207B
Encoding: 8315 8315 698
Width: 420
VWidth: 0
Flags: W
HStem: 410 70<60 360>
VStem: 60 300<410 480>
LayerCount: 2
Fore
SplineSet
60 410 m 1
 60 480 l 1
 360 480 l 1
 360 410 l 1
 60 410 l 1
EndSplineSet
Validated: 1
EndChar

StartChar: uni207C
Encoding: 8316 8316 699
Width: 460
VWidth: 0
Flags: MW
HStem: 340 70<60 400> 480 70<60 400>
VStem: 60 340<550 550>
LayerCount: 2
Fore
SplineSet
60 340 m 1
 60 410 l 1
 400 410 l 1
 400 340 l 1
 60 340 l 1
60 480 m 1
 60 550 l 1
 400 550 l 1
 400 480 l 1
 60 480 l 1
EndSplineSet
Validated: 1
EndChar

StartChar: uni207D
Encoding: 8317 8317 700
Width: 305
VWidth: 0
Flags: MW
HStem: 200 21G<117.5 245> 640 20G<117.5 245>
VStem: 60 110<308.438 551.562>
LayerCount: 2
Fore
SplineSet
60 430 m 3
 60 515 90 595 145 660 c 1
 245 660 l 1
 195 590 170 515 170 430 c 3
 170 345 195 270 245 200 c 1
 145 200 l 1
 90 265 60 345 60 430 c 3
EndSplineSet
Validated: 1
EndChar

StartChar: uni207E
Encoding: 8318 8318 701
Width: 305
VWidth: 0
Flags: MW
HStem: 200 21G<60 187.5> 640 20G<60 187.5>
VStem: 135 110<308.438 551.562>
LayerCount: 2
Fore
SplineSet
60 200 m 1
 110 270 135 345 135 430 c 3
 135 515 110 590 60 660 c 1
 160 660 l 1
 215 595 245 515 245 430 c 3
 245 345 215 265 160 200 c 1
 60 200 l 1
EndSplineSet
Validated: 1
EndChar

StartChar: uni207F
Encoding: 8319 8319 702
Width: 560
VWidth: 0
Flags: MW
HStem: 590 70<190 369.844>
VStem: 60 130<320 590> 370 130<320 585.842>
LayerCount: 2
Fore
SplineSet
60 320 m 1
 60 660 l 1
 340 660 l 2
 420 660 500 660 500 570 c 2
 500 320 l 1
 370 320 l 1
 370 565 l 2
 370 590 350 590 330 590 c 2
 190 590 l 1
 190 320 l 1
 60 320 l 1
EndSplineSet
Validated: 1
EndChar

StartChar: lira
Encoding: 8356 8356 718
Width: 930
VWidth: 0
Flags: MW
HStem: 0 110<70 170 340 860> 205 95<70 170 340 590> 300 60 360 95<70 170 340 590> 550 110<343.291 686.709>
VStem: 170 170<110 205 300 360 455 543.108> 690 170<465 543.108>
LayerCount: 2
Fore
SplineSet
70 0 m 1
 70 110 l 1
 170 110 l 1
 170 205 l 1
 70 205 l 1
 70 300 l 1
 170 300 l 1x20
 170 360 l 1x20
 70 360 l 1
 70 455 l 1
 170 455 l 1
 170 525 l 2
 170 660 290 660 410 660 c 2
 620 660 l 2
 740 660 860 660 860 525 c 2
 860 465 l 1
 690 465 l 1
 690 515 l 2
 690 550 660 550 630 550 c 2
 400 550 l 2
 370 550 340 550 340 515 c 2
 340 455 l 1
 590 455 l 1
 590 360 l 1
 340 360 l 1x20
 340 300 l 1x20
 590 300 l 1
 590 205 l 1
 340 205 l 1
 340 110 l 1
 860 110 l 1
 860 0 l 1
 70 0 l 1
EndSplineSet
Validated: 1
EndChar

StartChar: afii61248
Encoding: 8453 8453 719
Width: 1230
VWidth: 0
Flags: MW
HStem: 0 21G<380 530 850 1050> 640 20G<180 470 700 850>
VStem: 60 130<394.158 585.842> 730 130<74.1577 265.842> 1040 130<74.1577 265.842>
LayerCount: 2
Fore
SplineSet
380 0 m 1
 710 660 l 1
 850 660 l 1
 520 0 l 1
 380 0 l 1
60 410 m 2
 60 570 l 2
 60 660 140 660 220 660 c 2
 470 660 l 1
 470 590 l 1
 230 590 l 2
 210 590 190 590 190 565 c 2
 190 415 l 2
 190 390 210 390 230 390 c 2
 470 390 l 1
 470 320 l 1
 220 320 l 2
 140 320 60 320 60 410 c 2
730 90 m 2
 730 250 l 2
 730 340 810 340 890 340 c 2
 1010 340 l 2
 1090 340 1170 340 1170 250 c 2
 1170 90 l 2
 1170 0 1090 0 1010 0 c 2
 890 0 l 2
 810 0 730 0 730 90 c 2
860 95 m 2
 860 70 880 70 900 70 c 2
 1000 70 l 2
 1020 70 1040 70 1040 95 c 2
 1040 245 l 2
 1040 270 1020 270 1000 270 c 2
 900 270 l 2
 880 270 860 270 860 245 c 2
 860 95 l 2
EndSplineSet
Validated: 1
EndChar

StartChar: uni2117
Encoding: 8471 8471 720
Width: 1060
VWidth: 0
Flags: MW
HStem: 0 70<199.901 860.099> 160 21G<310 440> 285 70<440 618.277> 430 70<440 619.844> 590 70<199.901 860.099>
VStem: 60 130<81.5126 578.487> 310 130<160 285 355 430> 620 130<357.503 425.842> 870 130<81.5126 578.487>
LayerCount: 2
Fore
SplineSet
60 115 m 2
 60 545 l 2
 60 660 160 660 260 660 c 2
 800 660 l 2
 900 660 1000 660 1000 545 c 2
 1000 115 l 2
 1000 0 900 0 800 0 c 2
 260 0 l 2
 160 0 60 0 60 115 c 2
190 125 m 2
 190 70 240 70 290 70 c 2
 770 70 l 2
 820 70 870 70 870 125 c 2
 870 535 l 2
 870 590 820 590 770 590 c 2
 290 590 l 2
 240 590 190 590 190 535 c 2
 190 125 l 2
310 160 m 1
 310 500 l 1
 590 500 l 2
 670 500 750 500 750 410 c 2
 750 375 l 2
 750 295 685 285 615 285 c 2
 440 285 l 1
 440 160 l 1
 310 160 l 1
440 355 m 1
 580 355 l 2
 600 355 620 355 620 380 c 2
 620 405 l 2
 620 430 600 430 580 430 c 2
 440 430 l 1
 440 355 l 1
EndSplineSet
Validated: 1
EndChar

StartChar: orthogonal
Encoding: 8735 8735 725
Width: 780
VWidth: 0
Flags: MW
HStem: 0 120<180 720> 640 20G<60 180>
VStem: 60 120<120 660> 700 20G
LayerCount: 2
Fore
SplineSet
60 0 m 1
 60 660 l 1
 180 660 l 1
 180 120 l 1
 720 120 l 1
 720 0 l 1
 60 0 l 1
EndSplineSet
Validated: 1
EndChar

StartChar: .notdef
Encoding: 1114112 -1 729
Width: 740
VWidth: 0
Flags: W
HStem: 0 70<220 520> 590 70<220 520>
VStem: 100 120<70 590> 520 120<70 590>
LayerCount: 2
Fore
SplineSet
100 0 m 1
 100 660 l 1
 640 660 l 1
 640 0 l 1
 100 0 l 1
220 70 m 1
 520 70 l 1
 520 590 l 1
 220 590 l 1
 220 70 l 1
EndSplineSet
Validated: 1
EndChar

StartChar: arrowleft
Encoding: 8592 8592 730
Width: 780
VWidth: 0
Flags: MW
HStem: 0 21G<280 480> 170 140<330 720> 460 20G<280 480>
VStem: 60 420 700 20G
LayerCount: 2
Fore
SplineSet
60 240 m 5
 300 480 l 5
 480 480 l 5
 330 310 l 5
 720 310 l 5
 720 170 l 5
 330 170 l 5
 480 0 l 5
 300 0 l 5
 60 240 l 5
EndSplineSet
EndChar

StartChar: arrowright
Encoding: 8594 8594 731
Width: 780
VWidth: 0
Flags: MW
HStem: 0 21G<300 500> 170 140<60 450> 460 20G<300 500>
VStem: 60 21G 300 420
LayerCount: 2
Fore
SplineSet
60 170 m 1
 60 310 l 1
 450 310 l 1
 300 480 l 1
 480 480 l 1
 720 240 l 1
 480 0 l 1
 300 0 l 1
 450 170 l 1
 60 170 l 1
EndSplineSet
EndChar

StartChar: arrowup
Encoding: 8593 8593 732
Width: 600
VWidth: 0
Flags: MW
HStem: 0 21G<230 370> 240 420
VStem: 60 21G 230 140<0 390> 520 20G
LayerCount: 2
Fore
SplineSet
60 240 m 1
 60 420 l 1
 300 660 l 1
 540 420 l 1
 540 240 l 1
 370 390 l 1
 370 0 l 1
 230 0 l 1
 230 390 l 1
 60 240 l 1
EndSplineSet
EndChar

StartChar: arrowdown
Encoding: 8595 8595 733
Width: 600
VWidth: 0
Flags: MW
HStem: 0 420 640 20G<230 370>
VStem: 60 21G 230 140<270 660> 520 20G
LayerCount: 2
Fore
SplineSet
60 240 m 1
 60 420 l 1
 230 270 l 1
 230 660 l 1
 370 660 l 1
 370 270 l 1
 540 420 l 1
 540 240 l 1
 300 0 l 1
 60 240 l 1
EndSplineSet
EndChar

StartChar: uni2770
Encoding: 10096 10096 734
Width: 665
VWidth: 0
Flags: MW
HStem: -225 21G<390.169 605> 640 20G<390 605>
VStem: 75 310<210.561 229.333>
LayerCount: 2
Fore
SplineSet
75 220 m 1
 405 660 l 1
 605 660 l 1
 385 220 l 1
 605 -225 l 1
 405 -225 l 1
 75 220 l 1
EndSplineSet
EndChar

StartChar: uni2771
Encoding: 10097 10097 735
Width: 665
VWidth: 0
Flags: MW
HStem: -225 21G<60 274.831> 640 20G<60 275>
VStem: 280 310<210.561 229.333>
LayerCount: 2
Fore
SplineSet
60 -225 m 1
 280 220 l 1
 60 660 l 1
 260 660 l 1
 590 220 l 1
 260 -225 l 1
 60 -225 l 1
EndSplineSet
EndChar

StartChar: uni2772
Encoding: 10098 10098 736
Width: 475
VWidth: 0
Flags: W
HStem: -225 21G<335 385> 640 20G<335 385>
VStem: 75 140<-5 440>
LayerCount: 2
Fore
SplineSet
75 -75 m 1
 75 510 l 1
 375 660 l 1
 415 580 l 1
 215 440 l 1
 215 -5 l 1
 415 -145 l 1
 375 -225 l 1
 75 -75 l 1
EndSplineSet
EndChar

StartChar: uni2773
Encoding: 10099 10099 737
Width: 475
VWidth: 0
Flags: W
HStem: -225 21G<90 140> 640 20G<90 140>
VStem: 260 140<-5 440>
LayerCount: 2
Fore
SplineSet
60 -145 m 1
 260 -5 l 1
 260 440 l 1
 60 580 l 1
 100 660 l 1
 400 510 l 1
 400 -75 l 1
 100 -225 l 1
 60 -145 l 1
EndSplineSet
EndChar
